<svg width="153" height="150" viewBox="0 0 153 150" fill="none" xmlns="http://www.w3.org/2000/svg">
<path opacity="0.7" fill-rule="evenodd" clip-rule="evenodd" d="M135.577 23.8268V23.2594C135.579 23.1799 135.56 23.1014 135.52 23.0324C135.528 22.97 135.507 22.9075 135.463 22.8621C135.466 22.7827 135.446 22.7041 135.407 22.6351V22.4081C135.407 22.3514 135.35 22.2379 135.35 22.1811C135.35 22.1244 135.293 22.0676 135.293 22.0109C135.293 21.9541 135.237 21.8974 135.237 21.7839C135.237 21.6704 135.18 21.6704 135.18 21.5569V21.4718C135.18 21.415 135.123 21.415 135.123 21.3583C135.123 21.3015 135.066 21.2448 135.066 21.188C135.066 21.1313 135.01 21.0745 135.01 21.0178C134.953 20.961 134.953 20.9043 134.896 20.8475C134.84 20.7908 134.84 20.6773 134.783 20.6206V20.5071C134.726 20.4503 134.726 20.3936 134.669 20.3368C134.613 20.2801 134.613 20.2233 134.556 20.1098C134.499 19.9963 134.499 20.0531 134.499 19.9963V19.9396C134.443 19.8828 134.443 19.8261 134.386 19.7693C134.329 19.7126 134.272 19.5991 134.216 19.4856V19.4288C134.159 19.3153 134.045 19.2018 133.989 19.0883C133.932 18.9748 133.875 18.9181 133.819 18.8613L133.648 18.6911L133.478 18.5209L133.308 18.3506L133.251 18.2939L133.138 18.1804L132.968 18.0101L132.911 17.9534L132.854 17.8966L132.798 17.8399L132.628 17.6696L132.571 17.6129L132.514 17.5561L132.457 17.4994C132.401 17.4426 132.344 17.3859 132.287 17.3859C132.231 17.3859 132.174 17.3291 132.174 17.2724C132.117 17.2156 132.06 17.2156 132.004 17.1589C131.947 17.1021 131.89 17.1021 131.834 17.0454H131.777L108.466 3.53925C108.423 3.53325 108.383 3.51332 108.353 3.4825C108.296 3.42575 108.239 3.42575 108.183 3.36901C108.126 3.31226 108.126 3.31226 108.069 3.31226H108.013C107.956 3.31226 107.899 3.25551 107.842 3.25551C107.786 3.25551 107.729 3.19876 107.672 3.19876C107.616 3.19876 107.616 3.19876 107.559 3.14201C107.502 3.08526 107.445 3.08526 107.389 3.08526H107.219C107.156 3.09277 107.094 3.07195 107.048 3.02851H106.481C106.401 3.02002 106.321 3.04013 106.254 3.08526H106.198C106.141 3.08526 106.028 3.14201 105.971 3.14201C105.869 3.18586 105.774 3.24311 105.687 3.31226L103.702 4.44723C103.804 4.40338 103.899 4.34612 103.986 4.27698C104.052 4.23185 104.133 4.21174 104.213 4.22023H104.269C104.383 4.22023 104.439 4.16348 104.553 4.16348H104.95C105.066 4.15454 105.183 4.17401 105.29 4.22023H105.347C105.467 4.23199 105.584 4.27078 105.687 4.33373C105.815 4.40074 105.948 4.45766 106.084 4.50398C106.228 4.55774 106.362 4.63439 106.481 4.73097L129.792 18.2371C129.937 18.3121 130.071 18.4077 130.189 18.5209C130.302 18.6344 130.416 18.6911 130.529 18.8046L130.586 18.8613C130.699 18.9748 130.813 19.0316 130.926 19.1451L130.983 19.2018L131.323 19.5423L131.38 19.5991C131.507 19.7191 131.621 19.8522 131.72 19.9963C131.834 20.1098 131.947 20.2801 132.06 20.3936C132.174 20.5071 132.231 20.6773 132.344 20.7908C132.457 20.9043 132.457 20.961 132.514 21.0745C132.574 21.1371 132.613 21.2162 132.628 21.3015C132.628 21.3583 132.684 21.3583 132.684 21.415C132.751 21.5526 132.826 21.6853 132.911 21.8123V21.869C132.968 22.0393 133.081 22.1528 133.138 22.323C133.195 22.4933 133.251 22.6068 133.308 22.777V22.8337C133.355 22.9884 133.412 23.1401 133.478 23.2877V23.3445C133.543 23.4879 133.581 23.6416 133.592 23.7985V23.8552C133.648 24.0255 133.648 24.1957 133.705 24.3092C133.705 24.4795 133.762 24.6497 133.762 24.7632V25.2739L133.705 52.116V52.6267C133.705 52.7402 133.648 52.8537 133.648 53.024V53.0807C133.637 53.2013 133.598 53.3177 133.535 53.4212V53.4779C133.478 53.5914 133.478 53.6482 133.422 53.7617V53.8184C133.378 53.9202 133.321 54.0156 133.251 54.1022C133.174 54.2291 133.079 54.3438 132.968 54.4427L132.911 54.4994C132.798 54.6129 132.684 54.6697 132.571 54.7832L134.556 53.6482C134.683 53.5709 134.797 53.4753 134.896 53.3644L134.953 53.3077C135.066 53.1942 135.123 53.0807 135.237 52.9672C135.293 52.8537 135.35 52.797 135.407 52.6835V52.6267C135.407 52.57 135.463 52.5132 135.463 52.4565C135.463 52.3997 135.463 52.3997 135.52 52.343V52.2295C135.52 52.1727 135.577 52.116 135.577 52.0025V51.8322C135.569 51.7699 135.59 51.7074 135.634 51.662V51.0945L135.69 24.2525C135.621 24.121 135.582 23.9755 135.577 23.8268Z" fill="white"/>
<g opacity="0.4">
<path fill-rule="evenodd" clip-rule="evenodd" d="M129.565 18.2656C131.777 19.5709 133.592 22.6353 133.592 25.189L133.535 52.031C133.535 54.5847 131.72 55.6062 129.508 54.3577L106.198 40.8515C103.986 39.5463 102.171 36.4819 102.171 33.9282L102.227 7.08618C102.227 4.5325 104.042 3.51103 106.254 4.75949L129.565 18.2656Z" fill="white"/>
</g>
<path d="M122.55 41.8067L111.235 35.2756C110.672 34.9508 110.132 34.3296 109.735 33.5487C109.337 32.7678 109.113 31.8911 109.113 31.1114L109.115 17.3934C109.115 16.6138 109.339 15.9951 109.737 15.6735C110.134 15.3519 110.674 15.3537 111.237 15.6784L114.773 17.7194C114.889 17.7867 115.004 17.8928 115.107 18.0283C115.209 18.1638 115.297 18.3245 115.361 18.4961L116.565 21.6938L122.552 25.1492C123.114 25.4739 123.654 26.0951 124.052 26.8761C124.45 27.657 124.673 28.5337 124.673 29.3133L124.672 40.0918C124.672 40.8714 124.448 41.4901 124.05 41.8117C123.652 42.1333 123.112 42.1315 122.55 41.8067ZM111.237 17.6382C111.049 17.5299 110.869 17.5293 110.737 17.6365C110.604 17.7437 110.529 17.9499 110.529 18.2098L110.528 31.9278C110.528 32.1877 110.602 32.4799 110.735 32.7403C110.867 33.0006 111.047 33.2076 111.235 33.3159L122.55 39.847C122.738 39.9553 122.917 39.9559 123.05 39.8487C123.183 39.7415 123.257 39.5352 123.257 39.2754L123.259 28.4969C123.259 28.2371 123.184 27.9448 123.051 27.6845C122.919 27.4242 122.739 27.2171 122.551 27.1089L116.187 23.4351C116.07 23.3678 115.956 23.2617 115.853 23.1262C115.75 22.9907 115.663 22.8301 115.598 22.6585L114.394 19.4608L111.237 17.6382Z" fill="white"/>
<path d="M115.126 18.9034L110.176 16.046L109.467 30.8256L110.881 34.0917L123.611 41.4392L123.611 38.9895L123.612 27.2313L116.54 23.1493L115.126 18.9034Z" fill="white"/>
<path d="M121.55 42.8067L110.235 36.2756C109.672 35.9508 109.132 35.3296 108.735 34.5487C108.337 33.7678 108.113 32.8911 108.113 32.1114L108.115 18.3934C108.115 17.6138 108.339 16.9951 108.737 16.6735C109.134 16.3519 109.674 16.3537 110.237 16.6784L113.773 18.7194C113.889 18.7867 114.004 18.8928 114.107 19.0283C114.209 19.1638 114.297 19.3245 114.361 19.4961L115.565 22.6938L121.552 26.1492C122.114 26.4739 122.654 27.0951 123.052 27.8761C123.45 28.657 123.673 29.5337 123.673 30.3133L123.672 41.0918C123.672 41.8714 123.448 42.4901 123.05 42.8117C122.652 43.1333 122.112 43.1315 121.55 42.8067ZM110.237 18.6382C110.049 18.5299 109.869 18.5293 109.737 18.6365C109.604 18.7437 109.529 18.9499 109.529 19.2098L109.528 32.9278C109.528 33.1877 109.602 33.4799 109.735 33.7403C109.867 34.0006 110.047 34.2076 110.235 34.3159L121.55 40.847C121.738 40.9553 121.917 40.9559 122.05 40.8487C122.183 40.7415 122.257 40.5352 122.257 40.2754L122.259 29.4969C122.259 29.2371 122.184 28.9448 122.051 28.6845C121.919 28.4242 121.739 28.2171 121.551 28.1089L115.187 24.4351C115.07 24.3678 114.956 24.2617 114.853 24.1262C114.75 23.9907 114.663 23.8301 114.598 23.6585L113.394 20.4608L110.237 18.6382Z" fill="#F8D7A5"/>
<path d="M114.126 19.9034L109.176 17.046L108.467 31.8256L109.881 35.0917L122.611 42.4392L122.611 39.9895L122.612 28.2313L115.54 24.1493L114.126 19.9034Z" fill="#F8D7A5"/>
<path opacity="0.7" fill-rule="evenodd" clip-rule="evenodd" d="M152.115 76.9259V76.3447C152.117 76.2634 152.097 76.1829 152.057 76.1123C152.064 76.0484 152.043 75.9844 151.998 75.9379C152.001 75.8565 151.981 75.7761 151.94 75.7054V75.4672C151.94 75.409 151.882 75.2928 151.882 75.2347C151.882 75.1766 151.824 75.1185 151.824 75.0603V75.0022C151.824 74.9441 151.766 74.886 151.766 74.7698C151.766 74.6535 151.708 74.6535 151.708 74.5373V74.4211C151.702 74.377 151.681 74.3362 151.65 74.3048C151.65 74.2467 151.592 74.1886 151.592 74.1305C151.586 74.0864 151.565 74.0456 151.534 74.0142V73.9561C151.476 73.898 151.476 73.8399 151.418 73.7818C151.359 73.7237 151.359 73.6656 151.301 73.5493V73.4331C151.243 73.375 151.243 73.3169 151.185 73.2587C151.127 73.2006 151.127 73.1425 151.069 73.0263C151.011 72.91 151.011 72.9682 151.011 72.91V72.8519C150.953 72.7938 150.953 72.7357 150.895 72.6776C150.837 72.6195 150.779 72.5032 150.72 72.387V72.3289C150.662 72.2126 150.546 72.0964 150.488 71.9802C150.43 71.9221 150.372 71.8058 150.314 71.7477L150.14 71.5734L149.965 71.399L149.791 71.2247L149.675 71.1084L149.5 70.9341L149.442 70.876L149.384 70.8179L149.326 70.7597L149.152 70.5854L149.094 70.5273L149.036 70.4692L148.978 70.411C148.92 70.3529 148.861 70.2948 148.803 70.2948C148.745 70.2948 148.687 70.2367 148.687 70.1786C148.629 70.1205 148.571 70.1205 148.513 70.0623C148.455 70.0042 148.397 70.0042 148.339 69.9461H148.281L83.5125 32.525C83.4685 32.5189 83.4277 32.4984 83.3963 32.4669C83.3382 32.4088 83.2801 32.4088 83.222 32.3506C83.164 32.2925 83.164 32.2925 83.1059 32.2925H83.0478C82.9897 32.2925 82.9316 32.2344 82.8735 32.2344C82.8154 32.2344 82.7573 32.1763 82.6992 32.1763C82.6411 32.1763 82.6411 32.1763 82.583 32.1182C82.5249 32.0601 82.4668 32.0601 82.4087 32.0601H82.2345C82.1706 32.0678 82.1067 32.0464 82.0602 32.0019H81.4793C81.3974 31.9933 81.315 32.0138 81.2469 32.0601H81.1888C81.1307 32.0601 81.0145 32.1182 80.9564 32.1182C80.8523 32.1631 80.7546 32.2217 80.6659 32.2925L78.6327 33.4549C78.7368 33.41 78.8345 33.3513 78.9232 33.2805C78.9913 33.2343 79.0736 33.2137 79.1555 33.2224H79.2136C79.3298 33.2224 79.3879 33.1643 79.5041 33.1643H79.9107C80.0299 33.1551 80.1495 33.1751 80.2593 33.2224H80.3174C80.4408 33.2344 80.56 33.2742 80.6659 33.3386C80.7968 33.4072 80.9327 33.4655 81.0726 33.513C81.2198 33.568 81.3571 33.6465 81.4793 33.7454L146.253 71.1724C146.402 71.2492 146.539 71.347 146.66 71.4629C146.776 71.5792 146.892 71.6373 147.008 71.7535L147.066 71.8116C147.183 71.9279 147.299 71.986 147.415 72.1022L147.473 72.1603L147.822 72.509C147.952 72.6319 148.069 72.7683 148.17 72.9159C148.286 73.0321 148.403 73.2064 148.519 73.3227C148.635 73.4389 148.693 73.6132 148.809 73.7295C148.925 73.8457 148.925 73.9038 148.983 74.0201C149.045 74.0841 149.085 74.1651 149.1 74.2525C149.1 74.3106 149.158 74.3106 149.158 74.3688C149.226 74.5096 149.303 74.6456 149.39 74.7756V74.8337C149.448 75.008 149.564 75.1243 149.622 75.2986C149.681 75.473 149.739 75.5892 149.797 75.7635V75.8217C149.845 75.9801 149.903 76.1354 149.971 76.2866C150.037 76.4335 150.076 76.5909 150.087 76.7515V76.8096C150.145 76.984 150.145 77.1583 150.203 77.2746C150.203 77.4489 150.261 77.6233 150.261 77.7395V78.2626L150.203 106.1V106.623C150.203 106.74 150.145 106.856 150.145 107.03V107.088C150.133 107.212 150.094 107.331 150.029 107.437V107.495C149.971 107.611 149.971 107.669 149.913 107.786V107.844C149.868 107.948 149.809 108.046 149.739 108.134C149.66 108.264 149.562 108.382 149.448 108.483L149.39 108.541C149.274 108.657 149.158 108.716 149.042 108.832L151.075 107.669C151.205 107.59 151.322 107.492 151.423 107.379L151.481 107.321C151.598 107.204 151.656 107.088 151.772 106.972C151.83 106.856 151.888 106.798 151.946 106.681V106.623C151.946 106.565 152.004 106.507 152.004 106.449C152.004 106.391 152.004 106.391 152.062 106.333V106.217C152.062 106.158 152.12 106.1 152.12 105.984V105.81C152.113 105.746 152.134 105.682 152.179 105.635V105.054L152.237 77.2165C152.115 77.0421 152.115 76.984 152.115 76.9259Z" fill="white"/>
<g opacity="0.4">
<path fill-rule="evenodd" clip-rule="evenodd" d="M145.957 71.1715C148.222 72.5082 150.081 75.6465 150.081 78.2617L150.023 106.099C150.023 108.715 148.164 109.761 145.898 108.482L81.1246 71.0553C78.859 69.7186 77 66.5803 77 63.9651L77.0581 36.1274C77.0581 33.5121 78.9171 32.466 81.1827 33.7446L145.957 71.1715Z" fill="white"/>
</g>
<rect x="97" y="51" width="55.644" height="2" rx="1" transform="rotate(30 97 51)" fill="white"/>
<rect x="94.5" y="60" width="55.644" height="1" rx="0.5" transform="rotate(30 94.5 60)" fill="white"/>
<rect x="94.5" y="69" width="55.644" height="1" rx="0.5" transform="rotate(30 94.5 69)" fill="white"/>
<path fill-rule="evenodd" clip-rule="evenodd" d="M67.0891 13.6068C73.0535 11.6779 79.5772 13.9179 82.9322 26.6112C86.2872 39.3045 103.621 35.4467 103.621 35.4467C103.621 35.4467 98.0298 64.131 70.6926 52.5577C43.3555 40.9845 58.2045 16.469 67.0891 13.6068Z" fill="#004396"/>
<path fill-rule="evenodd" clip-rule="evenodd" d="M39.624 60.8054C39.6137 60.9991 39.5755 61.1902 39.5105 61.3729C39.3541 61.7708 39.0369 62.0841 38.6372 62.2354C38.2375 62.3867 37.7925 62.362 37.412 62.1674C37.0717 61.9972 36.6747 61.7702 36.2777 61.5432C34.9732 60.8054 33.5553 59.8407 32.9881 58.8192C31.8538 56.7763 30.3225 56.0953 29.5284 54.3361C29.4717 54.2226 29.4717 54.1659 29.415 54.0524C28.9985 52.8383 29.3571 51.4928 30.3225 50.6475L35.0299 56.7763L37.4687 58.5355L39.0001 59.6137C39.3966 59.8794 39.6315 60.328 39.624 60.8054Z" fill="#FAB9AF"/>
<path fill-rule="evenodd" clip-rule="evenodd" d="M36.1644 58.5354C36.8511 58.1598 37.125 57.3129 36.7883 56.606L31.8539 47.129C31.4785 46.4419 30.6321 46.1679 29.9256 46.5048C29.2388 46.8804 28.965 47.7273 29.3017 48.4342L34.2417 57.9396C34.4056 58.2854 34.7069 58.5467 35.0723 58.6599C35.4377 58.7732 35.8338 58.728 36.1644 58.5354Z" fill="#373C41"/>
<path fill-rule="evenodd" clip-rule="evenodd" d="M57.036 139.175L56.1286 143.544C55.9591 144.442 55.9019 145.357 55.9584 146.268L56.0718 147.687C56.1233 148.24 55.9093 148.784 55.4952 149.154C55.0812 149.523 54.5163 149.674 53.9733 149.56C51.0241 148.936 45.9196 147.914 44.6151 147.687C44.3928 147.647 44.2279 147.459 44.2181 147.233C44.3882 145.928 48.245 145.814 51.1942 145.304C53.4629 144.906 54.1435 141.104 54.3136 138.834C54.3509 138.424 54.5701 138.053 54.9107 137.822C55.2513 137.591 55.6775 137.525 56.0718 137.643C56.7583 137.803 57.188 138.486 57.036 139.175Z" fill="#FAB9AF"/>
<path fill-rule="evenodd" clip-rule="evenodd" d="M51.1375 145.19C51.4133 145.13 51.6802 145.035 51.9316 144.906C53.3652 145.525 54.9075 145.853 56.4689 145.871V146.268L56.5823 147.857C56.6335 148.481 56.3872 149.092 55.918 149.505C55.4488 149.919 54.812 150.086 54.2002 149.957C50.8539 149.276 45.1256 148.141 43.6509 147.857C43.4241 147.801 43.1972 147.574 43.2539 147.347C43.4241 145.899 47.7913 145.758 51.1375 145.19Z" fill="#8E91F4"/>
<path fill-rule="evenodd" clip-rule="evenodd" d="M99.233 136.82L101.558 141.587C101.657 141.798 101.792 141.989 101.955 142.155L103.317 143.573C103.713 143.995 103.888 144.579 103.787 145.149C103.687 145.718 103.323 146.207 102.806 146.467C102.806 146.467 100.764 147.602 98.6659 148.681C96.5674 149.759 93.5047 149.645 93.4479 149.078C93.2211 147.716 94.639 148.567 96.5106 146.865C97.1345 146.297 97.7584 145.673 98.3256 145.049C99.9136 143.346 97.7584 139.998 96.2838 138.182C96.0457 137.872 95.9648 137.47 96.0647 137.092C96.1647 136.714 96.4341 136.404 96.7942 136.253L97.3047 136.082C98.0414 135.807 98.8682 136.123 99.233 136.82Z" fill="#FAB9AF"/>
<path fill-rule="evenodd" clip-rule="evenodd" d="M96.2837 146.893C96.9643 146.269 97.6449 145.588 98.2688 144.963C98.4927 144.694 98.6657 144.387 98.7792 144.055C98.836 143.885 98.9494 143.772 99.0628 143.772C100.208 143.592 101.307 143.187 102.296 142.58C102.538 142.442 102.843 142.489 103.033 142.693L103.657 143.374C104.087 143.83 104.274 144.462 104.162 145.079C104.05 145.695 103.652 146.221 103.09 146.496C103.09 146.496 100.878 147.687 98.6091 148.879C96.3404 150.071 93.1076 149.901 92.9941 149.276C92.7106 147.801 94.2419 148.766 96.2837 146.893Z" fill="#8E91F4"/>
<path fill-rule="evenodd" clip-rule="evenodd" d="M100.084 139.856C99.5825 140.252 99.029 140.576 98.439 140.821C97.968 140.989 97.4424 140.88 97.0778 140.537C94.9226 138.21 86.3584 128.733 79.6659 117.497C76.8867 112.844 73.6539 101.04 72.0091 91.2793C71.9429 90.8693 71.6087 90.5556 71.1956 90.5156C70.7825 90.4756 70.3945 90.7194 70.2509 91.109C68.6061 95.7057 66.7345 100.643 65.8837 102.799C64.6927 105.807 62.7643 115.284 60.7792 124.137C59.1345 131.627 57.6031 138.664 57.0927 141.048C56.9875 141.58 56.4983 141.947 55.9583 141.899C55.3458 141.805 54.7522 141.613 54.2001 141.331C53.8531 141.162 53.633 140.81 53.633 140.423C53.4628 137.756 52.8956 125.953 53.0091 116.589C53.1225 103.31 56.5822 89.0661 58.6807 81.6888C58.8509 81.178 58.9643 80.724 59.0777 80.2701C60.1554 76.6949 83.5226 70.2256 85.6778 78.7946C86.4718 81.859 86.9256 86.7394 87.1524 92.017C87.3793 96.7271 87.436 101.721 87.4927 106.034C87.4927 110.971 91.7465 119.71 95.1495 127.201C97.4181 132.195 99.5734 136.621 100.424 138.381C100.723 138.884 100.573 139.534 100.084 139.856Z" fill="url(#paint0_linear)"/>
<path fill-rule="evenodd" clip-rule="evenodd" d="M90.4989 92.7543C90.3602 93.0986 90.1236 93.3946 89.8183 93.6055C89.1866 94.0362 88.4999 94.3798 87.7765 94.627C87.0959 94.9107 85.9048 95.1377 86.3586 94.3433C86.7556 93.6623 88.7974 92.6408 88.1735 90.4276C88.1168 90.3141 88.0601 90.0304 87.8899 90.0304C87.4929 90.0304 87.4362 90.9383 87.2093 91.3923C86.9257 92.0166 86.472 92.2436 86.2451 92.1868C86.0183 92.1301 86.3019 91.7328 86.472 90.9951C86.6989 89.9736 86.8123 89.0089 86.9825 88.6117C87.1023 88.3776 87.2349 88.1503 87.3795 87.9307C87.6865 87.5719 87.9007 87.1432 88.0033 86.6822V84.9797C88.0033 84.1285 88.4004 83.561 89.1944 83.561C89.5402 83.5631 89.8686 83.7134 90.0963 83.9738C90.324 84.2342 90.4293 84.5798 90.3854 84.923V86.3985C90.3597 87.0955 90.4754 87.7904 90.7257 88.4414C91.2362 89.8034 90.8959 91.4491 90.4989 92.7543Z" fill="#FAB9AF"/>
<path fill-rule="evenodd" clip-rule="evenodd" d="M93.4481 64.2102C93.4481 64.6074 93.4481 65.1749 93.3914 65.8559C93.1645 71.02 92.257 82.8804 92.2003 83.3344C92.1736 83.5225 92.0951 83.6993 91.9735 83.8452C91.6464 84.1555 91.2294 84.3542 90.7824 84.4127C90.6123 85.4341 90.4988 86.0584 90.4988 86.0584C90.0968 86.1968 89.6761 86.2734 89.2511 86.2854C88.8388 86.2732 88.4335 86.1766 88.06 86.0016V84.1857C87.516 83.9839 87.0562 83.6039 86.7555 83.1074C86.709 82.9805 86.6897 82.8451 86.6988 82.7102C86.7555 82.313 87.5496 65.5722 86.869 63.5292C86.4762 62.5636 86.0019 61.6334 85.451 60.7485C84.4302 58.9326 83.0122 56.5491 81.4809 54.109L82.3884 58.8191V58.9326L85.7346 75.9004C86.08 77.5419 85.3227 79.218 83.863 80.043C83.4093 80.27 82.9555 80.5538 82.3884 80.8375C76.4961 83.9025 69.7587 84.9396 63.2182 83.7884C62.2897 83.6278 61.3783 83.3808 60.4958 83.0507C59.2911 82.5938 58.5457 81.3817 58.6808 80.0998L59.0211 76.2409L59.7585 67.2746C58.9644 69.658 58.057 71.1903 57.0361 71.1903C51.4778 71.247 36.3912 63.0752 36.3912 63.0752C35.8241 61.543 36.9017 59.3298 37.639 58.3083C37.639 58.3083 53.1226 64.2669 53.5196 62.5645C54.8241 57.0599 57.8868 44.5185 59.8719 40.8865C60.4612 39.8425 61.324 38.9792 62.3674 38.3896C62.8026 37.8097 63.461 37.4391 64.1823 37.3681L77.7943 35.3252L77.851 35.4954C78.7728 35.5254 79.6471 35.9119 80.2898 36.5737C80.2331 36.4602 93.5048 54.2225 93.4481 64.2102Z" fill="#00D9CD"/>
<path fill-rule="evenodd" clip-rule="evenodd" d="M33.8388 51.1293C33.8388 51.1293 35.0299 49.2566 35.3134 51.1293C35.5839 52.7793 35.9628 54.4096 36.4478 56.0097L33.8388 51.1293Z" fill="#FAB9AF"/>
<path fill-rule="evenodd" clip-rule="evenodd" d="M33.8389 57.1166C33.8389 57.1166 34.2926 54.9602 33.5553 54.5062C32.818 54.0522 32.5911 53.882 32.3642 53.4847C32.1374 53.0875 32.1941 51.7255 31.5135 51.1013C30.8329 50.4771 30.3792 50.7041 30.3792 50.7041C30.3792 50.7041 29.8687 52.293 30.7762 53.201C31.6836 54.109 32.5911 55.1304 32.6478 55.8682C32.7045 56.6059 33.7254 58.3084 33.8389 57.1166Z" fill="#FAB9AF"/>
<path fill-rule="evenodd" clip-rule="evenodd" d="M62.084 31.6365C62.5377 30.6717 63.5019 29.48 65.884 28.6288C67.7629 27.9141 69.7903 27.68 71.7825 27.9478C71.7825 27.9478 73.9945 28.1181 78.6452 27.2668C81.3676 26.7561 82.3318 28.9125 81.8213 31.523C81.7887 31.6143 81.7696 31.7099 81.7646 31.8067C81.2379 34.1628 79.891 36.2547 77.9646 37.7086C77.3488 38.162 76.6827 38.5429 75.9795 38.8435C72.5765 40.8865 69.1736 41.454 67.6422 40.319C67.2206 40.0083 66.8225 39.6669 66.4512 39.2975C65.0786 38.9043 63.8418 38.1383 62.878 37.0843C60.9497 34.7576 61.5168 32.4309 62.084 31.6365Z" fill="#00D9CD"/>
<path fill-rule="evenodd" clip-rule="evenodd" d="M67.5286 39.2127C67.5286 39.2127 63.445 36.4888 65.2032 33.5946C66.9614 30.7004 74.9585 30.9274 75.4689 32.3462C75.9794 33.7649 74.7316 38.021 71.2719 39.2127H67.5286Z" fill="#0D9991"/>
<path fill-rule="evenodd" clip-rule="evenodd" d="M61.5167 45.2618L59.8152 65.975L62.3675 44.7454L61.5167 45.2618Z" fill="#0D9991"/>
<path fill-rule="evenodd" clip-rule="evenodd" d="M81.4809 54.0015L79.4958 47.4187L85.5077 60.7546L81.4809 54.0015Z" fill="#0D9991"/>
<path fill-rule="evenodd" clip-rule="evenodd" d="M53.5194 62.4569L55.4478 65.5157L53.009 62.7407L53.5194 62.4569Z" fill="#0D9991"/>
<path fill-rule="evenodd" clip-rule="evenodd" d="M92.1433 83.6179C92.1433 83.6179 89.9881 84.6961 87.9463 84.0719C89.6478 84.6394 91.3493 84.7529 92.1433 83.6179Z" fill="#C63C53"/>
<path fill-rule="evenodd" clip-rule="evenodd" d="M37.0775 59.2166C37.0775 59.2166 36.7939 62.6215 37.9282 63.7564L36.4536 62.962C36.4536 62.962 35.824 61.4297 37.0775 59.2166Z" fill="#0D9991"/>
<path fill-rule="evenodd" clip-rule="evenodd" d="M85.7913 75.787C86.1366 77.4285 85.3794 79.1046 83.9196 79.9297C83.4659 80.1567 83.0122 80.4404 82.445 80.7241C85.1674 78.3407 82.6152 60.3514 82.445 58.8192L85.7913 75.787Z" fill="#0D9991"/>
<path fill-rule="evenodd" clip-rule="evenodd" d="M63.3316 83.6749C62.4032 83.5143 61.4917 83.2673 60.6092 82.9371C59.4045 82.4802 58.6591 81.2682 58.7943 79.9862L59.1346 76.1273C59.4181 78.1703 59.3047 82.0292 63.3316 83.6749Z" fill="#0D9991"/>
<path opacity="0.5" fill-rule="evenodd" clip-rule="evenodd" d="M90.4989 92.7542C90.3602 93.0985 90.1235 93.3944 89.8183 93.6054C90.1015 92.2048 90.2346 90.778 90.2153 89.3492C90.0451 87.817 87.9466 87.0793 88.0033 85.9443C88.7691 86.3039 89.6463 86.3447 90.4421 86.0578V86.3983C90.4164 87.0953 90.5321 87.7903 90.7824 88.4413C91.2362 89.8032 90.8959 91.4489 90.4989 92.7542Z" fill="#E59289"/>
<path opacity="0.5" fill-rule="evenodd" clip-rule="evenodd" d="M37.4688 58.507C36.8387 59.4218 36.4309 60.4711 36.2778 61.5714C34.9733 60.8337 33.5554 59.869 32.9882 58.8475C31.8539 56.8046 30.3225 56.1236 29.5285 54.3644C29.6419 54.3644 29.8121 54.4211 29.9822 54.7049C30.3225 55.3291 33.1584 59.0178 34.8599 59.2448C35.7973 59.4294 36.7666 59.1553 37.4688 58.507Z" fill="#E59289"/>
<path fill-rule="evenodd" clip-rule="evenodd" d="M42.3821 98.1917C42.3821 97.5336 41.8489 97 41.1911 97C40.5333 97 40 97.5336 40 98.1917C39.997 98.6232 40.2388 99.019 40.6239 99.2132L41.1911 135.305H41.1344L41.7015 99.2132C42.1168 99.0452 42.3868 98.6399 42.3821 98.1917Z" fill="url(#paint1_linear)"/>
<path opacity="0.4" fill-rule="evenodd" clip-rule="evenodd" d="M115.986 83.7153C109.123 80.9347 101.126 78.8917 92.5618 77.5297V77.8702C100.385 79.0269 108.052 81.0639 115.419 83.9423C141.735 94.611 141.848 111.976 115.702 122.645C89.5558 133.314 46.9049 133.314 20.5885 122.645C-5.72801 111.976 -5.84144 94.611 20.3049 83.9423C30.9676 79.5727 44.4094 77.019 58.3617 76.2245V75.884C44.1825 76.6785 30.5706 79.2889 19.7377 83.7153C-6.69219 94.4975 -6.57875 112.09 20.078 122.872C46.7348 133.654 89.8394 133.654 116.326 122.872C142.813 112.09 142.586 94.4975 115.986 83.7153Z" fill="white"/>
<path opacity="0.4" fill-rule="evenodd" clip-rule="evenodd" d="M106.457 105.393C100.279 102.989 93.8477 101.294 87.2872 100.342V100.626C93.7091 101.567 100.006 103.223 106.06 105.563C127.102 114.132 127.216 127.979 106.287 136.548C85.3588 145.117 51.1588 145.117 30.1169 136.548C9.07508 127.979 8.96164 114.075 29.89 105.563C36.9796 102.669 45.5438 100.796 54.6185 99.8316L54.6752 99.5479C45.4304 100.513 36.6393 102.442 29.4363 105.336C8.28104 113.962 8.39448 128.036 29.6632 136.718C50.9319 145.401 85.5857 145.344 106.741 136.718C127.896 128.092 127.783 114.019 106.457 105.393Z" fill="white"/>
<path fill-rule="evenodd" clip-rule="evenodd" d="M68.0001 40.8986C67.9936 41.6882 68.2343 42.4472 68.6665 43C69.978 41.5977 71.4135 40.4057 72.9424 39.4493C73.0054 39.2661 73.043 39.0698 73.0535 38.8696C73.5914 36.3645 73.9082 33.7874 73.9975 31.1884C74.0551 29.5362 73.0957 28.1237 71.8318 28C70.6687 28.0361 69.7239 29.2373 69.6661 30.7536C69.5463 33.5258 69.116 36.2601 68.3889 38.8696C68.3304 39.1533 68.2366 39.4226 68.1112 39.6667C68.1112 40.1014 68.0001 40.5362 68.0001 40.8986Z" fill="#FFCCB6"/>
<path fill-rule="evenodd" clip-rule="evenodd" d="M63.1129 21.2292C61.0004 26.3936 61.8703 31.8069 65.8466 33.6735C69.8229 35.5402 74.7311 32.8024 76.8436 27.638C78.956 22.4736 77.4027 16.7492 73.3643 14.9447C69.4812 13.047 65.2253 15.9714 63.1129 21.2292Z" fill="#FFCCB6"/>
<path fill-rule="evenodd" clip-rule="evenodd" d="M66 16.125C66.0601 16.375 67.7541 26.0625 82 31.5C82 31.5 83.1229 17.875 70.5 13.5L66 16.125Z" fill="#004396"/>
<path fill-rule="evenodd" clip-rule="evenodd" d="M75.8492 26.2062C74.793 27.5751 74.5445 29.1306 75.228 29.7528C75.9114 30.3751 77.4025 29.7528 78.4587 28.384C79.5149 27.0151 79.7634 25.4595 79.08 24.8373C78.3966 24.2151 76.9365 24.8062 75.8492 26.2062Z" fill="#FFCCB6"/>
<path fill-rule="evenodd" clip-rule="evenodd" d="M67.515 39.1829C67.515 39.1829 66.6964 38.6368 65.95 37.774V42.0001H66V45H73V42.0001H74.95V35.6127C74.2887 37.078 73.0802 38.5553 71.2583 39.1829H67.515Z" fill="#00D9CD"/>
<defs>
<linearGradient id="paint0_linear" x1="54.0326" y1="81.7739" x2="54.0326" y2="146.183" gradientUnits="userSpaceOnUse">
<stop stop-color="#585491"/>
<stop offset="0.307292" stop-color="#492D77"/>
<stop offset="0.578125" stop-color="#6669C4"/>
<stop offset="0.85" stop-color="#8E91F4"/>
<stop offset="1" stop-color="#8E91F4"/>
</linearGradient>
<linearGradient id="paint1_linear" x1="42.4513" y1="137.552" x2="42.4513" y2="97.0227" gradientUnits="userSpaceOnUse">
<stop stop-color="white" stop-opacity="0.01"/>
<stop offset="1" stop-color="white" stop-opacity="0.8"/>
</linearGradient>
</defs>
</svg>
