<svg width="102" height="180" viewBox="0 0 102 180" fill="none" xmlns="http://www.w3.org/2000/svg">
<path fill-rule="evenodd" clip-rule="evenodd" d="M21.6407 120.711C21.6407 119.933 21.0105 119.302 20.2331 119.302C19.4557 119.302 18.8256 119.933 18.8256 120.711C18.822 121.22 19.1077 121.688 19.5629 121.918L20.2331 164.564H20.1661L20.8364 121.918C21.3176 121.708 21.632 121.236 21.6407 120.711Z" fill="url(#paint0_linear)"/>
<path fill-rule="evenodd" clip-rule="evenodd" d="M56.4634 68.9696C55.3016 70.0157 54.0235 70.4225 53.5007 69.8994L47.0524 62.7511C46.5876 62.2281 47.1105 60.9495 48.2723 59.9034C49.4342 58.8573 50.7122 58.4505 51.2351 58.9736L57.6834 66.1219C58.154 66.6449 57.573 67.9235 56.4634 68.9696Z" fill="#373C41"/>
<path fill-rule="evenodd" clip-rule="evenodd" d="M52.1646 73.9094C51.9903 72.9214 52.3388 70.4224 51.0608 69.3763C48.7952 67.4585 47.9238 64.9013 49.2018 63.3903C50.0151 62.4023 52.2227 60.0196 53.1521 60.3102C54.0816 60.6007 54.0816 61.5306 54.6045 61.9374C55.1273 62.3442 55.4178 63.4484 55.9406 63.8552C56.4635 64.2621 56.6377 65.3663 55.4759 66.3543C54.314 67.3422 54.5464 67.4003 54.4883 67.9234C54.5922 69.0621 54.8663 70.1787 55.3016 71.236C55.639 71.8436 55.8374 72.5184 55.8825 73.212C55.8302 74.3162 52.6293 76.3445 52.1646 73.9094Z" fill="#FFBDB4"/>
<path fill-rule="evenodd" clip-rule="evenodd" d="M70.8123 175.323C68.036 177.211 64.8857 178.48 61.5755 179.042C61.4955 179.184 61.4554 179.344 61.4593 179.507C61.4593 180.03 64.1316 180.263 66.2229 179.565C68.3143 178.868 70.2314 178.228 70.2314 178.228C70.73 178.074 71.1257 177.692 71.2976 177.199C71.4695 176.706 71.3972 176.161 71.1028 175.729L70.8123 175.323Z" fill="#585491"/>
<path fill-rule="evenodd" clip-rule="evenodd" d="M68.3146 167.71L69.7088 173.114C69.782 173.319 69.8795 173.514 69.9993 173.696L70.9868 175.149C71.2813 175.58 71.3536 176.125 71.1817 176.618C71.0098 177.111 70.6141 177.493 70.1154 177.648C70.1154 177.648 68.1403 178.345 66.107 178.984C64.0738 179.624 61.3434 179.449 61.3434 178.926C61.3434 177.706 62.5633 178.345 64.4223 177.066C65.0673 176.652 65.6898 176.204 66.2871 175.724C67.9137 174.445 66.5195 171.191 65.4738 169.331C65.1252 168.692 65.4738 167.006 66.229 166.89L66.6938 166.774C67.0328 166.68 67.3953 166.726 67.7 166.902C68.0047 167.078 68.2261 167.369 68.3146 167.71Z" fill="#8E91F4"/>
<path fill-rule="evenodd" clip-rule="evenodd" d="M100.847 174.451C98.418 176.509 95.3711 177.696 92.1906 177.822C90.7964 178.286 89.9831 177.822 89.9831 178.926C89.9831 179.565 93.062 180.262 95.4438 179.449C97.8257 178.635 100.149 177.88 100.149 177.88C100.724 177.694 101.18 177.252 101.385 176.683C101.589 176.115 101.519 175.484 101.195 174.974L100.847 174.451Z" fill="#585491"/>
<path fill-rule="evenodd" clip-rule="evenodd" d="M97.9997 166.664L99.6263 172.01C99.6874 172.238 99.7856 172.454 99.9167 172.65L101.079 174.335C101.413 174.842 101.488 175.478 101.282 176.049C101.077 176.621 100.614 177.063 100.033 177.241C100.033 177.241 97.7092 178.054 95.3274 178.81C92.9456 179.565 89.8666 178.926 89.8666 178.287C89.8666 176.834 91.2028 177.996 93.4103 176.485C94.1655 175.962 94.9207 175.439 95.6179 174.916C97.5349 173.405 95.8502 169.627 94.6884 167.477C94.4906 167.113 94.4751 166.678 94.6464 166.301C94.8176 165.924 95.1558 165.649 95.5598 165.559L96.1407 165.443C96.973 165.35 97.7536 165.863 97.9997 166.664Z" fill="#8E91F4"/>
<path fill-rule="evenodd" clip-rule="evenodd" d="M64.2478 166.198C65.1192 168.581 65.7002 170.092 65.7002 170.092C66.8039 170.557 67.8496 169.976 68.9534 169.685C68.9534 169.685 68.721 167.942 68.4305 165.326C67.055 165.7 65.6582 165.991 64.2478 166.198H64.2478Z" fill="#FFBDB4"/>
<path fill-rule="evenodd" clip-rule="evenodd" d="M94.1077 167.303C95.2696 169.279 95.9086 170.441 95.9086 170.441C96.9734 170.467 98.0094 170.094 98.8133 169.395C98.8133 169.395 98.5228 168 97.9419 165.734C96.7045 166.351 95.4229 166.875 94.1077 167.303Z" fill="#FFBDB4"/>
<path fill-rule="evenodd" clip-rule="evenodd" d="M98.6389 164.63C98.2323 163.351 96.838 160.91 95.5019 155.97C93.2363 147.66 90.3316 137.838 91.1449 132.724C92.6553 123.134 94.4562 110.407 93.9334 104.247C93.5267 99.3649 73.5427 101.399 66.3972 102.271C64.8806 102.457 63.6223 103.532 63.2021 105.002C61.5755 111.046 57.2766 127.028 55.9405 134.99C54.8367 141.499 62.0403 162.595 63.4345 166.489C63.5869 166.957 64.0506 167.25 64.5383 167.187C65.804 166.994 67.0488 166.683 68.2562 166.257C68.867 166.049 69.2527 165.446 69.1857 164.804C68.5467 160.329 65.8163 144.173 66.8039 139.058C67.6172 134.816 72.2066 127.609 75.2855 122.379C75.0531 128.83 76.0407 135.804 79.8748 142.487C86.5556 154.169 90.8544 164.513 92.423 167.303C92.7029 167.822 93.3144 168.067 93.8753 167.884C95.3342 167.373 96.752 166.752 98.1161 166.024C98.5883 165.733 98.8035 165.159 98.6389 164.63Z" fill="url(#paint1_linear)"/>
<path fill-rule="evenodd" clip-rule="evenodd" d="M93.9913 117.381C94.2236 116.335 94.3398 115.289 94.5141 114.882C94.6369 114.642 94.7726 114.409 94.9207 114.184C95.2352 113.817 95.4547 113.378 95.5598 112.906L95.6179 111.162C95.6179 110.291 96.0245 109.651 96.8959 109.651C97.8254 109.651 98.232 110.465 98.1159 111.337V112.557C98.1046 113.294 98.2429 114.026 98.5225 114.707C98.9873 116.16 98.5806 117.846 98.174 119.182C97.8835 119.996 95.9083 119.88 94.3398 119.705C93.2941 119.589 92.0161 119.299 92.2485 118.834C92.597 118.078 96.4312 119.066 95.7921 116.8C95.734 116.683 95.676 116.393 95.5017 116.393C95.095 116.393 94.9788 117.323 94.8046 117.788C94.5141 118.427 94.0493 118.717 93.817 118.601C93.4684 118.543 93.817 118.136 93.9913 117.381Z" fill="#FAB9AF"/>
<path fill-rule="evenodd" clip-rule="evenodd" d="M92.8878 66.6453C92.4265 67.3935 92.4265 68.338 92.8878 69.0862C96.722 75.3046 101.195 83.8477 101.195 89.7175C101.137 96.7496 98.2324 112.034 98.2324 112.034C97.7706 112.103 97.3049 112.142 96.8381 112.15C96.3689 112.137 95.902 112.078 95.4439 111.976C95.4439 111.976 95.502 99.4229 94.9211 92.6233C94.8316 91.3886 94.6372 90.1637 94.3401 88.962C93.9335 87.7997 92.365 85.0682 90.4479 81.8718L94.2239 102.677C94.3058 103.063 94.2287 103.466 94.01 103.794C93.7913 104.122 93.4496 104.348 93.0621 104.421C92.5472 104.55 91.9373 104.647 91.2322 104.759C90.9827 104.799 90.7213 104.84 90.4479 104.886C85.2986 105.71 80.0937 106.137 74.8789 106.164C72.3186 106.203 69.7631 105.93 67.2687 105.351C67.0364 105.293 66.804 105.235 66.6297 105.176H66.5716C65.6876 104.963 64.8303 104.651 64.0155 104.247C63.3816 103.973 63.0202 103.299 63.1441 102.619L64.306 95.471C64.3026 95.314 64.3222 95.1574 64.3641 95.0061L65.8745 85.5912C65.7763 86.1315 65.6911 86.6484 65.6112 87.1333C65.3128 88.943 65.0882 90.3052 64.5384 90.7636C58.3224 95.9941 52.2226 77.5712 51.4674 73.3868C51.424 73.0566 51.618 72.7413 51.9322 72.6313C52.9683 72.3514 53.9502 71.8996 54.8368 71.2946C54.9969 71.1662 55.2096 71.1242 55.4064 71.1821C55.6032 71.24 55.7593 71.3905 55.8244 71.5852L60.4138 80.477C60.4138 80.477 63.0279 69.0862 64.6546 65.7154C65.526 63.9138 66.9783 62.984 68.2563 62.9259L69.7087 62.6934C70.4585 62.5202 71.1815 62.2466 71.8581 61.8798V61.7635C71.8581 61.7635 71.9743 53.2785 80.3397 55.7776C86.0562 57.4853 88.8701 56.4519 90.7648 55.7562C91.6428 55.4337 92.3234 55.1838 93.004 55.3126C94.8049 55.6613 94.9792 63.4489 92.8878 66.6453ZM66.3394 82.9185C66.4314 81.822 66.6062 80.7341 66.8622 79.664L66.3394 82.9185Z" fill="url(#paint2_linear)"/>
<path fill-rule="evenodd" clip-rule="evenodd" d="M75.2855 59.2645C75.2855 59.2645 73.1361 64.0301 76.3312 64.5531C79.5263 65.0762 86.4394 64.3207 88.7631 61.8217C94.6886 56.1263 79.4101 55.8357 75.2855 59.2645Z" fill="#E59B1A"/>
<path fill-rule="evenodd" clip-rule="evenodd" d="M84.0577 44.212C83.9239 45.7017 84.3369 47.1892 85.2196 48.3964C86.6719 50.1399 84.5805 51.7672 84.0577 52.9876C83.5349 54.208 84.1739 55.9515 82.7796 56.7652C81.3854 57.5788 77.4932 57.8113 76.8541 56.3584C76.2151 54.9054 79.6484 43.3984 84.0577 44.212Z" fill="#A55A3C"/>
<path fill-rule="evenodd" clip-rule="evenodd" d="M68.2563 47.3507C68.0239 55.1965 75.3437 56.7075 79.5845 56.7075C83.8253 56.7075 83.9996 47.2926 83.9996 43.9219C83.9996 40.5511 80.6302 39.97 76.3894 39.97C73.02 39.97 69.8829 42.5852 68.5468 45.0842C68.3326 45.82 68.2346 46.5847 68.2563 47.3507Z" fill="#A55A3C"/>
<path fill-rule="evenodd" clip-rule="evenodd" d="M79.817 54.8417C79.4679 55.3962 79.305 56.0478 79.3522 56.7014C79.3522 56.9339 79.4103 57.1663 79.4103 57.3407C79.4103 57.3988 79.4684 57.4569 79.4684 57.515L80.2236 60.1884C80.7464 62.6293 79.5846 63.9659 77.8999 64.489C77.328 64.6344 76.7289 64.6344 76.1571 64.489C75.8513 64.3889 75.5588 64.2523 75.2857 64.0822C74.4143 63.501 74.3562 62.2806 74.4724 61.2345L74.6467 60.479C74.7988 59.993 74.741 59.4655 74.4872 59.024C74.2335 58.5826 73.8069 58.2673 73.3105 58.1543C72.9164 58.071 72.5418 57.9132 72.2068 57.6894C70.9287 56.8757 70.4059 55.3066 69.9411 53.0401C69.7668 52.1683 69.6507 51.2385 69.4764 50.2505C69.2946 49.2629 69.3544 48.246 69.6507 47.2865C70.5801 44.5551 73.5429 43.0441 76.2152 43.0441C78.1775 42.9067 79.9785 44.1318 80.5722 46.008C80.826 46.7826 81.0012 47.5809 81.095 48.3908C81.1432 48.6787 81.1627 48.9707 81.1531 49.2625C81.1531 49.6112 81.2112 49.9599 81.2112 50.3086C81.2043 50.9965 81.1066 51.6804 80.9207 52.3427C80.6208 53.2041 80.2517 54.0398 79.817 54.8417Z" fill="#FFBDB4"/>
<path fill-rule="evenodd" clip-rule="evenodd" d="M67.9658 40.9577L69.9991 41.597C70.7563 41.8294 71.5657 41.8294 72.3228 41.597L76.3893 40.4347C78.8292 40.4347 82.9539 41.8295 82.431 45.3746L81.9721 47.8678C81.7743 48.8661 80.9504 49.6197 79.9388 49.7275C79.8231 50.1072 79.4471 50.3451 79.0545 50.2869C78.662 50.2288 78.371 49.892 78.3703 49.495C78.3547 48.3544 77.5638 47.3713 76.4532 47.1123C75.0171 46.7838 73.5232 46.8037 72.0963 47.1704C69.2497 47.9259 66.2869 46.1824 65.9965 43.2766V42.6954C65.9592 42.1813 66.1642 41.6793 66.5507 41.3383C66.9371 40.9973 67.4606 40.8566 67.9658 40.9577Z" fill="#A55A3C"/>
<path fill-rule="evenodd" clip-rule="evenodd" d="M79.2356 50.3146C79.2356 51.4188 79.6423 52.2905 80.688 52.2905C81.7336 52.2905 82.4307 50.7795 82.4307 49.7334C82.4307 48.6873 81.7336 48.3967 80.688 48.3967C79.6423 48.3967 79.2356 49.2685 79.2356 50.3146Z" fill="#FFBDB4"/>
<path fill-rule="evenodd" clip-rule="evenodd" d="M68.2561 71.7011L65.1772 90.0659L69.418 70.655L68.2561 71.7011Z" fill="#F4B22F"/>
<path fill-rule="evenodd" clip-rule="evenodd" d="M71.8582 61.8795C71.8582 61.8795 72.9039 67.633 80.2236 68.7954C75.2857 68.5048 72.0906 66.2382 71.103 62.2282L71.8582 61.8795Z" fill="#F4B22F"/>
<path fill-rule="evenodd" clip-rule="evenodd" d="M93.9335 63.9718C93.9335 63.9718 89.5765 68.2724 83.593 68.563C85.51 68.9698 91.087 68.3305 92.6555 67.1101C93.5269 66.064 93.9335 63.9718 93.9335 63.9718Z" fill="#F4B22F"/>
<path fill-rule="evenodd" clip-rule="evenodd" d="M94.921 92.6821C94.8419 91.4462 94.6474 90.2204 94.34 89.0207C93.9334 87.8584 92.3649 85.1269 90.4478 81.9305L94.2238 102.736C94.3057 103.122 94.2286 103.525 94.0099 103.853C93.7912 104.181 93.4495 104.407 93.062 104.48C92.423 104.596 91.5516 104.77 90.4478 104.945C92.4332 103.934 93.5023 101.724 93.062 99.5398C92.423 95.5879 89.6345 80.0127 89.6345 80.0127L94.34 86.6961C94.34 86.5798 95.5019 90.8223 94.921 92.6821Z" fill="#F4B22F"/>
<path fill-rule="evenodd" clip-rule="evenodd" d="M66.6295 105.176C65.7455 104.963 64.8881 104.651 64.0734 104.247C63.4499 103.962 63.0932 103.296 63.202 102.619L64.3639 95.4711C64.0734 97.3308 63.3821 103.898 66.6295 105.176Z" fill="#F4B22F"/>
<path opacity="0.7" fill-rule="evenodd" clip-rule="evenodd" d="M76.1628 64.4368C75.857 64.3367 75.5645 64.2001 75.2914 64.0299C74.42 63.4488 74.3619 62.2283 74.4781 61.1822L74.6524 60.4267C74.8045 59.9407 74.7467 59.4133 74.4929 58.9718C74.2392 58.5304 73.8126 58.215 73.3162 58.1021C72.9221 58.0188 72.5475 57.861 72.2125 57.6371C73.5045 57.9922 74.8796 57.8896 76.1047 57.3466C76.0408 58.9099 75.0532 62.2864 76.1628 64.4368Z" fill="#F49E95"/>
<path opacity="0.7" fill-rule="evenodd" clip-rule="evenodd" d="M75.7998 91.6579V91.0768C75.8022 90.9954 75.7821 90.915 75.7417 90.8443C75.7494 90.7804 75.7281 90.7164 75.6836 90.67C75.686 90.5886 75.6659 90.5081 75.6255 90.4375V90.1992C75.6255 90.1411 75.5674 90.0249 75.5674 89.9667C75.5674 89.9086 75.5093 89.8505 75.5093 89.7924V89.7343C75.5093 89.6762 75.4512 89.618 75.4512 89.5018C75.4512 89.3856 75.3931 89.3856 75.3931 89.2694V89.1531C75.387 89.1091 75.3666 89.0682 75.335 89.0369C75.335 88.9788 75.277 88.9207 75.277 88.8625C75.2708 88.8185 75.2504 88.7777 75.2189 88.7463V88.6882C75.1608 88.6301 75.1608 88.572 75.1027 88.5138C75.0446 88.4557 75.0446 88.3976 74.9865 88.2814V88.1651C74.9284 88.107 74.9284 88.0489 74.8703 87.9908C74.8122 87.9327 74.8122 87.8746 74.7541 87.7583C74.696 87.6421 74.696 87.7002 74.696 87.6421V87.584C74.6379 87.5259 74.6379 87.4677 74.5798 87.4096C74.5217 87.3515 74.4637 87.2353 74.4056 87.119V87.0609C74.3475 86.9447 74.2313 86.8285 74.1732 86.7122C74.1151 86.6541 74.057 86.5379 73.9989 86.4798L73.8246 86.3054L73.6503 86.1311L73.4761 85.9567L73.3599 85.8405L73.1856 85.6661L73.1275 85.608L73.0694 85.5499L73.0113 85.4918L72.837 85.3174L72.7789 85.2593L72.7209 85.2012L72.6628 85.1431C72.6047 85.085 72.5466 85.0269 72.4885 85.0269C72.4304 85.0269 72.3723 84.9687 72.3723 84.9106C72.3142 84.8525 72.2561 84.8525 72.198 84.7944C72.1399 84.7363 72.0818 84.7363 72.0237 84.6782H71.9656L7.19763 47.2571C7.15359 47.2509 7.11278 47.2305 7.08145 47.1989C7.02335 47.1408 6.96526 47.1408 6.90717 47.0827C6.84907 47.0246 6.84907 47.0246 6.79098 47.0246H6.73289C6.67479 47.0246 6.6167 46.9665 6.55861 46.9665C6.50051 46.9665 6.44242 46.9084 6.38433 46.9084C6.32623 46.9084 6.32623 46.9084 6.26814 46.8502C6.21005 46.7921 6.15196 46.7921 6.09386 46.7921H5.91958C5.85572 46.7998 5.79178 46.7785 5.7453 46.734H5.16437C5.08248 46.7253 5.00016 46.7459 4.932 46.7921H4.87391C4.81581 46.7921 4.69963 46.8502 4.64153 46.8502C4.53738 46.8951 4.43969 46.9538 4.35107 47.0246L2.31781 48.1869C2.42197 48.142 2.51965 48.0834 2.60828 48.0126C2.67644 47.9663 2.75876 47.9458 2.84065 47.9544H2.89874C3.01493 47.9544 3.07302 47.8963 3.18921 47.8963H3.59586C3.71504 47.8872 3.83465 47.9071 3.94442 47.9544H4.00251C4.12595 47.9665 4.24509 48.0062 4.35107 48.0707C4.48187 48.1393 4.61784 48.1976 4.75772 48.245C4.90491 48.3001 5.04223 48.3786 5.16437 48.4775L69.9382 85.9044C70.087 85.9812 70.224 86.0791 70.3448 86.195C70.461 86.3112 70.5772 86.3693 70.6934 86.4856L70.7515 86.5437C70.8677 86.6599 70.9839 86.718 71.1001 86.8343L71.1581 86.8924L71.5067 87.2411C71.637 87.364 71.7538 87.5003 71.8553 87.6479C71.9715 87.7641 72.0876 87.9385 72.2038 88.0547C72.32 88.171 72.3781 88.3453 72.4943 88.4615C72.6105 88.5778 72.6105 88.6359 72.6686 88.7521C72.7297 88.8162 72.7702 88.8972 72.7848 88.9846C72.7848 89.0427 72.8428 89.0427 72.8428 89.1008C72.9107 89.2417 72.9883 89.3776 73.0752 89.5076V89.5657C73.1333 89.7401 73.2495 89.8563 73.3076 90.0307C73.3657 90.205 73.4238 90.3213 73.4819 90.4956V90.5537C73.5303 90.7122 73.5885 90.8674 73.6562 91.0187C73.722 91.1656 73.7613 91.323 73.7723 91.4836V91.5417C73.8304 91.716 73.8304 91.8904 73.8885 92.0066C73.8885 92.181 73.9466 92.3553 73.9466 92.4716V92.9946L73.8885 120.832V121.355C73.8885 121.472 73.8304 121.588 73.8304 121.762V121.82C73.8184 121.944 73.7787 122.063 73.7142 122.169V122.227C73.6562 122.343 73.6562 122.401 73.5981 122.518V122.576C73.5532 122.68 73.4946 122.778 73.4238 122.866C73.3447 122.996 73.2468 123.114 73.1333 123.215L73.0752 123.273C72.959 123.389 72.8429 123.448 72.7267 123.564L74.7599 122.401C74.8898 122.322 75.0073 122.224 75.1085 122.111L75.1666 122.053C75.2828 121.937 75.3409 121.82 75.457 121.704C75.5151 121.588 75.5732 121.53 75.6313 121.413V121.355C75.6313 121.297 75.6894 121.239 75.6894 121.181C75.6894 121.123 75.6894 121.123 75.7475 121.065V120.949C75.7475 120.89 75.8056 120.832 75.8056 120.716V120.542C75.7979 120.478 75.8192 120.414 75.8637 120.367V119.786L75.9218 91.9485C75.7998 91.7742 75.7998 91.7161 75.7998 91.6579Z" fill="white"/>
<g opacity="0.4">
<path fill-rule="evenodd" clip-rule="evenodd" d="M69.6416 85.9036C71.9072 87.2402 73.7662 90.3785 73.7662 92.9938L73.7081 120.831C73.7081 123.447 71.8492 124.493 69.5835 123.214L4.8097 85.7873C2.54407 84.4507 0.685089 81.3124 0.685089 78.6971L0.743182 50.8594C0.743182 48.2442 2.60216 47.1981 4.86779 48.4766L69.6416 85.9036Z" fill="white"/>
</g>
<path opacity="0.7" fill-rule="evenodd" clip-rule="evenodd" d="M75.0446 44.1183V43.5372C75.047 43.4558 75.0269 43.3754 74.9865 43.3047C74.9941 43.2408 74.9728 43.1769 74.9284 43.1304C74.9308 43.049 74.9107 42.9686 74.8703 42.8979V42.6654C74.8703 42.6073 74.8122 42.4911 74.8122 42.433C74.8122 42.3749 74.7541 42.3167 74.7541 42.2586C74.7541 42.2005 74.696 42.1424 74.696 42.0262C74.696 41.9099 74.6379 41.9099 74.6379 41.7937V41.6775C74.6379 41.6193 74.5798 41.6193 74.5798 41.5612C74.5798 41.5031 74.5217 41.445 74.5217 41.3869C74.5217 41.3288 74.4636 41.2706 74.4636 41.2125C74.4055 41.1544 74.4055 41.0963 74.3474 41.0382C74.2893 40.9801 74.2893 40.8638 74.2312 40.8057V40.6895C74.1732 40.6314 74.1732 40.5732 74.1151 40.5151C74.057 40.457 74.057 40.3989 73.9989 40.2827C73.9408 40.1664 73.9408 40.2245 73.9408 40.1664V40.1083C73.8827 40.0502 73.8827 39.9921 73.8246 39.934C73.7665 39.8759 73.7084 39.7596 73.6503 39.6434V39.5853C73.5922 39.469 73.476 39.3528 73.4179 39.2366C73.3599 39.1203 73.3018 39.0622 73.2437 39.0041L73.0694 38.8298L72.8951 38.6554L72.7208 38.4811L72.6627 38.4229L72.5465 38.3067L72.3723 38.1324L72.3142 38.0742L72.2561 38.0161L72.198 37.958L72.0237 37.7837L71.9656 37.7255L71.9075 37.6674L71.8494 37.6093C71.7913 37.5512 71.7332 37.4931 71.6751 37.4931C71.6171 37.4931 71.559 37.435 71.559 37.3768C71.5009 37.3187 71.4428 37.3187 71.3847 37.2606C71.3266 37.2025 71.2685 37.2025 71.2104 37.1444H71.1523L47.0437 23.4289C46.9996 23.4228 46.9588 23.4024 46.9275 23.3708C46.8694 23.3127 46.8113 23.3127 46.7532 23.2546C46.6951 23.1965 46.6951 23.1965 46.637 23.1965H46.5789C46.5208 23.1965 46.4627 23.1383 46.4046 23.1383C46.3466 23.1383 46.2885 23.0802 46.2304 23.0802C46.1723 23.0802 46.1723 23.0802 46.1142 23.0221C46.0561 22.964 45.998 22.964 45.9399 22.964H45.7656C45.7018 22.9717 45.6378 22.9504 45.5913 22.9059H45.0104C44.9285 22.8972 44.8462 22.9178 44.778 22.964H44.7199C44.6619 22.964 44.5457 23.0221 44.4876 23.0221C44.3834 23.067 44.2857 23.1257 44.1971 23.1965L42.1638 24.3588C42.268 24.3139 42.3657 24.2552 42.4543 24.1844C42.5225 24.1382 42.6048 24.1176 42.6867 24.1263H42.7448C42.861 24.1263 42.9191 24.0682 43.0352 24.0682H43.4419C43.5611 24.059 43.6807 24.079 43.7905 24.1263H43.8485C43.972 24.1384 44.0911 24.1781 44.1971 24.2426C44.3279 24.3112 44.4639 24.3695 44.6038 24.4169C44.7509 24.472 44.8883 24.5505 45.0104 24.6494L68.8867 38.4752C69.0355 38.5521 69.1724 38.6499 69.2933 38.7658C69.4095 38.8821 69.5257 38.9402 69.6419 39.0564L69.7 39.1145C69.8162 39.2308 69.9324 39.2889 70.0485 39.4051L70.1066 39.4632L70.4552 39.8119L70.5133 39.87C70.6436 39.9929 70.7604 40.1293 70.8618 40.2769C70.978 40.3931 71.0942 40.5674 71.2104 40.6837C71.3266 40.7999 71.3847 40.9742 71.5009 41.0905C71.6171 41.2067 71.6171 41.2648 71.6751 41.3811C71.7363 41.4451 71.7768 41.5261 71.7913 41.6135C71.7913 41.6716 71.8494 41.6716 71.8494 41.7298C71.9173 41.8706 71.9949 42.0066 72.0818 42.1366V42.1947C72.1399 42.369 72.2561 42.4853 72.3142 42.6596C72.3723 42.834 72.4304 42.9502 72.4885 43.1246V43.1827C72.5369 43.3411 72.5951 43.4964 72.6627 43.6476V43.7057C72.7286 43.8526 72.7679 44.01 72.7789 44.1706V44.2288C72.837 44.4031 72.837 44.5775 72.8951 44.6937C72.8951 44.868 72.9532 45.0424 72.9532 45.1586V45.6817L72.8951 73.1707V73.6937C72.8951 73.81 72.837 73.9262 72.837 74.1006V74.1587C72.825 74.2822 72.7853 74.4014 72.7208 74.5074V74.5655C72.6627 74.6817 72.6627 74.7398 72.6046 74.8561V74.9142C72.5598 75.0184 72.5011 75.1161 72.4304 75.2048C72.3513 75.3347 72.2534 75.4522 72.1399 75.5535L72.0818 75.6116C71.9656 75.7278 71.8494 75.7859 71.7332 75.9022L73.7665 74.7398C73.8964 74.6607 74.0139 74.5628 74.1151 74.4493L74.1732 74.3911C74.2893 74.2749 74.3474 74.1587 74.4636 74.0424C74.5217 73.9262 74.5798 73.8681 74.6379 73.7519V73.6937C74.6379 73.6356 74.696 73.5775 74.696 73.5194C74.696 73.4613 74.696 73.4613 74.7541 73.4032V73.2869C74.7541 73.2288 74.8122 73.1707 74.8122 73.0545V72.8801C74.8045 72.8162 74.8258 72.7523 74.8703 72.7058V72.1246L74.9284 44.6356C75.0011 44.4726 75.0406 44.2968 75.0446 44.1183Z" fill="white"/>
<g opacity="0.4">
<path fill-rule="evenodd" clip-rule="evenodd" d="M68.8865 38.4231C71.1521 39.7598 73.0111 42.898 73.0111 45.5133L72.953 73.0023C72.953 75.6175 71.094 76.6636 68.8284 75.3851L44.958 61.5534C42.6923 60.2167 40.8333 57.0784 40.8333 54.4632L40.8914 26.9742C40.8914 24.3589 42.7504 23.3128 45.016 24.5914L68.8865 38.4231Z" fill="white"/>
</g>
<path opacity="0.7" fill-rule="evenodd" clip-rule="evenodd" d="M36.4708 21.3365V20.7553C36.4732 20.6739 36.4531 20.5935 36.4127 20.5228C36.4204 20.4589 36.3991 20.395 36.3546 20.3485C36.357 20.2671 36.3369 20.1867 36.2965 20.116V19.8777C36.2965 19.8196 36.2384 19.7034 36.2384 19.6453C36.2384 19.5872 36.1803 19.529 36.1803 19.4709C36.1803 19.4128 36.1222 19.3547 36.1222 19.2385C36.1222 19.1222 36.0641 19.1222 36.0641 19.006V18.8898C36.0641 18.8316 36.006 18.8316 36.006 18.7735C36.006 18.7154 35.9479 18.6573 35.9479 18.5992C35.9479 18.5411 35.8898 18.4829 35.8898 18.4248C35.8318 18.3667 35.8317 18.3086 35.7737 18.2505C35.7156 18.1924 35.7156 18.0761 35.6575 18.018V17.9018C35.5994 17.8437 35.5994 17.7855 35.5413 17.7274C35.4832 17.6693 35.4832 17.6112 35.4251 17.495C35.367 17.3787 35.367 17.4368 35.367 17.3787V17.3206C35.3089 17.2625 35.3089 17.2044 35.2508 17.1463C35.1927 17.0882 35.1346 16.9719 35.0765 16.8557V16.7976C35.0184 16.6813 34.9023 16.5651 34.8442 16.4489C34.7861 16.3326 34.728 16.2745 34.6699 16.2164L34.4956 16.0421L34.3213 15.8677L34.1471 15.6934L34.089 15.6352L33.9728 15.519L33.7985 15.3447L33.7404 15.2865L33.6823 15.2284L33.6242 15.1703L33.4499 14.996L33.3918 14.9378L33.3337 14.8797L33.2757 14.8216C33.2176 14.7635 33.1595 14.7054 33.1014 14.7054C33.0433 14.7054 32.9852 14.6473 32.9852 14.5891C32.9271 14.531 32.869 14.531 32.8109 14.4729C32.7528 14.4148 32.6947 14.4148 32.6366 14.3567H32.5785L8.70227 0.524996C8.65823 0.518854 8.61742 0.49844 8.58608 0.46688C8.52799 0.408763 8.4699 0.408763 8.4118 0.350647C8.35371 0.292531 8.35371 0.292531 8.29562 0.292531H8.23752C8.17943 0.292531 8.12134 0.234414 8.06325 0.234414C8.00515 0.234414 7.94706 0.176298 7.88897 0.176298C7.83087 0.176298 7.83087 0.176298 7.77278 0.118182C7.71469 0.0600653 7.65659 0.0600653 7.5985 0.0600653H7.42422C7.36036 0.067755 7.29642 0.0464314 7.24994 0.00194898H6.66901C6.58712 -0.00674745 6.5048 0.0138411 6.43664 0.0600653H6.37855C6.32045 0.0600653 6.20427 0.118182 6.14617 0.118182C6.04202 0.163086 5.94433 0.221722 5.85571 0.292531L3.82245 1.45486C3.92661 1.40995 4.02429 1.35132 4.11291 1.28051C4.18108 1.23428 4.2634 1.2137 4.34529 1.22239H4.40338C4.51957 1.22239 4.57766 1.16428 4.69385 1.16428H5.1005C5.21967 1.15512 5.33929 1.17506 5.44906 1.22239H5.50715C5.63059 1.23443 5.74973 1.27416 5.85571 1.33862C5.98651 1.40725 6.12248 1.46554 6.26236 1.51297C6.40955 1.56804 6.54687 1.64654 6.66901 1.74544L30.5453 15.5771C30.6941 15.6539 30.831 15.7518 30.9519 15.8677C31.0681 15.9839 31.1843 16.0421 31.3005 16.1583L31.3586 16.2164C31.4748 16.3326 31.591 16.3908 31.7071 16.507L31.7652 16.5651L32.1138 16.9138L32.1719 16.9719C32.3021 17.0948 32.419 17.2312 32.5204 17.3787C32.6366 17.495 32.7528 17.6693 32.869 17.7855C32.9852 17.9018 33.0433 18.0761 33.1595 18.1924C33.2757 18.3086 33.2757 18.3667 33.3337 18.4829C33.3949 18.547 33.4354 18.628 33.4499 18.7154C33.4499 18.7735 33.508 18.7735 33.508 18.8316C33.5759 18.9725 33.6535 19.1085 33.7404 19.2385V19.2966C33.7985 19.4709 33.9147 19.5872 33.9728 19.7615C34.0309 19.9359 34.089 20.0521 34.1471 20.2264V20.2846C34.1955 20.443 34.2537 20.5983 34.3213 20.7495V20.8076C34.3871 20.9545 34.4265 21.1119 34.4375 21.2725V21.3306C34.4956 21.505 34.4956 21.6793 34.5537 21.7956C34.5537 21.9699 34.6118 22.1443 34.6118 22.2605V22.7836L34.3213 50.1563V50.6794C34.3213 50.7956 34.2632 50.9119 34.2632 51.0862V51.1443C34.2512 51.2678 34.2115 51.387 34.1471 51.493V51.5511C34.089 51.6674 34.089 51.7255 34.0309 51.8417V51.8998C33.986 52.004 33.9274 52.1018 33.8566 52.1904C33.7775 52.3204 33.6796 52.4379 33.5661 52.5391L33.508 52.5972C33.3918 52.7135 33.2757 52.7716 33.1595 52.8878L35.1927 51.7255C35.3226 51.6464 35.4401 51.5485 35.5413 51.4349L35.5994 51.3768C35.7156 51.2606 35.7737 51.1443 35.8898 51.0281C35.9479 50.9119 36.006 50.8537 36.0641 50.7375V50.6794C36.0641 50.6213 36.1222 50.5632 36.1222 50.505C36.1222 50.4469 36.1222 50.4469 36.1803 50.3888V50.2726C36.1803 50.2145 36.2384 50.1563 36.2384 50.0401V49.8658C36.2307 49.8019 36.252 49.7379 36.2965 49.6914V49.1103L36.3546 21.6212C36.4708 21.4527 36.4708 21.3946 36.4708 21.3365Z" fill="white"/>
<g opacity="0.4">
<path fill-rule="evenodd" clip-rule="evenodd" d="M30.3125 15.5832C32.5781 16.9199 34.4371 20.0582 34.4371 22.6734L34.3209 50.1625C34.3209 52.7777 32.4619 53.8238 30.1963 52.5452L6.32001 38.7135C4.05438 37.3769 2.1954 34.2386 2.1954 31.6234L2.2535 4.13432C2.2535 1.51909 4.11248 0.472992 6.37811 1.75155L30.3125 15.5832Z" fill="white"/>
</g>
<path fill-rule="evenodd" clip-rule="evenodd" d="M43.8642 91.7768C43.7695 91.7786 43.6761 91.7541 43.5944 91.7061L10.266 71.9094C10.0965 71.8303 9.98514 71.6633 9.9774 71.4763C9.96966 71.2893 10.0668 71.1136 10.2292 71.0208C10.3917 70.9279 10.5923 70.9335 10.7494 71.0351L44.0778 90.8319C44.307 90.9748 44.3913 91.2678 44.2731 91.5108C44.222 91.6889 44.0477 91.8024 43.8642 91.7768Z" fill="white"/>
<path fill-rule="evenodd" clip-rule="evenodd" d="M43.1461 101.447C43.0513 101.449 42.958 101.424 42.8763 101.376L9.54787 81.5793C9.327 81.4364 9.25441 81.1468 9.38172 80.9165C9.50904 80.6863 9.79281 80.5939 10.0312 80.7051L43.3596 100.502C43.5888 100.645 43.6731 100.938 43.5549 101.181C43.4895 101.348 43.3252 101.455 43.1461 101.447Z" fill="white"/>
<path fill-rule="evenodd" clip-rule="evenodd" d="M60.791 90.1677C60.6259 90.1532 60.4653 90.1061 60.3185 90.029L9.79713 61.0401C9.49625 60.8748 9.30937 60.5585 9.30961 60.2151C9.30986 59.8717 9.49719 59.5557 9.79831 59.3908C10.0994 59.2258 10.4665 59.2382 10.7558 59.423L61.2772 88.4118C61.4988 88.5323 61.6601 88.7397 61.7226 88.9841C61.785 89.2285 61.7428 89.4879 61.6061 89.6999C61.4599 90.0119 61.134 90.1989 60.791 90.1677Z" fill="#00D9CD"/>
<path fill-rule="evenodd" clip-rule="evenodd" d="M28.5157 34.4653C28.4561 34.4671 28.3972 34.4525 28.3454 34.4233L7.21975 22.3631C7.11243 22.3151 7.04115 22.2122 7.03495 22.0961C7.02876 21.9801 7.08867 21.8703 7.19029 21.8115C7.29191 21.7527 7.41827 21.7548 7.51789 21.8168L28.6435 33.877C28.7889 33.9642 28.844 34.1456 28.7713 34.2973C28.7404 34.4082 28.6315 34.4799 28.5157 34.4653Z" fill="white"/>
<path fill-rule="evenodd" clip-rule="evenodd" d="M27.6202 39.909C27.563 39.9107 27.5064 39.8962 27.4567 39.8669L7.17567 27.7857C7.04118 27.6983 6.99533 27.5187 7.07072 27.3746C7.14611 27.2304 7.31702 27.171 7.46189 27.2385L27.7429 39.3196C27.8824 39.4069 27.9353 39.5886 27.8655 39.7406C27.8271 39.8449 27.7285 39.9126 27.6202 39.909Z" fill="white"/>
<path fill-rule="evenodd" clip-rule="evenodd" d="M28.4093 26.3028C28.341 26.2973 28.2744 26.2782 28.2135 26.2465L7.23856 14.3411C7.11366 14.2732 7.03545 14.1422 7.03452 13.9994C7.0336 13.8565 7.11011 13.7245 7.23411 13.655C7.35812 13.5855 7.50991 13.5896 7.63009 13.6656L28.6051 25.571C28.697 25.6205 28.7644 25.7062 28.7909 25.8077C28.8174 25.9092 28.8008 26.0172 28.7449 26.1058C28.6854 26.236 28.5512 26.3148 28.4093 26.3028Z" fill="white"/>
<g opacity="0.7">
<path fill-rule="evenodd" clip-rule="evenodd" d="M61.8114 55.327V54.818V54.6483V53.8564C61.8114 53.7998 61.8114 53.7998 61.755 53.7433V53.6867C61.755 53.6301 61.6985 53.5736 61.6985 53.4604V53.4039C61.6985 53.3473 61.642 53.2908 61.642 53.2342V53.1211C61.642 53.0645 61.642 53.0645 61.5855 53.0079V52.9514C61.5855 52.9201 61.5602 52.8948 61.5291 52.8948V52.8383C61.5291 52.7817 61.4726 52.7817 61.4726 52.7251V52.6686C61.4726 52.612 61.4161 52.5554 61.3596 52.4989C61.3596 52.4676 61.3343 52.4423 61.3031 52.4423C61.2972 52.3994 61.2773 52.3597 61.2467 52.3292C61.2467 52.2726 61.1902 52.2726 61.1902 52.2161C61.1902 52.1595 61.1337 52.1595 61.1337 52.1029C61.0901 52.0015 61.0331 51.9064 60.9643 51.8201C60.8896 51.6752 60.7945 51.5419 60.6819 51.4242V51.3676C60.6254 51.2545 60.5124 51.1414 60.4559 51.0282V50.9717C60.3995 50.9151 60.343 50.8585 60.343 50.802C60.2865 50.7454 60.2865 50.6889 60.23 50.6889C60.23 50.6576 60.2047 50.6323 60.1735 50.6323L60.0041 50.4626C60.0041 50.4314 59.9788 50.406 59.9476 50.406L59.8347 50.2929L59.7782 50.2363L59.7217 50.1798L59.6652 50.1232L59.6087 50.0667L59.5523 50.0101L59.4958 49.9535L59.4393 49.897L59.3828 49.8404L59.3264 49.7838L59.2699 49.7273C59.2387 49.7273 59.2134 49.702 59.2134 49.6707L59.1569 49.6142C59.1257 49.6142 59.1004 49.5888 59.1004 49.5576L59.044 49.501L58.9875 49.4445H58.931C58.8745 49.4445 58.8745 49.3879 58.818 49.3879L58.7616 49.3313C58.7051 49.2748 58.6486 49.2748 58.5921 49.2182C58.5356 49.1616 58.4792 49.1616 58.4227 49.1051H58.3662L55.0904 47.2385C55.0339 47.2385 55.0339 47.1819 54.9774 47.1819H54.921C54.8898 47.1819 54.8645 47.1566 54.8645 47.1254H54.808C54.7768 47.1254 54.7515 47.1001 54.7515 47.0688H54.695C54.6386 47.0688 54.5821 47.0123 54.5256 47.0123C54.4828 47.0063 54.4431 46.9864 54.4126 46.9557H53.1701C53.1136 46.9557 53.0007 47.0123 52.9442 47.0123C52.8877 47.0123 52.8877 47.0123 52.8312 47.0688H52.7747C52.7183 47.0688 52.6618 47.1254 52.6053 47.1254L52.3229 47.2951C52.3794 47.2951 52.4359 47.2385 52.4923 47.2385H52.5488C52.6053 47.2385 52.6053 47.1819 52.6618 47.1819H52.7183C52.7747 47.1819 52.8877 47.1254 52.9442 47.1254H54.0738C54.1302 47.1254 54.1302 47.1254 54.1867 47.1819H54.2432C54.2997 47.1819 54.3562 47.2385 54.4126 47.2385C54.4691 47.2385 54.5256 47.2951 54.5821 47.2951H54.6386C54.695 47.2951 54.695 47.3516 54.7515 47.3516C54.7827 47.3516 54.808 47.377 54.808 47.4082C54.8645 47.4648 54.921 47.4648 54.9774 47.5213L58.2532 49.3879C58.3097 49.4445 58.3662 49.4445 58.4227 49.501C58.4792 49.5576 58.5356 49.5576 58.5921 49.6142L58.6486 49.6707C58.7051 49.6707 58.7051 49.7273 58.7616 49.7838L58.818 49.8404C58.8745 49.8404 58.8745 49.897 58.931 49.897L58.9875 49.9535C59.044 49.9535 59.044 50.0101 59.1004 50.0667L59.1569 50.1232L59.2699 50.2363L59.3264 50.2929L59.4393 50.406L59.4958 50.4626L59.6087 50.5757L59.6652 50.6323C59.7217 50.6889 59.7217 50.7454 59.7782 50.7454C59.7782 50.7767 59.8035 50.802 59.8347 50.802L60.0041 50.9717C60.0041 51.0029 60.0294 51.0282 60.0606 51.0282C60.1171 51.0848 60.1171 51.1414 60.1735 51.1414C60.23 51.1414 60.2865 51.2545 60.2865 51.311L60.343 51.3676C60.3995 51.4807 60.5124 51.5939 60.5689 51.707C60.5689 51.7382 60.5942 51.7636 60.6254 51.7636C60.7383 51.8767 60.7948 52.0464 60.9078 52.1595C60.9078 52.1907 60.9331 52.2161 60.9643 52.2161C61.0079 52.3175 61.0649 52.4126 61.1337 52.4989C61.1337 52.5554 61.1902 52.5554 61.1902 52.612C61.1902 52.6686 61.2467 52.6686 61.2467 52.7251C61.2467 52.7817 61.3031 52.8383 61.3031 52.8948C61.3031 52.9261 61.3284 52.9514 61.3596 52.9514C61.4161 53.0079 61.4161 53.1211 61.4726 53.1776V53.2342C61.4726 53.2908 61.5291 53.3473 61.5291 53.4039C61.5291 53.4351 61.5543 53.4604 61.5855 53.4604C61.5855 53.517 61.642 53.5736 61.642 53.6301V53.6867C61.642 53.7433 61.6985 53.7998 61.6985 53.8564V53.913C61.6985 53.9695 61.755 54.0826 61.755 54.1392V54.1958C61.755 54.2523 61.8114 54.3089 61.8114 54.3655V54.422C61.804 54.4842 61.8247 54.5465 61.8679 54.5917V54.6483C61.8605 54.7104 61.8812 54.7727 61.9244 54.818V54.8745C61.9169 54.9367 61.9377 54.999 61.9809 55.0442V55.1008C61.9724 55.1805 61.9924 55.2607 62.0374 55.327V59.1733C62.0374 59.2299 62.0374 59.2299 61.9809 59.2864C61.9809 59.3177 61.9556 59.343 61.9244 59.343L61.8679 59.3996L62.1503 59.2299L62.2068 59.1733V59.0602V58.8905V58.6643V55.6664C61.8114 55.4119 61.8114 55.3553 61.8114 55.327Z" fill="white"/>
<path fill-rule="evenodd" clip-rule="evenodd" d="M54.5254 40.8754C54.6383 40.8754 54.6948 40.8188 54.7513 40.8188H55.0337C55.1133 40.8103 55.1933 40.8304 55.2596 40.8754C55.3161 40.8754 55.429 40.9319 55.4855 40.9319C55.542 40.9885 55.6549 40.9885 55.7679 41.045C55.8809 41.1016 55.9373 41.1582 56.0503 41.1582C56.1633 41.1582 56.2197 41.2713 56.3327 41.3279C56.3892 41.3844 56.5021 41.441 56.5586 41.4975C56.6151 41.5541 56.7281 41.6107 56.7845 41.7238L57.0105 41.9501C57.0992 42.0327 57.1754 42.128 57.2364 42.2329C57.3994 42.3974 57.5331 42.5887 57.6317 42.7985C57.6882 42.8551 57.6882 42.9116 57.7447 42.9682C57.8012 43.0248 57.8012 43.0813 57.8576 43.1379C57.8576 43.1691 57.8829 43.1944 57.9141 43.1944C57.9736 43.2568 58.0129 43.3356 58.0271 43.4207L58.1965 43.7601C58.2592 43.8633 58.2978 43.9793 58.3095 44.0995C58.366 44.2126 58.366 44.3257 58.4224 44.4388C58.4633 44.5273 58.4827 44.6242 58.4789 44.7216V44.7782C58.4789 44.8913 58.5354 45.0045 58.5354 45.1176C58.5354 45.2307 58.5919 45.3438 58.5919 45.457V46.0792C58.5919 46.1923 58.5919 46.2489 58.5354 46.3054V46.362C58.5354 46.4185 58.4789 46.5317 58.4789 46.5882V46.6448C58.4789 46.7014 58.4224 46.7579 58.4224 46.8145C58.366 46.871 58.366 46.9276 58.3095 46.9842C58.253 47.0407 58.253 47.0973 58.1965 47.0973C58.1965 47.1285 58.1712 47.1539 58.14 47.1539L58.0271 47.267C57.9959 47.267 57.9706 47.2923 57.9706 47.3236C57.9141 47.3801 57.8576 47.3801 57.8012 47.4367L58.0836 47.267C58.14 47.2104 58.1965 47.2104 58.253 47.1539C58.2842 47.1539 58.3095 47.1285 58.3095 47.0973L58.4224 46.9842C58.4224 46.9529 58.4477 46.9276 58.4789 46.9276C58.5354 46.871 58.5354 46.8145 58.5919 46.8145C58.6484 46.7579 58.6484 46.7014 58.7048 46.6448C58.7048 46.5882 58.7613 46.5882 58.7613 46.5317V46.362C58.7613 46.3054 58.7613 46.2489 58.8178 46.2489V45.9095V45.6267V45.3438V45.061V44.9479C58.8178 44.8913 58.8178 44.8348 58.7613 44.8348V44.6651C58.7688 44.6029 58.7481 44.5406 58.7048 44.4954C58.7048 44.4388 58.7048 44.4388 58.6484 44.3823C58.6107 44.3069 58.5729 44.2313 58.5352 44.1558C58.5352 44.0992 58.5352 44.0992 58.4787 44.0427C58.4728 43.9998 58.4529 43.96 58.4223 43.9295C58.4223 43.873 58.4223 43.873 58.3658 43.8164C58.3598 43.7735 58.34 43.7338 58.3093 43.7033C58.3093 43.6467 58.2528 43.5902 58.2528 43.5336C58.2528 43.477 58.1963 43.477 58.1963 43.4205C58.1904 43.3776 58.1705 43.3378 58.1399 43.3073C58.1399 43.2761 58.1146 43.2508 58.0834 43.2508C58.0834 43.1942 58.0269 43.1942 58.0269 43.1376C58.0269 43.0811 57.9704 43.0245 57.9139 42.968C57.8575 42.9114 57.801 42.7983 57.7445 42.7417C57.688 42.6851 57.688 42.6286 57.6315 42.572L57.5186 42.4589L57.4056 42.3458L57.2927 42.2326L57.2362 42.1761L57.1232 42.0629L57.0667 42.0064L57.0103 41.9498L56.8973 41.8367L56.8408 41.7801L56.7844 41.7236L56.6714 41.6104C56.6149 41.6104 56.6149 41.5539 56.5584 41.5539C56.502 41.5539 56.502 41.4973 56.4455 41.4973C56.389 41.4973 56.389 41.4408 56.3325 41.4408C56.276 41.4408 56.276 41.3842 56.2196 41.3842C56.1631 41.3842 56.1631 41.3276 56.1066 41.3276C56.0754 41.3276 56.0501 41.3023 56.0501 41.2711C55.9936 41.2711 55.9936 41.2145 55.9372 41.2145C55.8807 41.2145 55.8807 41.1579 55.8242 41.1579H55.7961C55.7397 41.1579 55.7397 41.1579 55.6832 41.1014H54.8925C54.8304 41.0939 54.7682 41.1146 54.723 41.1579C54.6381 41.1721 54.5594 41.2115 54.4971 41.2711L54.2147 41.4408C54.2712 41.3842 54.3277 41.3842 54.4406 41.3276C54.4689 40.9319 54.4689 40.9319 54.5254 40.8754Z" fill="white"/>
</g>
<g opacity="0.6">
<path fill-rule="evenodd" clip-rule="evenodd" d="M57.6883 48.9635L54.4125 47.0969C52.3228 45.8525 50.5719 46.8707 50.5719 49.3029V52.3007C50.6034 52.7508 50.8305 53.1644 51.1932 53.432L60.8512 59.0318C61.1901 59.258 61.4725 59.0883 61.4725 58.6924V55.6945C61.3895 52.9652 59.9755 50.45 57.6883 48.9635Z" fill="white"/>
<path fill-rule="evenodd" clip-rule="evenodd" d="M56.1068 47.4363C57.5752 48.2848 58.8178 47.606 58.8178 45.9091C58.7084 44.0023 57.7025 42.2604 56.1068 41.2144C54.6383 40.3659 53.3958 41.0447 53.3958 42.7416C53.4775 44.6566 54.4902 46.4102 56.1068 47.4363Z" fill="white"/>
</g>
<path fill-rule="evenodd" clip-rule="evenodd" d="M33.4767 74.6204L60.9216 90.3681C61.0684 90.4452 61.229 90.4923 61.3941 90.5068C61.7371 90.538 62.0629 90.351 62.2092 90.039C62.3458 89.827 62.388 89.5677 62.3256 89.3232C62.2632 89.0788 62.1018 88.8714 61.8803 88.751L34.693 73.1511C34.7042 73.4124 34.6436 73.6798 34.5031 73.923C34.2768 74.3151 33.8923 74.5589 33.4767 74.6204Z" fill="white"/>
<defs>
<linearGradient id="paint0_linear" x1="21.7224" y1="167.192" x2="21.7224" y2="119.302" gradientUnits="userSpaceOnUse">
<stop stop-color="white" stop-opacity="0.01"/>
<stop offset="1" stop-color="white" stop-opacity="0.8"/>
</linearGradient>
<linearGradient id="paint1_linear" x1="55.704" y1="112.703" x2="66.421" y2="168.462" gradientUnits="userSpaceOnUse">
<stop stop-color="#585491"/>
<stop offset="0.427083" stop-color="#6669C4"/>
<stop offset="0.536458" stop-color="#6669C4"/>
<stop offset="0.85" stop-color="#8E91F4"/>
<stop offset="1" stop-color="#8E91F4"/>
</linearGradient>
<linearGradient id="paint2_linear" x1="61.2899" y1="57.2479" x2="51.5286" y2="100.141" gradientUnits="userSpaceOnUse">
<stop stop-color="#FFCF5C"/>
<stop offset="0.22" stop-color="#FFCB57"/>
<stop offset="0.47" stop-color="#FFBF4A"/>
<stop offset="0.74" stop-color="#FFAB33"/>
<stop offset="1" stop-color="#FF9115"/>
</linearGradient>
</defs>
</svg>
