<svg width="115" height="147" viewBox="0 0 115 147" fill="none" xmlns="http://www.w3.org/2000/svg">
<path fill-rule="evenodd" clip-rule="evenodd" d="M77.0214 1.64953C82.9859 -0.279354 89.5095 1.96064 92.8645 14.6539C96.2195 27.3472 113.554 23.4894 113.554 23.4894C113.554 23.4894 107.962 52.1737 80.6249 40.6005C53.2878 29.0272 68.1368 4.51174 77.0214 1.64953Z" fill="#C12814"/>
<path fill-rule="evenodd" clip-rule="evenodd" d="M56.0896 24.8299C56.7845 24.4499 57.0617 23.5929 56.7209 22.8776L51.7279 13.2879C51.3481 12.5926 50.4916 12.3153 49.7767 12.6562C49.0818 13.0363 48.8046 13.8933 49.1454 14.6086L54.1441 24.227C54.31 24.5769 54.6148 24.8413 54.9846 24.9559C55.3543 25.0705 55.7551 25.0248 56.0896 24.8299Z" fill="#373C41"/>
<path fill-rule="evenodd" clip-rule="evenodd" d="M90.0066 49.1868C90.0687 49.1868 90.0687 49.1868 90.0687 49.1246C90.0687 49.0624 95.971 41.658 87.1486 26.1025C87.1486 26.0403 87.0243 26.0403 86.9622 26.0403C86.9001 26.0403 86.9001 26.1647 86.9001 26.2269C95.5983 41.5958 89.8823 48.8757 89.8202 49.0002C89.7914 49.0226 89.7746 49.057 89.7746 49.0935C89.7746 49.13 89.7914 49.1644 89.8202 49.1868H90.0066Z" fill="white"/>
<path fill-rule="evenodd" clip-rule="evenodd" d="M51.5883 23.4888C52.2718 23.4266 52.4581 24.0488 52.8931 24.671C55.4863 28.1522 58.3312 31.438 61.4049 34.5021L61.8398 34.9376C62.896 34.191 63.9522 33.5065 65.0084 32.7599C66.9965 31.2665 68.9226 29.711 70.8486 28.0932C72.0912 27.0355 74.2036 24.5466 76.0675 24.8577C78.5527 25.231 77.5586 29.2132 75.3841 30.9554C72.5395 33.3457 69.4824 35.4702 66.251 37.3021C63.7037 38.8576 61.467 40.1021 60.2865 39.1065C58.4847 38.0487 55.751 34.6888 54.0735 31.8265C53.328 30.5199 51.4641 26.8488 50.7185 25.3555C50.5073 25.0012 50.4852 24.5651 50.6594 24.1912C50.8336 23.8173 51.1816 23.5542 51.5883 23.4888Z" fill="#FFCCB6"/>
<path fill-rule="evenodd" clip-rule="evenodd" d="M51.5883 23.4888C52.2718 23.4266 52.4581 24.0488 52.8931 24.671C55.4863 28.1522 58.3312 31.438 61.4049 34.5021L61.8398 34.9376C62.896 34.191 63.9522 33.5065 65.0084 32.7599C66.9965 31.2665 68.9226 29.711 70.8486 28.0932C72.0912 27.0355 74.2036 24.5466 76.0675 24.8577C78.5527 25.231 77.5586 29.2132 75.3841 30.9554C72.5395 33.3457 69.4824 35.4702 66.251 37.3021C63.7037 38.8576 61.467 40.1021 60.2865 39.1065C58.4847 38.0487 55.751 34.6888 54.0735 31.8265C53.328 30.5199 51.4641 26.8488 50.7185 25.3555C50.5073 25.0012 50.4852 24.5651 50.6594 24.1912C50.8336 23.8173 51.1816 23.5542 51.5883 23.4888Z" fill="url(#paint0_linear)"/>
<path fill-rule="evenodd" clip-rule="evenodd" d="M114.051 76.0672C112.435 74.9472 108.832 73.7028 108.521 74.3872C108.273 74.885 108.211 76.0672 107.962 77.0005C105.228 79.6138 100.32 88.076 97.1514 93.5516C96.7165 91.6849 96.2195 89.6938 95.7224 87.7027C94.2935 81.9161 92.8645 76.4405 92.4917 74.2005C92.3053 73.3917 92.1189 72.5828 91.9325 71.8983C91.1248 69.2228 89.9444 67.605 88.7018 66.6095C88.0704 66.0816 87.3568 65.6612 86.5894 65.365C83.4829 63.9961 81.2462 66.4228 80.7492 71.0272C79.7995 70.0828 78.7819 69.2094 77.7048 68.4139C73.045 64.9295 69.499 59.4128 67.764 68.2895C67.7019 71.4628 68.7581 83.4716 69.9386 94.1116C70.4356 99.0271 70.9948 103.632 71.4297 106.929C71.4232 107.097 71.4442 107.266 71.4918 107.427C72.2374 112.343 73.9149 137.169 74.9089 142.769C74.8903 143.593 74.6311 144.393 74.1634 145.071C73.3557 145.756 71.119 147 72.4859 147C77.2077 147 77.829 145.009 77.5184 144.387C76.8971 143.205 76.5243 142.894 76.4001 142.271C78.264 137.231 79.6929 122.174 79.4444 118.191C79.1959 114.583 79.0716 111.534 79.0095 108.049C79.0716 107.303 79.1338 106.494 79.1338 105.56C79.1338 103.134 80.1279 95.8538 81.1219 88.9471C81.4326 86.6449 81.8054 84.4049 82.0539 82.4138C82.1781 82.8494 82.3645 83.3472 82.4888 83.7827C82.9237 85.0894 83.545 86.6449 84.1663 88.3249C86.0302 92.9293 88.5154 98.5915 90.8763 103.632C91.9325 105.934 95.1011 114.396 98.4562 109.667C101.252 105.685 108.086 83.5961 109.205 77.7472C109.592 77.3466 110.057 77.029 110.571 76.8139C111.441 76.3161 114.921 76.6272 114.051 76.0672Z" fill="url(#paint1_linear)"/>
<path fill-rule="evenodd" clip-rule="evenodd" d="M69.9386 94.0488C71.2826 94.1076 72.6268 93.9393 73.9149 93.5511C77.6427 92.4933 78.1398 90.0044 81.0599 88.76C81.3705 86.4578 81.7433 84.2178 81.9918 82.2267C82.1161 82.6622 82.3025 83.16 82.4267 83.5955C82.8616 84.9022 83.4829 86.4578 84.1042 88.1378C86.128 88.0905 88.1503 88.2784 90.1308 88.6978C92.0208 89.1273 94.004 88.7436 95.5983 87.64C94.1693 81.8533 92.7403 76.3778 92.3675 74.1378C92.1811 73.3289 91.9947 72.52 91.8083 71.8356C91.0628 70.5912 90.3172 69.4089 89.5717 68.289C89.1989 67.729 88.8882 67.1067 88.5776 66.5467C87.9462 66.0189 87.2326 65.5985 86.4652 65.3023C83.3587 63.9334 81.122 66.3601 80.625 70.9645C79.6753 70.0201 78.6578 69.1466 77.5806 68.3512C72.9209 64.8667 70.4967 59.9114 68.0023 68.2889C68.0644 71.4622 68.8513 83.4089 69.9386 94.0488Z" fill="#F7AD8D"/>
<path fill-rule="evenodd" clip-rule="evenodd" d="M65.4031 88.8223C65.4031 88.8223 68.5718 92.8045 75.4682 90.9378C81.4326 89.2578 79.1338 83.7823 91.8083 86.1467C98.5805 87.3912 100.693 80.3601 100.693 80.3601C100.693 80.3601 95.0391 71.9601 91.3113 65.8002C84.9119 55.2847 84.3527 44.458 89.5095 34.067C90.3793 32.3248 91.4355 31.9514 91.1249 29.9603C90.6279 26.7248 88.6397 24.7959 85.4711 24.7959H76.4622C70.2493 24.7959 69.3794 31.7648 69.3794 36.6181C69.3794 40.4136 70.1871 44.5825 70.2493 48.4402C70.2493 53.6669 69.3794 55.9691 68.7581 61.1335C68.5718 62.6268 68.3232 64.1202 68.1368 65.6135C64.5333 80.9201 65.4031 88.8223 65.4031 88.8223Z" fill="url(#paint2_linear)"/>
<path fill-rule="evenodd" clip-rule="evenodd" d="M50.5541 17.9969C50.492 19.6769 50.6784 21.7302 50.6163 22.788C50.5541 24.0946 52.1695 23.4102 52.9772 22.2902C53.7228 21.2946 53.847 19.7391 53.9091 18.7435C54.0862 17.8128 53.6313 16.8763 52.7908 16.4413C51.7967 15.7569 50.6163 15.6947 50.5541 17.9969Z" fill="#FABAB2"/>
<path fill-rule="evenodd" clip-rule="evenodd" d="M79.6929 58.4269C81.0658 61.8957 84.9865 63.5934 88.4505 62.2191C91.9145 60.8448 93.6105 56.9187 92.2389 53.4493C90.8673 49.9799 86.9473 48.2806 83.4828 49.6536C81.816 50.3105 80.4792 51.6053 79.768 53.2517C79.0568 54.8981 79.0298 56.7604 79.6929 58.4269Z" fill="#A02048"/>
<path fill-rule="evenodd" clip-rule="evenodd" d="M87.5223 57.8938C90.62 56.6743 92.378 53.7672 91.4491 51.4005C90.5201 49.0339 87.2559 48.1039 84.1582 49.3234C81.0606 50.5429 79.3025 53.4501 80.2315 55.8167C81.1605 58.1834 84.4247 59.1133 87.5223 57.8938Z" fill="#D14A70"/>
<path fill-rule="evenodd" clip-rule="evenodd" d="M78.2017 51.9251C78.7264 50.9698 79.4992 50.1743 80.4384 49.6229C80.6554 49.5127 80.8848 49.4291 81.1218 49.374C81.3821 49.2747 81.6319 49.1497 81.8674 49.0006C85.6679 46.9322 89.3216 44.6037 92.8022 42.0318C92.9886 41.9073 93.1129 41.7829 93.2992 41.6584C92.7401 40.4762 92.1809 39.3562 91.5596 38.174C90.3791 35.9962 89.1365 33.8185 87.8318 31.7029C86.962 30.334 84.8496 27.8452 85.4088 26.103C86.1543 23.6763 89.8821 25.2941 91.3111 27.6585C93.2483 30.8194 94.8913 34.1519 96.2194 37.614C97.3998 40.3518 98.3318 42.7784 97.0892 43.8362C95.7844 45.454 92.0566 47.694 89.0123 48.9384C87.5833 49.4984 83.607 50.8051 82.0537 51.3651C81.7431 52.0495 81.3082 52.8584 80.9354 53.6051C80.0035 55.2228 78.8851 54.8495 78.2017 54.0406C77.6979 53.4257 77.6979 52.54 78.2017 51.9251Z" fill="#FFCCB6"/>
<path fill-rule="evenodd" clip-rule="evenodd" d="M76.8351 29.8357C77.1506 29.2453 77.5718 28.718 78.0777 28.2802C79.545 27.0761 81.1512 26.0525 82.8617 25.2313C83.2345 25.0446 83.5452 24.858 83.7937 24.7335H76.3381C76.4132 26.4419 76.5791 28.145 76.8351 29.8357Z" fill="#FFCCB6"/>
<path fill-rule="evenodd" clip-rule="evenodd" d="M77.3321 26.4133C77.3248 27.0914 77.5941 27.7431 78.0777 28.2177C79.545 27.0136 81.1511 25.9901 82.8617 25.1688C82.9321 25.0115 82.9741 24.843 82.9859 24.6711C83.5878 22.52 83.9422 20.3072 84.0421 18.0755C84.1066 16.6569 83.0331 15.444 81.6191 15.3378C80.3177 15.3687 79.2607 16.4002 79.196 17.7022C79.062 20.0826 78.5805 22.4304 77.767 24.6711C77.7016 24.9147 77.5967 25.1459 77.4564 25.3555C77.4564 25.7288 77.3321 26.1022 77.3321 26.4133Z" fill="#FFCCB6"/>
<path fill-rule="evenodd" clip-rule="evenodd" d="M73.0452 9.27188C70.9327 14.4363 71.8026 19.8496 75.7789 21.7163C79.7552 23.5829 84.6634 20.8452 86.7759 15.6807C88.8883 10.5163 87.335 4.7919 83.2966 2.98746C79.4135 1.08969 75.1576 4.01412 73.0452 9.27188Z" fill="#FFCCB6"/>
<path fill-rule="evenodd" clip-rule="evenodd" d="M75.8407 3.82734C75.9029 4.07623 76.0892 12.2273 90.814 17.6406C90.814 17.6406 94.6661 6.06733 81.6188 1.71179L75.8407 3.82734Z" fill="#C12814"/>
<path fill-rule="evenodd" clip-rule="evenodd" d="M85.7816 14.2489C84.7254 15.6178 84.4768 17.1733 85.1603 17.7956C85.8437 18.4178 87.3348 17.7956 88.391 16.4267C89.4472 15.0578 89.6957 13.5023 89.0123 12.88C88.3289 12.2578 86.8688 12.8489 85.7816 14.2489Z" fill="#FFCCB6"/>
<path fill-rule="evenodd" clip-rule="evenodd" d="M79.2581 55.7826C79.5312 55.7716 79.8021 55.7299 80.0658 55.6581C80.1279 55.6581 80.1901 55.5959 80.1279 55.5337C80.0658 55.4715 80.0658 55.4715 80.0037 55.4715C78.5747 55.9692 77.0836 54.9737 76.4002 53.7915C75.7765 52.4437 75.6877 50.909 76.1516 49.4982C76.4805 48.4984 76.8748 47.5215 77.3321 46.5737C77.5185 46.2004 77.7049 45.7648 77.8913 45.3915C78.5399 44.0334 78.8592 42.541 78.8232 41.036C78.6658 40.0265 78.3732 39.0428 77.9534 38.1115C77.5911 37.272 77.3203 36.3959 77.1457 35.4982C76.8351 33.3204 77.767 30.8938 79.5688 28.9649C81.0599 27.4094 83.9179 24.9205 85.7818 24.9205H86.0303C86.0989 24.9205 86.1545 24.8648 86.1545 24.796C86.1545 24.7273 86.0989 24.6716 86.0303 24.6716C83.6693 24.3605 79.8173 28.3427 79.3824 28.7782C77.4564 30.7693 76.5244 33.3204 76.8972 35.4982C77.0717 36.416 77.3424 37.3129 77.7049 38.1738C78.1243 39.0788 78.397 40.045 78.5126 41.036C78.5495 42.5012 78.2296 43.9534 77.5806 45.2671C77.3942 45.6404 77.2078 46.0759 77.0214 46.4493C76.5642 47.397 76.1698 48.374 75.841 49.3737C75.3463 50.8225 75.4355 52.4075 76.0895 53.7915C76.7613 54.9301 77.9422 55.6721 79.2581 55.7826Z" fill="white"/>
<path opacity="0.7" fill-rule="evenodd" clip-rule="evenodd" d="M74.8304 44.7558V44.1769C74.8328 44.0958 74.8128 44.0157 74.7725 43.9453C74.7802 43.8816 74.759 43.8179 74.7147 43.7716C74.7171 43.6905 74.6971 43.6104 74.6568 43.54V43.3026C74.6568 43.2447 74.5989 43.1289 74.5989 43.071C74.5989 43.0131 74.5411 42.9552 74.5411 42.8973V42.8394C74.5411 42.7816 74.4832 42.7237 74.4832 42.6079C74.4832 42.4921 74.4253 42.4921 74.4253 42.3763V42.2605C74.4192 42.2166 74.3989 42.1759 74.3674 42.1447C74.3674 42.0868 74.3096 42.0289 74.3096 41.971C74.3034 41.9271 74.2831 41.8864 74.2517 41.8552V41.7973C74.1938 41.7394 74.1938 41.6815 74.1359 41.6236C74.0781 41.5657 74.0781 41.5078 74.0202 41.392V41.2762C73.9623 41.2183 73.9623 41.1605 73.9044 41.1026C73.8466 41.0447 73.8466 40.9868 73.7887 40.871C73.7308 40.7552 73.7308 40.8131 73.7308 40.7552V40.6973C73.673 40.6394 73.673 40.5815 73.6151 40.5236C73.5572 40.4657 73.4993 40.3499 73.4415 40.2341V40.1762C73.3836 40.0604 73.2678 39.9446 73.21 39.8288C73.1521 39.7709 73.0942 39.6551 73.0364 39.5973L72.8627 39.4236L72.6891 39.2499L72.5155 39.0762L72.3997 38.9604L72.2261 38.7867L72.1683 38.7288L72.1104 38.6709L72.0525 38.613L71.8789 38.4393L71.821 38.3814L71.7631 38.3235L71.7053 38.2656C71.6474 38.2077 71.5895 38.1498 71.5316 38.1498C71.4738 38.1498 71.4159 38.0919 71.4159 38.0341C71.358 37.9762 71.3001 37.9762 71.2423 37.9183C71.1844 37.8604 71.1265 37.8604 71.0687 37.8025H71.0108L6.48794 0.523009C6.44407 0.51689 6.40341 0.496553 6.37219 0.465112C6.31432 0.407216 6.25644 0.407216 6.19857 0.34932C6.1407 0.291423 6.1407 0.291423 6.08282 0.291423H6.02495C5.96708 0.291423 5.9092 0.233527 5.85133 0.233527C5.79346 0.233527 5.73559 0.175631 5.67771 0.175631C5.61984 0.175631 5.61984 0.175631 5.56197 0.117734C5.50409 0.0598379 5.44622 0.0598379 5.38835 0.0598379H5.21473C5.15111 0.0674985 5.08741 0.0462556 5.04111 0.0019416H4.46237C4.3808 -0.00672191 4.29879 0.0137887 4.23088 0.0598379H4.17301C4.11514 0.0598379 3.99939 0.117734 3.94152 0.117734C3.83775 0.162468 3.74043 0.220882 3.65215 0.291423L1.62659 1.44935C1.73035 1.40462 1.82767 1.3462 1.91595 1.27566C1.98386 1.22961 2.06587 1.2091 2.14745 1.21776H2.20532C2.32107 1.21776 2.37894 1.15987 2.49469 1.15987H2.8998C3.01852 1.15074 3.13769 1.17061 3.24704 1.21776H3.30491C3.42789 1.22976 3.54658 1.26934 3.65215 1.33356C3.78246 1.40192 3.91791 1.46 4.05726 1.50725C4.20389 1.5621 4.34069 1.6403 4.46237 1.73883L68.991 39.0241C69.1393 39.1006 69.2757 39.1981 69.3961 39.3136C69.5119 39.4294 69.6276 39.4873 69.7434 39.603L69.8012 39.6609C69.917 39.7767 70.0327 39.8346 70.1485 39.9504L70.2064 40.0083L70.5536 40.3557C70.6834 40.4781 70.7998 40.614 70.9008 40.761C71.0166 40.8768 71.1323 41.0505 71.2481 41.1662C71.3638 41.282 71.4217 41.4557 71.5374 41.5715C71.6532 41.6873 71.6532 41.7452 71.7111 41.861C71.772 41.9248 71.8123 42.0055 71.8268 42.0926C71.8268 42.1505 71.8847 42.1505 71.8847 42.2084C71.9522 42.3487 72.0296 42.4842 72.1162 42.6137V42.6716C72.174 42.8452 72.2898 42.961 72.3477 43.1347C72.4055 43.3084 72.4634 43.4242 72.5213 43.5979V43.6558C72.5695 43.8136 72.6275 43.9683 72.6949 44.119C72.7605 44.2653 72.7997 44.4221 72.8106 44.5821V44.64C72.8685 44.8137 72.8685 44.9874 72.9264 45.1032C72.9264 45.2769 72.9843 45.4506 72.9843 45.5664V46.0874L72.9264 73.8198V74.3409C72.9264 74.4566 72.8685 74.5724 72.8685 74.7461V74.804C72.8565 74.927 72.817 75.0458 72.7528 75.1514V75.2093C72.6949 75.3251 72.6949 75.383 72.637 75.4988V75.5567C72.5923 75.6605 72.5339 75.7578 72.4634 75.8462C72.3846 75.9756 72.2871 76.0927 72.174 76.1935L72.1162 76.2514C72.0004 76.3672 71.8847 76.4251 71.7689 76.5409L73.7945 75.383C73.9239 75.3042 74.0409 75.2066 74.1417 75.0935L74.1996 75.0356C74.3153 74.9198 74.3732 74.804 74.489 74.6882C74.5468 74.5724 74.6047 74.5145 74.6626 74.3988V74.3409C74.6626 74.283 74.7205 74.2251 74.7205 74.1672C74.7205 74.1093 74.7205 74.1093 74.7783 74.0514V73.9356C74.7783 73.8777 74.8362 73.8198 74.8362 73.704V73.5303C74.8286 73.4667 74.8498 73.4029 74.8941 73.3566V72.7777L74.952 45.0453C74.8304 44.8716 74.8304 44.8137 74.8304 44.7558Z" fill="white"/>
<path opacity="0.2" fill-rule="evenodd" clip-rule="evenodd" d="M68.6955 39.0233C70.9526 40.3549 72.8045 43.4813 72.8045 46.0866L72.7466 73.819C72.7466 76.4243 70.8947 77.4664 68.6376 76.1927L4.10901 38.9075C1.85196 37.5759 1.52588e-05 34.4495 1.52588e-05 31.8441L0.0578885 4.11177C0.0578885 1.50643 1.90983 0.464297 4.16689 1.73802L68.6955 39.0233Z" fill="white"/>
<path fill-rule="evenodd" clip-rule="evenodd" d="M43.1697 44.8773C43.1073 44.8784 43.0458 44.8625 42.992 44.8311L21.0378 31.9034C20.9261 31.8518 20.8527 31.7427 20.8476 31.6206C20.8425 31.4985 20.9065 31.3838 21.0135 31.3232C21.1205 31.2626 21.2526 31.2662 21.3561 31.3326L43.3103 44.2603C43.4613 44.3537 43.5169 44.545 43.439 44.7036C43.4054 44.8199 43.2906 44.894 43.1697 44.8773Z" fill="white"/>
<path fill-rule="evenodd" clip-rule="evenodd" d="M42.3003 54.5076C42.2059 54.5093 42.1129 54.485 42.0315 54.4372L8.82927 34.7153C8.60924 34.573 8.53692 34.2845 8.66375 34.0551C8.79058 33.8257 9.07328 33.7336 9.31079 33.8444L42.513 53.5662C42.7414 53.7086 42.8254 54.0005 42.7076 54.2425C42.6424 54.4089 42.4787 54.5154 42.3003 54.5076Z" fill="white"/>
<path fill-rule="evenodd" clip-rule="evenodd" d="M59.8784 43.2716C59.7139 43.2571 59.5539 43.2101 59.4077 43.1333L9.07752 14.2543C8.77778 14.0895 8.59161 13.7745 8.59185 13.4323C8.5921 13.0902 8.77872 12.7754 9.0787 12.6111C9.37867 12.4468 9.74432 12.4591 10.0326 12.6433L60.3627 41.5224C60.5834 41.6424 60.7442 41.8489 60.8064 42.0924C60.8686 42.3359 60.8265 42.5943 60.6904 42.8055C60.5447 43.1163 60.2201 43.3026 59.8784 43.2716Z" fill="white"/>
<path d="M46.9148 55.2553L54.2127 51.6063L56.8191 56.8191L66.7233 52.1276" stroke="white" stroke-linecap="round" stroke-linejoin="round"/>
<circle cx="54.2127" cy="51.6063" r="1.04255" fill="white"/>
<circle cx="56.9233" cy="56.819" r="1.04255" fill="white"/>
<circle cx="66.7233" cy="52.1275" r="1.04255" fill="white"/>
<circle cx="46.9148" cy="55.2552" r="1.04255" fill="white"/>
<path fill-rule="evenodd" clip-rule="evenodd" d="M58.3829 98.9548C58.3829 98.3099 57.9161 97.7871 57.3403 97.7871C56.7646 97.7871 56.2978 98.3099 56.2978 98.9548C56.2952 99.3775 56.5068 99.7654 56.8439 99.9556L57.3403 135.319H57.2907L57.7871 99.9556C58.1436 99.7815 58.3764 99.3903 58.3829 98.9548Z" fill="url(#paint3_linear)"/>
<path d="M14.6212 29.7279L17.1112 31.1513L17.0198 30.6707L15.4967 28.443C15.276 28.1167 15.1141 27.8574 15.011 27.6651C14.9059 27.4699 14.8389 27.2965 14.8101 27.1449C14.7721 26.9454 14.7915 26.8128 14.8682 26.7472C14.9432 26.6806 15.0646 26.6953 15.2325 26.7913C15.4326 26.9056 15.6009 27.0634 15.7374 27.2646C15.8738 27.4657 15.9649 27.6862 16.0105 27.9261L16.6285 28.2794C16.58 28.0242 16.4856 27.7658 16.3451 27.5043C16.2027 27.2398 16.0257 26.9967 15.8143 26.775C15.6011 26.5522 15.3699 26.3696 15.1207 26.2271C14.7612 26.0216 14.4976 25.9624 14.3297 26.0495C14.1598 26.1336 14.1092 26.3561 14.1778 26.7168C14.2176 26.9259 14.3119 27.1757 14.4608 27.466C14.6077 27.7535 14.8275 28.1109 15.1204 28.5382L16.2344 30.1524L14.515 29.1695L14.6212 29.7279ZM13.9533 29.6668L14.4391 29.9445L12.1164 24.5611L11.6306 24.2834L13.9533 29.6668ZM11.4258 26.0491L10.8231 23.8218L8.83417 22.6848L8.9491 23.2892L10.4243 24.1325L10.7165 25.1922C10.5241 24.983 10.3202 24.8169 10.1048 24.6938C9.75216 24.4922 9.50258 24.4632 9.35611 24.6069C9.20794 24.7497 9.17491 25.0369 9.257 25.4686C9.338 25.8946 9.5111 26.2963 9.77631 26.6736C10.0411 27.049 10.3626 27.3448 10.7408 27.561C11.0799 27.7548 11.3407 27.8073 11.5233 27.7184C11.7039 27.6267 11.7695 27.4077 11.7203 27.0615L11.1226 26.7198C11.1375 26.9096 11.1028 27.0292 11.0185 27.0784C10.9338 27.1258 10.8067 27.101 10.6371 27.0041C10.4472 26.8955 10.2851 26.7344 10.1508 26.5208C10.0148 26.3063 9.92158 26.0666 9.87123 25.8018C9.8227 25.5466 9.84289 25.3786 9.93179 25.2977C10.0203 25.2149 10.1672 25.2322 10.3724 25.3495C10.4843 25.4135 10.5825 25.485 10.6671 25.5641C10.7513 25.6413 10.8485 25.755 10.9586 25.9052L11.4258 26.0491Z" fill="white"/>
<defs>
<linearGradient id="paint0_linear" x1="64.0355" y1="23.4845" x2="64.0355" y2="39.4633" gradientUnits="userSpaceOnUse">
<stop stop-color="#F9AFAB"/>
<stop offset="1" stop-color="white" stop-opacity="0"/>
</linearGradient>
<linearGradient id="paint1_linear" x1="107.414" y1="139.253" x2="107.414" y2="79.9248" gradientUnits="userSpaceOnUse">
<stop stop-color="#8E91F4"/>
<stop offset="0.07" stop-color="#8E91F4"/>
<stop offset="0.35" stop-color="#F8A5A5"/>
<stop offset="0.61" stop-color="#F8A5A5"/>
<stop offset="0.83" stop-color="#FBC6B9"/>
<stop offset="1" stop-color="#FFCCB6"/>
</linearGradient>
<linearGradient id="paint2_linear" x1="99.303" y1="87.5467" x2="99.303" y2="26.1523" gradientUnits="userSpaceOnUse">
<stop stop-color="#6669C4"/>
<stop offset="0.15" stop-color="#8E91F4"/>
<stop offset="0.32" stop-color="#8E91F4"/>
<stop offset="0.89" stop-color="#9DDCFB"/>
<stop offset="1" stop-color="#9DDCFB"/>
</linearGradient>
<linearGradient id="paint3_linear" x1="58.4434" y1="137.499" x2="58.4434" y2="97.7871" gradientUnits="userSpaceOnUse">
<stop stop-color="white" stop-opacity="0.01"/>
<stop offset="1" stop-color="white" stop-opacity="0.8"/>
</linearGradient>
</defs>
</svg>
