<svg width="137" height="136" viewBox="0 0 137 136" fill="none" xmlns="http://www.w3.org/2000/svg">
<path fill-rule="evenodd" clip-rule="evenodd" d="M39.624 46.8054C39.6137 46.9991 39.5755 47.1902 39.5106 47.3729C39.3542 47.7708 39.037 48.0841 38.6373 48.2354C38.2376 48.3867 37.7926 48.362 37.4121 48.1674C37.0718 47.9972 36.6748 47.7702 36.2778 47.5432C34.9733 46.8054 33.5554 45.8407 32.9882 44.8192C31.8539 42.7763 30.3225 42.0953 29.5285 40.3361C29.4718 40.2226 29.4718 40.1659 29.4151 40.0524C28.9985 38.8383 29.3571 37.4928 30.3225 36.6475L35.03 42.7763L37.4688 44.5355L39.0002 45.6137C39.3967 45.8794 39.6316 46.328 39.624 46.8054Z" fill="#FAB9AF"/>
<path fill-rule="evenodd" clip-rule="evenodd" d="M36.1644 44.5354C36.8511 44.1598 37.125 43.3129 36.7883 42.606L31.8539 33.129C31.4785 32.4419 30.6321 32.1679 29.9256 32.5048C29.2388 32.8804 28.965 33.7273 29.3017 34.4342L34.2417 43.9396C34.4056 44.2854 34.7069 44.5467 35.0723 44.6599C35.4377 44.7732 35.8338 44.728 36.1644 44.5354Z" fill="#373C41"/>
<path fill-rule="evenodd" clip-rule="evenodd" d="M57.0361 125.175L56.1286 129.545C55.9591 130.442 55.902 131.357 55.9585 132.268L56.0719 133.687C56.1234 134.24 55.9094 134.784 55.4953 135.154C55.0812 135.523 54.5164 135.674 53.9734 135.56C51.0241 134.936 45.9196 133.914 44.6152 133.687C44.3929 133.648 44.2279 133.459 44.2181 133.233C44.3883 131.928 48.245 131.814 51.1943 131.304C53.4629 130.907 54.1435 127.104 54.3137 124.834C54.351 124.424 54.5702 124.053 54.9108 123.822C55.2514 123.591 55.6776 123.525 56.0719 123.643C56.7583 123.803 57.1881 124.486 57.0361 125.175Z" fill="#FAB9AF"/>
<path fill-rule="evenodd" clip-rule="evenodd" d="M51.1375 131.19C51.4133 131.13 51.6802 131.035 51.9316 130.906C53.3652 131.525 54.9075 131.853 56.4689 131.871V132.268L56.5823 133.857C56.6335 134.481 56.3872 135.092 55.918 135.505C55.4488 135.919 54.812 136.086 54.2002 135.957C50.8539 135.276 45.1256 134.141 43.6509 133.857C43.4241 133.801 43.1972 133.574 43.2539 133.347C43.4241 131.9 47.7913 131.758 51.1375 131.19Z" fill="#8E91F4"/>
<path fill-rule="evenodd" clip-rule="evenodd" d="M99.233 122.82L101.558 127.587C101.657 127.798 101.792 127.99 101.955 128.155L103.317 129.573C103.713 129.995 103.888 130.579 103.787 131.149C103.687 131.719 103.323 132.208 102.806 132.468C102.806 132.468 100.764 133.603 98.6659 134.681C96.5674 135.759 93.5047 135.646 93.4479 135.078C93.2211 133.716 94.639 134.567 96.5106 132.865C97.1345 132.297 97.7584 131.673 98.3256 131.049C99.9136 129.346 97.7584 125.998 96.2838 124.182C96.0457 123.873 95.9648 123.47 96.0647 123.092C96.1647 122.714 96.4341 122.404 96.7942 122.253L97.3047 122.083C98.0414 121.807 98.8682 122.123 99.233 122.82Z" fill="#FAB9AF"/>
<path fill-rule="evenodd" clip-rule="evenodd" d="M96.2837 132.893C96.9643 132.269 97.6449 131.588 98.2688 130.963C98.4927 130.694 98.6657 130.387 98.7792 130.055C98.836 129.885 98.9494 129.772 99.0628 129.772C100.208 129.592 101.307 129.187 102.296 128.58C102.538 128.442 102.843 128.489 103.033 128.693L103.657 129.374C104.087 129.83 104.274 130.462 104.162 131.079C104.05 131.695 103.652 132.221 103.09 132.496C103.09 132.496 100.878 133.687 98.6091 134.879C96.3404 136.071 93.1076 135.901 92.9941 135.276C92.7106 133.801 94.2419 134.766 96.2837 132.893Z" fill="#8E91F4"/>
<path fill-rule="evenodd" clip-rule="evenodd" d="M100.084 125.856C99.5825 126.252 99.029 126.576 98.439 126.821C97.968 126.989 97.4424 126.88 97.0778 126.537C94.9226 124.21 86.3584 114.733 79.6659 103.497C76.8867 98.8437 73.6539 87.04 72.0091 77.2793C71.9429 76.8693 71.6087 76.5556 71.1956 76.5156C70.7825 76.4756 70.3945 76.7194 70.2509 77.109C68.6061 81.7057 66.7345 86.6428 65.8837 88.7992C64.6927 91.8069 62.7643 101.284 60.7792 110.137C59.1345 117.627 57.6031 124.664 57.0927 127.048C56.9875 127.58 56.4983 127.947 55.9583 127.899C55.3458 127.805 54.7522 127.613 54.2001 127.331C53.8531 127.162 53.633 126.81 53.633 126.423C53.4628 123.756 52.8956 111.953 53.0091 102.589C53.1225 89.31 56.5822 75.0661 58.6807 67.6888C58.8509 67.178 58.9643 66.724 59.0777 66.2701C60.1554 62.6949 83.5226 56.2256 85.6778 64.7946C86.4718 67.859 86.9256 72.7394 87.1524 78.017C87.3793 82.7271 87.436 87.721 87.4927 92.0339C87.4927 96.971 91.7465 105.71 95.1495 113.201C97.4181 118.195 99.5734 122.621 100.424 124.381C100.723 124.884 100.573 125.534 100.084 125.856Z" fill="url(#paint0_linear)"/>
<path fill-rule="evenodd" clip-rule="evenodd" d="M90.4989 78.7544C90.3602 79.0987 90.1236 79.3947 89.8183 79.6056C89.1866 80.0364 88.4999 80.38 87.7765 80.6271C87.0959 80.9109 85.9048 81.1379 86.3586 80.3434C86.7556 79.6624 88.7974 78.6409 88.1735 76.4277C88.1168 76.3142 88.0601 76.0305 87.8899 76.0305C87.4929 76.0305 87.4362 76.9385 87.2093 77.3925C86.9257 78.0167 86.472 78.2437 86.2451 78.1869C86.0183 78.1302 86.3019 77.7329 86.472 76.9952C86.6989 75.9737 86.8123 75.009 86.9825 74.6118C87.1023 74.3777 87.2349 74.1504 87.3795 73.9308C87.6865 73.5721 87.9007 73.1433 88.0033 72.6823V70.9799C88.0033 70.1286 88.4004 69.5612 89.1944 69.5612C89.5402 69.5632 89.8686 69.7135 90.0963 69.9739C90.324 70.2343 90.4293 70.5799 90.3854 70.9231V72.3986C90.3597 73.0956 90.4754 73.7906 90.7257 74.4415C91.2362 75.8035 90.8959 77.4492 90.4989 78.7544Z" fill="#FAB9AF"/>
<path fill-rule="evenodd" clip-rule="evenodd" d="M93.4481 50.2102C93.4481 50.6074 93.4481 51.1749 93.3914 51.8559C93.1645 57.02 92.257 68.8804 92.2003 69.3344C92.1736 69.5225 92.0951 69.6993 91.9735 69.8452C91.6464 70.1555 91.2294 70.3542 90.7824 70.4127C90.6123 71.4341 90.4988 72.0584 90.4988 72.0584C90.0968 72.1968 89.6761 72.2734 89.2511 72.2854C88.8388 72.2732 88.4335 72.1766 88.06 72.0016V70.1857C87.516 69.9839 87.0562 69.6039 86.7555 69.1074C86.709 68.9805 86.6897 68.8451 86.6988 68.7102C86.7555 68.313 87.5496 51.5722 86.869 49.5292C86.4762 48.5636 86.0019 47.6334 85.451 46.7485C84.4302 44.9326 83.0122 42.5491 81.4809 40.109L82.3884 44.8191V44.9326L85.7346 61.9004C86.08 63.5419 85.3227 65.218 83.863 66.043C83.4093 66.27 82.9555 66.5538 82.3884 66.8375C76.4961 69.9025 69.7587 70.9396 63.2182 69.7884C62.2897 69.6278 61.3783 69.3808 60.4958 69.0507C59.2911 68.5938 58.5457 67.3817 58.6808 66.0998L59.0211 62.2409L59.7585 53.2746C58.9644 55.658 58.057 57.1903 57.0361 57.1903C51.4778 57.247 36.3912 49.0752 36.3912 49.0752C35.8241 47.543 36.9017 45.3298 37.639 44.3083C37.639 44.3083 53.1226 50.2669 53.5196 48.5645C54.8241 43.0599 57.8868 30.5185 59.8719 26.8865C60.4612 25.8425 61.324 24.9792 62.3674 24.3896C62.8026 23.8097 63.461 23.4391 64.1823 23.3681L77.7943 21.3252L77.851 21.4954C78.7728 21.5254 79.6471 21.9119 80.2898 22.5737C80.2331 22.4602 93.5048 40.2225 93.4481 50.2102Z" fill="#FF7070"/>
<path fill-rule="evenodd" clip-rule="evenodd" d="M33.8388 37.1294C33.8388 37.1294 35.0299 35.2567 35.3134 37.1294C35.5839 38.7794 35.9628 40.4097 36.4478 42.0098L33.8388 37.1294Z" fill="#FAB9AF"/>
<path fill-rule="evenodd" clip-rule="evenodd" d="M33.8389 43.1166C33.8389 43.1166 34.2926 40.9602 33.5553 40.5062C32.818 40.0522 32.5911 39.882 32.3642 39.4847C32.1374 39.0875 32.1941 37.7255 31.5135 37.1013C30.8329 36.4771 30.3792 36.7041 30.3792 36.7041C30.3792 36.7041 29.8687 38.293 30.7762 39.201C31.6836 40.109 32.5911 41.1304 32.6478 41.8682C32.7045 42.6059 33.7254 44.3084 33.8389 43.1166Z" fill="#FAB9AF"/>
<path fill-rule="evenodd" clip-rule="evenodd" d="M62.084 17.6365C62.5377 16.6717 63.5019 15.48 65.884 14.6288C67.7629 13.9141 69.7903 13.68 71.7825 13.9478C71.7825 13.9478 73.9945 14.1181 78.6452 13.2668C81.3676 12.7561 82.3318 14.9125 81.8213 17.523C81.7887 17.6143 81.7696 17.7099 81.7646 17.8067C81.2379 20.1628 79.891 22.2547 77.9646 23.7086C77.3488 24.162 76.6827 24.5429 75.9795 24.8435C72.5765 26.8865 69.1736 27.454 67.6422 26.319C67.2206 26.0083 66.8225 25.6669 66.4512 25.2975C65.0786 24.9043 63.8418 24.1383 62.878 23.0843C60.9497 20.7576 61.5168 18.4309 62.084 17.6365Z" fill="#FF7070"/>
<path fill-rule="evenodd" clip-rule="evenodd" d="M67.5286 25.2128C67.5286 25.2128 63.445 22.4889 65.2032 19.5947C66.9614 16.7006 74.9585 16.9276 75.4689 18.3463C75.9794 19.765 74.7316 24.0211 71.2719 25.2128H67.5286Z" fill="#D6495D"/>
<path fill-rule="evenodd" clip-rule="evenodd" d="M76.3194 6.40009C76.1859 7.81112 76.5688 9.22267 77.397 10.3725C78.7582 12.0749 76.7732 13.6072 76.3194 14.7421C75.8657 15.8771 76.4329 17.5796 75.1284 18.374C73.8239 19.1685 70.0806 19.3388 69.5134 17.9768C68.9463 16.6148 72.1224 5.60562 76.3194 6.40009Z" fill="#004396"/>
<path fill-rule="evenodd" clip-rule="evenodd" d="M61.2898 9.40803C61.063 16.8988 68.0391 18.3175 72.1227 18.3175C76.2063 18.3175 76.3197 9.35128 76.3197 6.11662C76.3197 2.88195 73.1436 2.37122 69.06 2.37122C65.8839 2.37122 62.8212 4.86815 61.6301 7.19484C61.3791 7.90472 61.2637 8.65548 61.2898 9.40803Z" fill="#004396"/>
<path fill-rule="evenodd" clip-rule="evenodd" d="M72.4063 16.0477C72.052 16.7508 71.8767 17.5305 71.8958 18.3177C71.8865 18.5273 71.9056 18.7373 71.9525 18.9419C71.9525 18.9986 72.0092 19.0554 72.0092 19.1121L72.7466 21.6091C73.0869 23.1413 72.7466 24.2195 72.0092 24.9005C71.5915 25.2841 71.0846 25.5572 70.5346 25.695C69.6833 25.9048 68.7833 25.7615 68.0391 25.2977C67.1883 24.7302 67.1316 23.5953 67.3018 22.5738L67.4719 21.8361C67.6279 21.3687 67.5738 20.8566 67.3236 20.4321C67.0734 20.0077 66.6517 19.7125 66.1674 19.6229C65.8278 19.5698 65.5009 19.4543 65.2033 19.2824C63.8988 18.5447 63.3883 17.0124 62.9346 14.7993C62.7644 14.0048 62.651 13.0968 62.4809 12.1321C62.3785 11.5132 62.3595 10.8833 62.4241 10.2594C62.8017 8.00507 64.4674 6.1829 66.6779 5.60599C67.4134 5.38211 68.1778 5.26739 68.9465 5.2655C71.1585 5.2655 72.3495 6.28698 72.9167 8.21643V8.27317C73.092 8.96426 73.2246 9.66548 73.3137 10.3729C73.3609 10.6922 73.3798 11.015 73.3704 11.3376V12.1888C73.3893 12.8396 73.3128 13.4896 73.1436 14.1183C73.0277 14.8039 72.7771 15.4596 72.4063 16.0477Z" fill="#FAB9AF"/>
<path fill-rule="evenodd" clip-rule="evenodd" d="M61.0061 3.27941L63.2747 4.18739C64.0121 4.41438 64.4091 4.07389 65.1464 3.90365L69.0031 2.76868C71.3285 2.76868 75.2419 4.07389 74.7315 7.4788L74.2777 9.86224C74.1179 10.8238 73.321 11.5508 72.3494 11.6214C72.2548 11.9521 71.9557 12.1823 71.6121 12.1889C71.2074 12.1828 70.8808 11.8561 70.8748 11.4512C70.8643 10.3667 70.115 9.42949 69.0598 9.18126C67.7553 8.89752 66.2807 9.692 64.8628 10.0892C60.9494 11.2242 59.418 8.27328 59.1344 5.49261V4.98187C59.093 4.48766 59.2838 4.00229 59.6505 3.66868C60.0173 3.33507 60.5183 3.1912 61.0061 3.27941Z" fill="#004396"/>
<path fill-rule="evenodd" clip-rule="evenodd" d="M71.7824 12.2459C71.7824 13.2673 72.1794 14.1186 73.1436 14.1186C74.1078 14.1186 74.7884 12.6999 74.7884 11.6784C74.7884 10.6569 74.1645 10.3732 73.1436 10.3732C72.1227 10.3732 71.7824 11.1676 71.7824 12.2459Z" fill="#FAB9AF"/>
<path fill-rule="evenodd" clip-rule="evenodd" d="M76.4331 9.69192C76.4331 9.69192 82.3883 12.2456 83.0689 10.8269C83.863 9.18118 76.8868 6.85449 76.8868 6.85449L76.4331 9.69192Z" fill="#C9F7F0"/>
<path fill-rule="evenodd" clip-rule="evenodd" d="M63.2748 4.24392L76.3764 9.69178C77.8163 6.1972 76.1706 2.19457 72.6898 0.725514L72.1793 0.49852C68.6869 -0.908216 64.7138 0.762951 63.2748 4.24392Z" fill="#00D9CD"/>
<path fill-rule="evenodd" clip-rule="evenodd" d="M61.5167 31.2618L59.8152 51.975L62.3675 30.7454L61.5167 31.2618Z" fill="#C63C53"/>
<path fill-rule="evenodd" clip-rule="evenodd" d="M81.4809 40.0015L79.4958 33.4187L85.5078 46.7546L81.4809 40.0015Z" fill="#C63C53"/>
<path fill-rule="evenodd" clip-rule="evenodd" d="M53.5195 48.457L55.4478 51.5158L53.009 48.7408L53.5195 48.457Z" fill="#EA5967"/>
<path fill-rule="evenodd" clip-rule="evenodd" d="M92.1434 69.6179C92.1434 69.6179 89.9881 70.6961 87.9464 70.0719C89.6478 70.6394 91.3493 70.7529 92.1434 69.6179Z" fill="#C63C53"/>
<path fill-rule="evenodd" clip-rule="evenodd" d="M37.0775 45.2167C37.0775 45.2167 36.7939 48.6216 37.9282 49.7566L36.4536 48.9621C36.4536 48.9621 35.824 47.4299 37.0775 45.2167Z" fill="#EA5967"/>
<path fill-rule="evenodd" clip-rule="evenodd" d="M85.7913 61.787C86.1367 63.4285 85.3794 65.1046 83.9197 65.9297C83.466 66.1567 83.0122 66.4404 82.4451 66.7241C85.1675 64.3407 82.6152 46.3514 82.4451 44.8192L85.7913 61.787Z" fill="#C63C53"/>
<path fill-rule="evenodd" clip-rule="evenodd" d="M63.3316 69.675C62.4032 69.5144 61.4917 69.2674 60.6092 68.9373C59.4045 68.4803 58.6591 67.2683 58.7943 65.9863L59.1346 62.1274C59.4181 64.1704 59.3047 68.0293 63.3316 69.675Z" fill="#C63C53"/>
<path opacity="0.7" fill-rule="evenodd" clip-rule="evenodd" d="M67.9824 25.2973C67.1316 24.7298 67.0749 23.5949 67.2451 22.5734L67.4152 21.8357C67.5712 21.3683 67.5171 20.8562 67.2669 20.4317C67.0167 20.0073 66.595 19.7121 66.1107 19.6225C65.7711 19.5694 65.4442 19.4539 65.1465 19.282C66.5297 19.718 67.9559 20.0034 69.4003 20.1332C68.3557 21.927 68.5131 24.1774 69.7973 25.8081C68.0958 25.8081 67.9824 25.2973 67.9824 25.2973Z" fill="#E59289"/>
<path opacity="0.7" fill-rule="evenodd" clip-rule="evenodd" d="M70.8182 10.8266C69.854 9.86185 67.5854 9.9186 65.3734 10.8266C64.4289 11.252 63.3651 11.3324 62.3674 11.0536C62.3438 10.8062 62.363 10.5567 62.4242 10.3158C63.2377 10.4783 64.0799 10.4195 64.863 10.1456C66.2809 9.69161 67.8122 8.95388 69.06 9.23762C69.8979 9.39469 70.5771 10.0085 70.8182 10.8266Z" fill="#E59289"/>
<path opacity="0.5" fill-rule="evenodd" clip-rule="evenodd" d="M90.4989 78.7543C90.3603 79.0986 90.1236 79.3946 89.8183 79.6055C90.1015 78.205 90.2346 76.7782 90.2153 75.3494C90.0452 73.8172 87.9467 73.0794 88.0034 71.9445C88.7692 72.304 89.6463 72.3449 90.4422 72.058V72.3984C90.4164 73.0954 90.5322 73.7904 90.7825 74.4414C91.2362 75.8034 90.8959 77.4491 90.4989 78.7543Z" fill="#E59289"/>
<path opacity="0.5" fill-rule="evenodd" clip-rule="evenodd" d="M37.4688 44.5071C36.8387 45.4219 36.4309 46.4712 36.2778 47.5716C34.9733 46.8338 33.5554 45.8691 32.9882 44.8476C31.8539 42.8047 30.3225 42.1237 29.5285 40.3645C29.6419 40.3645 29.8121 40.4213 29.9822 40.705C30.3225 41.3292 33.1584 45.0179 34.8599 45.2449C35.7973 45.4295 36.7666 45.1554 37.4688 44.5071Z" fill="#E59289"/>
<path fill-rule="evenodd" clip-rule="evenodd" d="M106.004 77.2626C106.004 76.6045 105.471 76.0709 104.813 76.0709C104.155 76.0709 103.622 76.6045 103.622 77.2626C103.619 77.6941 103.86 78.09 104.246 78.2841L104.813 114.376H104.756L105.323 78.2841C105.738 78.1161 106.008 77.7108 106.004 77.2626Z" fill="url(#paint1_linear)"/>
<path opacity="0.7" fill-rule="evenodd" clip-rule="evenodd" d="M128.577 24.8268V24.2594C128.579 24.1799 128.56 24.1014 128.52 24.0324C128.528 23.97 128.507 23.9075 128.463 23.8621C128.466 23.7827 128.446 23.7041 128.407 23.6351V23.4081C128.407 23.3514 128.35 23.2379 128.35 23.1811C128.35 23.1244 128.293 23.0676 128.293 23.0109C128.293 22.9541 128.237 22.8974 128.237 22.7839C128.237 22.6704 128.18 22.6704 128.18 22.5569V22.4718C128.18 22.415 128.123 22.415 128.123 22.3583C128.123 22.3015 128.066 22.2448 128.066 22.188C128.066 22.1313 128.01 22.0745 128.01 22.0178C127.953 21.961 127.953 21.9043 127.896 21.8475C127.84 21.7908 127.84 21.6773 127.783 21.6206V21.5071C127.726 21.4503 127.726 21.3936 127.669 21.3368C127.613 21.2801 127.613 21.2233 127.556 21.1098C127.499 20.9963 127.499 21.0531 127.499 20.9963V20.9396C127.443 20.8828 127.443 20.8261 127.386 20.7693C127.329 20.7126 127.272 20.5991 127.216 20.4856V20.4288C127.159 20.3153 127.045 20.2018 126.989 20.0883C126.932 19.9748 126.875 19.9181 126.819 19.8613L126.648 19.6911L126.478 19.5209L126.308 19.3506L126.251 19.2939L126.138 19.1804L125.968 19.0101L125.911 18.9534L125.854 18.8966L125.798 18.8399L125.628 18.6696L125.571 18.6129L125.514 18.5561L125.457 18.4994C125.401 18.4426 125.344 18.3859 125.287 18.3859C125.231 18.3859 125.174 18.3291 125.174 18.2724C125.117 18.2156 125.06 18.2156 125.004 18.1589C124.947 18.1021 124.89 18.1021 124.834 18.0454H124.777L101.466 4.53925C101.423 4.53325 101.383 4.51332 101.353 4.4825C101.296 4.42575 101.239 4.42575 101.183 4.36901C101.126 4.31226 101.126 4.31226 101.069 4.31226H101.013C100.956 4.31226 100.899 4.25551 100.842 4.25551C100.786 4.25551 100.729 4.19876 100.672 4.19876C100.616 4.19876 100.616 4.19876 100.559 4.14201C100.502 4.08526 100.445 4.08526 100.389 4.08526H100.219C100.156 4.09277 100.094 4.07195 100.048 4.02851H99.4813C99.4013 4.02002 99.3209 4.04013 99.2544 4.08526H99.1977C99.141 4.08526 99.0275 4.14201 98.9708 4.14201C98.8691 4.18586 98.7737 4.24311 98.6872 4.31226L96.7021 5.44723C96.8038 5.40338 96.8992 5.34612 96.9857 5.27698C97.0523 5.23185 97.1326 5.21174 97.2126 5.22023H97.2693C97.3827 5.22023 97.4395 5.16348 97.5529 5.16348H97.9499C98.0663 5.15454 98.183 5.17401 98.2902 5.22023H98.3469C98.4674 5.23199 98.5838 5.27078 98.6872 5.33373C98.8149 5.40074 98.9477 5.45766 99.0842 5.50398C99.2279 5.55774 99.362 5.63439 99.4813 5.73097L122.792 19.2371C122.937 19.3121 123.071 19.4077 123.189 19.5209C123.302 19.6344 123.416 19.6911 123.529 19.8046L123.586 19.8613C123.699 19.9748 123.813 20.0316 123.926 20.1451L123.983 20.2018L124.323 20.5423L124.38 20.5991C124.507 20.7191 124.621 20.8522 124.72 20.9963C124.834 21.1098 124.947 21.2801 125.06 21.3936C125.174 21.5071 125.231 21.6773 125.344 21.7908C125.457 21.9043 125.457 21.961 125.514 22.0745C125.574 22.1371 125.613 22.2162 125.628 22.3015C125.628 22.3583 125.684 22.3583 125.684 22.415C125.751 22.5526 125.826 22.6853 125.911 22.8123V22.869C125.968 23.0393 126.081 23.1528 126.138 23.323C126.195 23.4933 126.251 23.6068 126.308 23.777V23.8337C126.355 23.9884 126.412 24.1401 126.478 24.2877V24.3445C126.543 24.4879 126.581 24.6416 126.592 24.7985V24.8552C126.648 25.0255 126.648 25.1957 126.705 25.3092C126.705 25.4795 126.762 25.6497 126.762 25.7632V26.2739L126.705 53.116V53.6267C126.705 53.7402 126.648 53.8537 126.648 54.024V54.0807C126.637 54.2013 126.598 54.3177 126.535 54.4212V54.4779C126.478 54.5914 126.478 54.6482 126.422 54.7617V54.8184C126.378 54.9202 126.321 55.0156 126.251 55.1022C126.174 55.2291 126.079 55.3438 125.968 55.4427L125.911 55.4994C125.798 55.6129 125.684 55.6697 125.571 55.7832L127.556 54.6482C127.683 54.5709 127.797 54.4753 127.896 54.3644L127.953 54.3077C128.066 54.1942 128.123 54.0807 128.237 53.9672C128.293 53.8537 128.35 53.797 128.407 53.6835V53.6267C128.407 53.57 128.463 53.5132 128.463 53.4565C128.463 53.3997 128.463 53.3997 128.52 53.343V53.2295C128.52 53.1727 128.577 53.116 128.577 53.0025V52.8322C128.569 52.7699 128.59 52.7074 128.634 52.662V52.0945L128.69 25.2525C128.621 25.121 128.582 24.9755 128.577 24.8268Z" fill="white"/>
<g opacity="0.4">
<path fill-rule="evenodd" clip-rule="evenodd" d="M122.565 19.2656C124.777 20.5709 126.592 23.6353 126.592 26.189L126.535 53.031C126.535 55.5847 124.72 56.6062 122.508 55.3577L99.1977 41.8515C96.9857 40.5463 95.1708 37.4819 95.1708 34.9282L95.2275 8.08618C95.2275 5.5325 97.0424 4.51103 99.2544 5.75949L122.565 19.2656Z" fill="white"/>
</g>
<path opacity="0.4" fill-rule="evenodd" clip-rule="evenodd" d="M115.986 69.7154C109.123 66.9348 101.126 64.8918 92.5618 63.5299V63.8704C100.385 65.027 108.052 67.064 115.419 69.9424C141.735 80.6112 141.848 97.9762 115.702 108.645C89.5558 119.314 46.9049 119.314 20.5885 108.645C-5.72801 97.9762 -5.84144 80.6112 20.3049 69.9424C30.9676 65.5728 44.4094 63.0191 58.3617 62.2246V61.8842C44.1825 62.6786 30.5706 65.2891 19.7377 69.7154C-6.69219 80.4977 -6.57875 98.0897 20.078 108.872C46.7348 119.654 89.8394 119.654 116.326 108.872C142.813 98.0897 142.586 80.4977 115.986 69.7154Z" fill="white"/>
<path opacity="0.4" fill-rule="evenodd" clip-rule="evenodd" d="M106.457 91.3931C100.279 88.989 93.8477 87.2946 87.2872 86.3425V86.6262C93.7091 87.5674 100.006 89.2234 106.06 91.5633C127.102 100.132 127.216 113.979 106.287 122.548C85.3588 131.117 51.1588 131.117 30.1169 122.548C9.07508 113.979 8.96164 100.076 29.89 91.5633C36.9796 88.6691 45.5438 86.7964 54.6185 85.8317L54.6752 85.548C45.4304 86.5127 36.6393 88.4421 29.4363 91.3363C8.28104 99.9621 8.39448 114.036 29.6632 122.718C50.9319 131.401 85.5857 131.344 106.741 122.718C127.896 114.092 127.783 100.019 106.457 91.3931Z" fill="white"/>
<g opacity="0.7">
<path fill-rule="evenodd" clip-rule="evenodd" d="M111.392 32.772L110.428 33.3394H110.314C110.257 33.3394 110.201 33.3394 110.201 33.2827C110.14 33.2774 110.093 33.2296 110.087 33.1692C110.031 33.1125 110.031 33.0557 109.974 32.999L106.06 26.1891C106.017 26.1437 105.996 26.0813 106.004 26.0189V25.877V25.7635C106.004 25.7068 106.06 25.7068 106.06 25.65L104.869 26.331L104.813 26.3878L108.726 33.1976C108.726 33.2126 108.732 33.2271 108.743 33.2377C108.753 33.2483 108.768 33.2543 108.783 33.2543V33.3111L109.747 32.7436L115.305 29.5657L116.496 28.8847L111.392 32.772Z" fill="white"/>
<path fill-rule="evenodd" clip-rule="evenodd" d="M120.013 33.9071V32.9423C120.013 32.7721 119.956 32.6586 119.956 32.4883C119.956 32.3181 119.899 32.2046 119.899 32.0344C119.899 31.8641 119.842 31.7506 119.842 31.5804C119.842 31.4101 119.786 31.2399 119.729 31.1264C119.737 31.064 119.716 31.0015 119.672 30.9561V30.8426C119.672 30.7859 119.616 30.7291 119.616 30.6156C119.616 30.5021 119.559 30.2752 119.502 30.1049C119.445 29.9347 119.445 29.8779 119.389 29.7644V29.6509C119.341 29.4962 119.285 29.3446 119.219 29.1969C119.162 29.0267 119.105 28.9132 119.048 28.7429C119.048 28.6862 119.048 28.6862 118.992 28.6294V28.5727C118.935 28.4592 118.935 28.4025 118.878 28.289C118.822 28.1755 118.765 28.0052 118.708 27.835C118.645 27.7314 118.606 27.6151 118.595 27.4945V27.381C118.542 27.2192 118.466 27.0661 118.368 26.927C118.311 26.7567 118.198 26.5865 118.141 26.4163C118.141 26.4012 118.135 26.3868 118.124 26.3761C118.114 26.3655 118.099 26.3595 118.084 26.3595C118.084 26.3028 118.028 26.3028 118.028 26.246C118.028 26.1893 117.914 25.9623 117.857 25.8488C117.797 25.6785 117.7 25.5236 117.574 25.3948C117.514 25.3322 117.475 25.2531 117.46 25.1678C117.46 25.111 117.404 25.111 117.404 25.0543C117.404 24.9975 117.233 24.7705 117.177 24.657C117.12 24.5436 116.95 24.2598 116.836 24.0896C116.836 24.0328 116.78 24.0328 116.78 23.9761C116.61 23.6923 116.383 23.4086 116.213 23.1248C116.099 22.9546 115.929 22.7843 115.816 22.6141C115.717 22.47 115.602 22.3368 115.475 22.2169C115.362 22.1034 115.248 21.9331 115.135 21.8196C115.022 21.7061 114.908 21.5359 114.795 21.4224L114.738 21.3656L114.681 21.3089C114.625 21.1954 114.511 21.1386 114.454 21.0251L114.057 20.6279L113.944 20.5144C113.887 20.5144 113.887 20.4577 113.83 20.4577L113.66 20.2874C113.547 20.1739 113.377 20.0604 113.263 19.9469L113.093 19.7767C113.036 19.7767 113.036 19.7199 112.98 19.7199C112.923 19.7199 112.866 19.6632 112.866 19.6064C112.748 19.4933 112.615 19.3977 112.469 19.3227C112.362 19.265 112.266 19.1881 112.186 19.0957C112.148 19.0579 112.11 19.0201 112.072 18.9823C111.959 18.8688 111.789 18.812 111.675 18.6985C111.562 18.585 111.392 18.5283 111.278 18.4715C111.165 18.4148 111.222 18.4148 111.165 18.4148C111.108 18.4148 110.995 18.3013 110.881 18.2445C110.754 18.1775 110.621 18.1206 110.484 18.0743C110.428 18.0175 110.314 18.0175 110.257 17.9608H110.201C110.169 17.9608 110.144 17.9354 110.144 17.904L109.804 17.7338C109.683 17.6628 109.546 17.6237 109.407 17.6203H109.293C109.236 17.6203 109.123 17.5635 109.066 17.5635C108.936 17.5182 108.804 17.4803 108.669 17.45C108.607 17.4576 108.545 17.4367 108.499 17.3933H108.329C108.216 17.3933 108.045 17.3365 107.932 17.3365H106.628C106.457 17.3365 106.287 17.3933 106.117 17.3933C106.06 17.3933 106.06 17.3933 106.004 17.45C105.826 17.4809 105.654 17.5383 105.493 17.6203H105.436C105.405 17.6203 105.38 17.6457 105.38 17.677C105.162 17.7478 104.952 17.843 104.756 17.9608L103.565 18.6418C103.756 18.5136 103.967 18.4178 104.189 18.358C104.22 18.358 104.245 18.3326 104.245 18.3013C104.416 18.2445 104.642 18.1878 104.813 18.131C104.869 18.131 104.869 18.131 104.926 18.0743C105.153 18.0175 105.38 18.0175 105.607 17.9608H106.514C106.763 17.9708 107.011 18.0088 107.251 18.0743H107.308C107.58 18.1235 107.846 18.1996 108.102 18.3013H108.159L109.01 18.6418H109.066C109.38 18.7702 109.683 18.9219 109.974 19.0958C110.257 19.266 110.598 19.493 110.881 19.6632C110.913 19.6632 110.938 19.6886 110.938 19.72C111.235 19.9094 111.519 20.1179 111.789 20.3442C111.845 20.3442 111.845 20.401 111.902 20.401C112.186 20.628 112.413 20.855 112.696 21.0819C112.753 21.0819 112.753 21.1387 112.81 21.1387C113.072 21.3792 113.32 21.635 113.553 21.9047L113.609 21.9615C113.893 22.2452 114.12 22.529 114.403 22.8127C114.68 23.1094 114.927 23.4325 115.141 23.7774C115.368 24.0665 115.576 24.3698 115.765 24.6854C115.878 24.8557 115.991 25.0827 116.105 25.2529C116.221 25.4104 116.316 25.582 116.388 25.7636C116.448 25.8262 116.488 25.9053 116.502 25.9906C116.675 26.2622 116.827 26.5468 116.956 26.8419C116.956 26.8986 117.012 26.8986 117.012 26.9554C117.182 27.2959 117.353 27.6363 117.523 28.0336V28.0903C117.693 28.4308 117.806 28.7713 117.976 29.1686V29.2253C118.116 29.5761 118.229 29.9364 118.317 30.3035V30.3603C118.445 30.7101 118.54 31.071 118.6 31.4385V31.552C118.657 31.8925 118.77 32.2897 118.827 32.6302C118.893 32.9861 118.931 33.3466 118.941 33.7084V33.8219C118.941 34.1624 118.997 34.5597 118.997 34.9002C119.007 35.2416 118.988 35.5833 118.941 35.9216V36.0351C118.884 36.3189 118.884 36.6026 118.827 36.8864V36.9998C118.77 37.2836 118.714 37.5106 118.657 37.7376C118.651 37.7806 118.631 37.8205 118.6 37.8511C118.53 38.0875 118.435 38.3158 118.317 38.5321C118.317 38.5634 118.291 38.5888 118.26 38.5888L117.92 39.2698L117.863 39.3265C117.763 39.4878 117.65 39.6398 117.523 39.7805C117.466 39.8373 117.409 39.894 117.409 39.9508L117.069 40.2913C117.012 40.348 116.956 40.4048 116.899 40.4048C116.742 40.5375 116.571 40.6518 116.388 40.7453L117.579 40.0643L118.09 39.7238C118.147 39.667 118.203 39.667 118.26 39.6103L118.6 39.2698C118.657 39.213 118.714 39.1563 118.714 39.0995C118.827 38.9293 118.941 38.8158 119.054 38.6456L119.111 38.5888C119.236 38.3874 119.35 38.179 119.451 37.9646C119.451 37.9495 119.457 37.9351 119.468 37.9244C119.478 37.9138 119.493 37.9078 119.508 37.9078C119.574 37.7602 119.631 37.6085 119.678 37.4538C119.678 37.3971 119.735 37.2836 119.735 37.2268C119.741 37.1838 119.761 37.144 119.791 37.1133C119.791 37.0566 119.791 37.0566 119.848 36.9998C119.912 36.8564 119.951 36.7027 119.962 36.5459C119.954 36.4835 119.975 36.421 120.018 36.3756V36.2621C120.011 36.1997 120.032 36.1373 120.075 36.0919C120.075 35.9216 120.132 35.8081 120.132 35.6379V34.2759C120.033 34.1803 119.989 34.0422 120.013 33.9071Z" fill="white"/>
</g>
<path fill-rule="evenodd" clip-rule="evenodd" d="M118.822 34.9851C118.822 29.14 114.738 22.0464 109.69 19.1523C104.643 16.2581 100.502 18.528 100.502 24.3731C100.502 30.2182 104.586 37.255 109.634 40.206C114.682 43.1569 118.822 40.8302 118.822 34.9851ZM115.759 29.7647C115.929 29.9917 115.873 30.2755 115.759 30.3322L110.144 33.5101L109.18 34.0776C109.094 34.135 108.982 34.135 108.896 34.0776C108.776 34.0134 108.677 33.9146 108.613 33.7939L104.699 26.9841C104.529 26.7571 104.586 26.4733 104.699 26.4166L105.38 26.0193C105.466 25.962 105.578 25.962 105.664 26.0193C105.784 26.0836 105.883 26.1824 105.947 26.3031L108.67 31.0132C108.71 31.0534 108.743 31.1007 108.774 31.1451C108.83 31.226 108.88 31.297 108.953 31.297C108.993 31.297 109.033 31.3041 109.071 31.3108C109.14 31.3229 109.2 31.3336 109.237 31.297L114.511 28.2893C114.597 28.2319 114.709 28.2319 114.795 28.2893C114.916 28.3535 115.014 28.4523 115.078 28.573L115.759 29.7647Z" fill="#00D9CD"/>
<defs>
<linearGradient id="paint0_linear" x1="54.0326" y1="67.7739" x2="54.0326" y2="132.183" gradientUnits="userSpaceOnUse">
<stop stop-color="#585491"/>
<stop offset="0.307292" stop-color="#492D77"/>
<stop offset="0.578125" stop-color="#6669C4"/>
<stop offset="0.85" stop-color="#8E91F4"/>
<stop offset="1" stop-color="#8E91F4"/>
</linearGradient>
<linearGradient id="paint1_linear" x1="106.073" y1="116.623" x2="106.073" y2="76.0936" gradientUnits="userSpaceOnUse">
<stop stop-color="white" stop-opacity="0.01"/>
<stop offset="1" stop-color="white" stop-opacity="0.8"/>
</linearGradient>
</defs>
</svg>
