<svg width="205" height="95" viewBox="0 0 205 95" fill="none" xmlns="http://www.w3.org/2000/svg">
<path d="M110.898 65.9315V60.3955L122.278 57.3199L129.351 55.4746L128.429 64.0862L110.898 65.9315Z" fill="#152C4A"/>
<path fill-rule="evenodd" clip-rule="evenodd" d="M35.9805 42.6959L36.009 33.8247L13.0959 37.8649L13.118 75.0247L36.2886 70.9391L36.2565 62.0255L22.3541 64.4768L22.3458 59.0099L34.7035 56.8309L34.7592 48.1142L22.2986 50.3113L22.3356 45.1019L35.9805 42.6959ZM38.5088 62.1062C39.1915 63.5571 40.0855 64.7901 41.191 65.805C42.1025 66.6418 43.1577 67.3303 44.3566 67.8707C47.0035 69.0321 50.2493 69.2738 54.0939 68.5959C58.1102 67.8878 61.2683 66.4283 63.5685 64.2177C64.428 63.3766 65.1277 62.4469 65.6678 61.4287C66.5694 59.729 67.0259 57.7825 67.0376 55.5892C67.0137 53.6468 66.6918 52.0223 66.0721 50.7158C65.9476 50.4489 65.8105 50.1947 65.661 49.9533C65.0594 48.9817 64.2556 48.2161 63.2497 47.6564C62.4286 47.1619 61.6404 46.7646 60.8852 46.4643C60.5114 46.3158 60.1457 46.191 59.7881 46.09C58.7079 45.785 57.3298 45.497 55.654 45.2262C55.4459 45.1925 55.2435 45.1587 55.0466 45.1249C52.9671 44.7675 51.5068 44.4043 50.6658 44.0352C49.739 43.5969 49.303 42.9306 49.3576 42.0361C49.3942 40.4369 50.4938 39.4466 52.6563 39.0653C54.6349 38.7165 56.3232 39.2242 57.7212 40.5884C57.8197 40.6846 57.9167 40.7849 58.0124 40.8895C58.2784 41.1807 58.5333 41.5047 58.7771 41.8617L65.9106 36.2504C65.8261 36.1114 65.7401 35.9747 65.6526 35.8403C65.0849 34.9682 64.4535 34.1929 63.7584 33.5144C63.4051 33.1695 63.0355 32.8497 62.6493 32.5549C61.8385 31.9358 60.9551 31.4268 59.9992 31.028C57.5824 29.9676 54.8636 29.7037 51.8428 30.2364C48.3415 30.8538 45.467 32.3162 43.2193 34.6238C42.2327 35.6318 41.4651 36.7515 40.9166 37.9829C40.2817 39.4083 39.9403 40.9835 39.8924 42.7085C39.8886 42.8454 39.8866 42.9833 39.8865 43.1221C39.8899 44.5479 40.078 45.8087 40.4511 46.9044C40.9296 48.3101 41.7123 49.4442 42.7992 50.3067C43.3017 50.7055 43.8519 51.0696 44.4496 51.399C45.9412 52.2208 47.7292 52.8268 49.8139 53.2169C50.1096 53.2722 50.4113 53.3232 50.719 53.3699C53.0834 53.7316 54.415 53.957 54.7138 54.0459C56.632 54.4863 57.5879 55.2911 57.5817 56.4602C57.5633 58.1623 56.1467 59.2616 53.3319 59.7579C50.8901 60.1885 48.9404 59.7532 47.4828 58.4521C47.1808 58.1826 46.9 57.876 46.6403 57.5322C46.3912 57.2024 46.1615 56.8385 45.9513 56.4404L38.5088 62.1062ZM40.2813 54.5722L39.6357 55.0637L39.642 54.0826C39.6746 54.1089 39.7074 54.1352 39.7403 54.1614C39.9178 54.3022 40.0981 54.4391 40.2813 54.5722ZM40.9422 30.0157L40.9488 27.9568L8.17255 33.7362L8.20057 80.8886L41.2243 75.0656L41.2126 71.8035C41.5767 71.9994 41.9508 72.184 42.3346 72.357L42.3569 72.3671L42.3794 72.3769C46.1781 74.0436 50.4743 74.231 54.9484 73.4421C59.0388 72.7208 62.6995 71.2748 65.6723 68.9083L65.6797 81.3717L84.0703 78.1289L84.0579 67.7918C85.3365 67.8796 86.6546 67.7983 87.9904 67.5628C92.8518 66.7056 96.8277 64.2045 99.5953 60.1407C100.078 59.4394 100.515 58.7196 100.906 57.9825C102.208 59.3093 103.743 60.4037 105.472 61.2677L105.514 61.2889L105.557 61.3093C108.913 62.906 112.577 63.2275 116.322 62.5671C120.662 61.8018 124.4 59.9017 127.361 56.8704L127.362 59.8772L145.755 56.634L145.734 41.4778L145.775 41.4766C145.765 40.1337 146.118 39.8107 146.263 39.6927C147.075 39.0558 147.879 38.7729 148.803 38.7405L149.639 38.7111L149.641 39.9045L149.641 39.9095C149.66 44.713 151.02 49.679 155.576 52.2684L155.598 52.281L155.621 52.2933C159.785 54.6038 165.035 53.8968 170.003 52.3138L173.44 51.2185L173.436 49.9275C173.617 49.9987 173.801 50.0667 173.987 50.1314C177.067 51.2048 180.422 51.2646 183.845 50.661C187.458 50.024 190.718 48.6549 193.405 46.3884C196.526 43.7562 198.019 40.1642 198.041 36.1444L198.041 36.1082L198.041 36.072C198.02 33.8141 197.579 31.5204 196.384 29.4883C195.817 28.4787 195.097 27.5375 194.204 26.7456L199.081 23.2355L196.416 19.2793C194.65 16.657 192.186 14.8163 189.187 13.8385C186.331 12.858 183.321 12.7278 180.277 13.2644C177.805 13.7003 175.516 14.5656 173.452 15.8608L173.456 15.2105L168.027 16.1677L168.048 6.72376L149.636 15.6819L149.632 18.8804L147.701 19.2208C146.328 19.463 145.017 19.8681 143.788 20.4418L127.351 23.3401L127.352 28.5677C123.476 25.1865 118.652 24.1307 113.475 25.0434C108.283 25.9589 103.905 28.3578 100.724 32.3765L100.715 32.3884L100.705 32.4004C100.067 33.2169 99.4938 34.06 98.9866 34.9281C98.782 34.6973 98.57 34.4704 98.3506 34.2475C94.7758 30.5419 90.1482 29.1566 85.0919 30.0482C83.3911 30.3481 81.8017 30.8736 80.35 31.6276L69.9697 33.4579C68.0032 30.3181 65.3216 27.9268 61.9351 26.5038C58.503 25.0085 54.7915 24.7196 50.9883 25.3902C47.1638 26.0646 43.7628 27.5843 40.9422 30.0157ZM70.575 38.348L70.5971 75.5078L79.1445 74.0007L79.1282 60.3592C80.4555 61.8144 82.0968 62.6466 84.0521 62.8555C85.0054 62.9573 86.0333 62.9111 87.1359 62.7166C90.7402 62.0811 93.54 60.2955 95.5354 57.3599C96.4508 56.0333 97.1561 54.6177 97.6513 53.1132C98.2542 51.2816 98.5459 49.3183 98.5262 47.2231C98.5174 46.586 98.4775 45.9684 98.4064 45.3703C98.406 45.367 98.4056 45.3637 98.4052 45.3604C98.1785 43.4634 97.638 41.7629 96.7837 40.259C96.2525 39.324 95.6001 38.465 94.8264 37.682C92.4421 35.2001 89.4821 34.2709 85.9464 34.8943C85.2752 35.0127 84.6382 35.1765 84.0354 35.3858C83.021 35.7381 82.1035 36.2192 81.283 36.8291C80.6002 37.3367 79.9845 37.9335 79.436 38.6196C79.333 38.7484 79.2324 38.8804 79.1342 39.0155L79.1224 36.8408L70.575 38.348ZM79.1418 49.8978L79.1023 50.2764C79.1526 51.9665 79.6774 53.2366 80.6768 54.0868C81.6761 54.937 82.9653 55.2229 84.5444 54.9445C86.1577 54.66 87.4602 53.9171 88.4518 52.7159C89.4373 51.4803 89.9161 49.9801 89.888 48.2153C89.8943 46.4445 89.415 45.131 88.4499 44.2747C87.4788 43.3841 86.1866 43.0811 84.5732 43.3655C82.9942 43.644 81.7089 44.3838 80.7173 45.5851C79.7197 46.752 79.1945 48.1896 79.1418 49.8978ZM84.062 50.0041C84.3254 49.911 84.4872 49.7809 84.6295 49.6156C84.8059 49.3839 84.9709 49.0427 84.9683 48.3479C84.7815 48.4359 84.6457 48.556 84.5123 48.7177L84.4853 48.7504L84.4577 48.7828C84.2749 48.9966 84.0906 49.313 84.062 50.0041ZM65.6567 42.711L65.18 43.086C65.3396 43.1761 65.4986 43.2682 65.6571 43.3623L65.6567 42.711ZM102.056 39.8837C101.403 41.6212 101.061 43.4603 101.031 45.401C101.024 46.0092 101.052 46.6047 101.115 47.1874C101.115 47.1912 101.115 47.195 101.116 47.1988C101.306 48.9567 101.815 50.5988 102.642 52.1251C102.724 52.2765 102.809 52.4253 102.897 52.5717C103.996 54.3931 105.588 55.8245 107.672 56.8658C109.951 57.9504 112.55 58.2355 115.468 57.721C119.449 57.0189 122.624 55.1496 124.991 52.1131C125.991 50.8293 126.781 49.4942 127.358 48.1079C128.147 46.2151 128.542 44.2268 128.542 42.1429C128.544 40.0786 128.149 38.2001 127.355 36.5074C126.692 35.0941 125.751 33.8104 124.533 32.6563C121.85 30.0855 118.449 29.1633 114.33 29.8896C110.176 30.622 106.927 32.4691 104.582 35.4308C103.487 36.8325 102.644 38.3168 102.056 39.8837ZM132.277 42.1434L132.277 42.1474L132.281 54.013L140.828 52.5059L140.813 41.5136L140.813 41.5118L140.812 40.6695L140.854 41.5115C140.852 41.2226 140.861 40.9419 140.88 40.6694C140.88 40.6683 140.88 40.6672 140.88 40.6661C140.883 40.6264 140.886 40.5868 140.889 40.5475C141.057 38.5123 141.827 36.9438 143.199 35.842C144.006 35.2047 144.862 34.7178 145.766 34.3813C146.672 34.0441 147.627 33.8578 148.63 33.8226L148.556 24.0669C148.303 24.1116 148.054 24.1636 147.811 24.2231C147.087 24.3999 146.405 24.6425 145.764 24.9507C145.758 24.9537 145.752 24.9566 145.745 24.9596C145.159 25.2432 144.607 25.5821 144.089 25.9762C143.941 26.0895 143.795 26.2073 143.652 26.3297C143.635 26.3445 143.618 26.3593 143.6 26.3742C142.658 27.1658 141.924 28.1247 141.4 29.2511C141.153 29.7823 140.952 30.3507 140.798 30.9563L140.82 25.9619L132.273 27.469L132.277 42.1434ZM154.562 39.8908C154.578 43.9938 155.726 46.6936 158.008 47.9902C160.283 49.2525 163.783 49.1308 168.508 47.6252L168.485 39.6656C166.519 40.154 165.133 40.3274 164.33 40.186C164.231 40.1685 164.137 40.1429 164.051 40.1093C163.859 40.0351 163.697 39.9216 163.565 39.7688C163.271 39.4293 163.125 38.896 163.125 38.1686L163.095 30.4756L168.45 29.5314L168.5 21.0811L163.094 22.0344L163.11 14.5988L154.553 18.7622L154.546 23.5416L150.684 24.2225L150.686 32.6637L154.548 31.9827L154.562 39.8908ZM168.032 34.6019L168.032 34.7077L168.321 34.6362C168.305 34.6107 168.289 34.5851 168.273 34.5595L168.032 34.6019ZM170.546 41.479C170.722 41.7427 170.905 41.9951 171.095 42.2364C171.778 43.1035 172.553 43.8256 173.42 44.4027C173.682 44.5769 173.952 44.738 174.231 44.8858C176.563 46.1236 179.483 46.4333 182.991 45.8149C185.908 45.3004 188.322 44.2376 190.233 42.6266C192.143 41.0156 193.106 38.8461 193.12 36.1182C193.104 34.4221 192.77 33.0298 192.118 31.9414C191.555 30.9223 190.843 30.2035 189.982 29.7851C189.889 29.74 189.795 29.6985 189.698 29.6604C188.922 29.3367 188.086 29.0818 187.193 28.8957C186.988 28.8531 186.781 28.814 186.57 28.7786C185.843 28.6353 185.153 28.536 184.5 28.481C184.131 28.4499 183.774 28.4328 183.429 28.4299C183.314 28.4289 183.202 28.4262 183.092 28.4219C182.922 28.4153 182.758 28.4047 182.6 28.3902C182.565 28.387 182.53 28.3836 182.495 28.38C181.939 28.3222 181.449 28.2146 181.027 28.057C180.377 27.7823 180.055 27.3613 180.061 26.7939C180.092 25.7621 180.765 25.1655 182.082 25.0042C182.112 24.9996 182.142 24.9953 182.171 24.9914C182.225 24.9843 182.278 24.9783 182.33 24.9733C182.729 24.9357 183.105 24.9584 183.458 25.0415C183.96 25.1595 184.416 25.399 184.826 25.7603C184.973 25.8898 185.114 26.035 185.25 26.1959C185.405 26.38 185.552 26.5847 185.692 26.8098L192.334 22.0283C192.221 21.8603 192.104 21.6975 191.983 21.5398C191.037 20.3101 189.845 19.3944 188.406 18.793C188.153 18.6874 187.893 18.5915 187.625 18.5052C185.665 17.8245 183.5 17.6929 181.132 18.1106C178.523 18.5706 176.252 19.6435 174.32 21.3292C173.989 21.6171 173.688 21.9191 173.414 22.2352C172.087 23.77 171.426 25.6375 171.432 27.8376C171.438 28.4467 171.487 29.0174 171.581 29.5498C171.779 30.6851 172.177 31.646 172.773 32.4324C172.958 32.6602 173.151 32.8726 173.351 33.0696C173.409 33.1275 173.469 33.1841 173.529 33.2394C174.265 33.916 175.101 34.3932 176.035 34.6711C176.06 34.6779 176.085 34.6846 176.11 34.6913C177.192 34.9818 178.274 35.1946 179.355 35.3297C179.511 35.3492 179.667 35.3671 179.824 35.3834C179.857 35.3866 179.891 35.3899 179.924 35.3932C180.555 35.4561 181.137 35.5319 181.671 35.6206C182.196 35.7079 182.674 35.8077 183.104 35.9199C184.023 36.1119 184.476 36.4744 184.464 37.0075C184.471 37.7911 183.83 38.3264 182.541 38.6133C182.493 38.6241 182.443 38.6345 182.393 38.6446C182.333 38.6566 182.272 38.668 182.21 38.679C181.342 38.8321 180.559 38.7967 179.862 38.5728C179.748 38.5363 179.637 38.4948 179.527 38.4483C179.52 38.4452 179.513 38.4421 179.506 38.439C178.955 38.2004 178.463 37.8336 178.029 37.3388C177.811 37.0907 177.607 36.8103 177.419 36.4976L170.546 41.479ZM111.023 48.4706C110.092 47.6082 109.625 46.3634 109.621 44.7359C109.617 43.1084 110.094 41.6971 111.051 40.5019C112.008 39.3067 113.225 38.5789 114.701 38.3187C116.211 38.0523 117.432 38.3503 118.363 39.2127C119.328 40.0689 119.812 41.3108 119.816 42.9382C119.82 44.5657 119.343 45.977 118.386 47.1722C117.428 48.3675 116.195 49.0982 114.684 49.3645C113.208 49.6248 111.988 49.3268 111.023 48.4706Z" fill="#152C4A"/>
<path d="M108.809 63.7941L108.822 84.7989L103.641 85.7124L103.622 74.372L98.6952 83.7035L98.1713 83.7959L93.2349 76.0534L93.2504 87.5445L88.0406 88.4631L88.0282 67.4584L93.238 66.5397L98.1058 74.7444L103.279 64.7692L108.809 63.7941Z" fill="white"/>
<path d="M122.124 67.4484L126.955 66.5965L126.96 81.6006L122.128 82.4525L122.132 81.2815C121.188 82.5083 119.862 83.2723 118.155 83.5734C116.078 83.9394 114.397 83.4256 113.111 82.0318C111.844 80.6347 111.199 78.8478 111.176 76.6712C111.143 74.5563 111.706 72.6464 112.866 70.9414C114.023 69.2169 115.649 68.17 117.744 67.8005C119.607 67.472 121.064 67.9054 122.115 69.1005L122.124 67.4484ZM116.885 78.2454C117.434 78.7488 118.164 78.9201 119.076 78.7593C119.988 78.5985 120.724 78.1786 121.285 77.4996C121.845 76.8205 122.131 75.9999 122.141 75.0378L122.126 74.9505C122.114 73.9723 121.833 73.2316 121.284 72.7282C120.735 72.2248 119.995 72.0552 119.064 72.2194C118.152 72.3802 117.417 72.8098 116.86 73.5082C116.303 74.2067 116.031 75.0449 116.043 76.0231C116.055 77.0012 116.336 77.742 116.885 78.2454Z" fill="white"/>
<path d="M135.743 80.4721C132.522 81.04 130.177 80.2231 128.709 78.0212L132.593 75.2055C133.215 76.2362 134.118 76.6472 135.302 76.4385C136.155 76.288 136.58 75.973 136.576 75.4936C136.583 75.1923 136.326 74.9874 135.807 74.8789C135.304 74.7476 134.686 74.6465 133.953 74.5756C133.24 74.5013 132.526 74.3671 131.811 74.173C131.093 73.9595 130.479 73.5377 129.968 72.9076C129.472 72.2547 129.22 71.3889 129.21 70.3103C129.205 68.8106 129.749 67.5843 130.842 66.6314C131.934 65.6786 133.218 65.0721 134.692 64.8121C136.031 64.576 137.255 64.6504 138.363 65.0352C139.487 65.3971 140.374 66.0609 141.025 67.0266L137.27 69.7294C136.767 68.9178 136.086 68.5776 135.229 68.7087C134.485 68.7999 134.104 69.1371 134.087 69.7204C134.084 70.0411 134.266 70.2791 134.633 70.4344C134.997 70.5702 135.45 70.6405 135.991 70.6451C136.532 70.6498 137.124 70.7155 137.766 70.8422C138.405 70.9496 138.995 71.1158 139.535 71.3407C140.094 71.5622 140.55 71.992 140.902 72.63C141.271 73.2453 141.46 74.0323 141.469 74.991C141.46 76.5329 140.916 77.7592 139.837 78.6699C138.757 79.5805 137.392 80.1813 135.743 80.4721Z" fill="white"/>
<path d="M148.685 67.5365L148.702 71.885C148.701 72.5653 148.928 72.9454 149.383 73.0253C149.837 73.1053 150.62 73.0072 151.732 72.7312L151.745 77.2304C149.074 78.0814 147.095 78.1502 145.809 77.4367C144.52 76.7038 143.87 75.1777 143.861 72.8585L143.854 68.3884L141.671 68.7733L141.67 64.0019L143.853 63.617L143.856 60.9154L148.693 58.5621L148.684 62.7651L151.74 62.2262L151.712 67.0028L148.685 67.5365Z" fill="white"/>
<path d="M160.368 60.2847C162.561 59.8981 164.41 60.3423 165.915 61.6174C167.417 62.8731 168.162 64.6023 168.15 66.8051C168.175 67.4009 168.117 68.0315 167.974 68.6969L157.991 70.4571C158.471 71.5929 159.507 72.0204 161.098 71.7399C162.262 71.5346 163.161 71.016 163.795 70.184L167.377 72.4632C165.967 74.3326 163.99 75.4913 161.448 75.9395C158.926 76.3843 156.889 75.9531 155.338 74.6461C153.807 73.3356 153.027 71.5225 152.999 69.2067C152.972 67.0107 153.65 65.0705 155.033 63.3861C156.417 61.7017 158.195 60.6679 160.368 60.2847ZM157.978 66.9783L163.478 66.0084C163.145 64.6866 162.261 64.1524 160.825 64.4056C159.389 64.6587 158.44 65.5163 157.978 66.9783Z" fill="white"/>
<path d="M174.964 60.9522C175.236 59.8839 175.764 59.0206 176.548 58.3621C177.329 57.6843 178.262 57.2495 179.349 57.0579L179.391 62.5724C178.258 62.6122 177.234 62.9926 176.321 63.7139C175.427 64.4316 174.985 65.4999 174.996 66.9186L174.972 66.4426L174.981 73.1332L170.15 73.9851L170.145 58.981L174.976 58.1291L174.964 60.9522Z" fill="white"/>
<path d="M187.131 71.4109C183.91 71.9788 181.566 71.1619 180.097 68.96L183.982 66.1443C184.604 67.175 185.507 67.586 186.69 67.3773C187.544 67.2268 187.969 66.9118 187.964 66.4324C187.971 66.1311 187.715 65.9262 187.196 65.8177C186.692 65.6864 186.074 65.5853 185.341 65.5144C184.628 65.4402 183.914 65.3059 183.2 65.1118C182.482 64.8983 181.867 64.4765 181.356 63.8464C180.861 63.1935 180.608 62.3277 180.598 61.2491C180.594 59.7494 181.138 58.5231 182.23 57.5702C183.323 56.6174 184.606 56.0109 186.081 55.7509C187.42 55.5148 188.643 55.5892 189.751 55.974C190.875 56.3359 191.763 56.9998 192.413 57.9654L188.658 60.6682C188.155 59.8566 187.475 59.5164 186.618 59.6475C185.874 59.7387 185.493 60.0759 185.476 60.6592C185.472 60.9799 185.654 61.2179 186.022 61.3732C186.386 61.509 186.838 61.5793 187.379 61.5839C187.92 61.5886 188.512 61.6543 189.155 61.7811C189.794 61.8884 190.383 62.0546 190.923 62.2795C191.482 62.501 191.938 62.9308 192.291 63.5688C192.659 64.1841 192.848 64.9711 192.857 65.9298C192.849 67.4718 192.305 68.6981 191.225 69.6087C190.145 70.5193 188.781 71.1201 187.131 71.4109Z" fill="white"/>
<path fill-rule="evenodd" clip-rule="evenodd" d="M113.727 57.9304L113.73 63.9342C114.713 63.4797 115.77 63.1519 116.89 62.9545C117.911 62.7745 118.946 62.7255 119.962 62.8329L130.666 60.9454C131.667 60.4881 132.728 60.1617 133.838 59.9661C134.94 59.7717 136.059 59.7057 137.174 59.7979L138.937 59.487L138.94 57.8353L153.631 50.6872L153.618 56.8985L156.204 56.4424C157.242 55.9801 158.348 55.6443 159.514 55.4387C161.465 55.0946 163.403 55.167 165.223 55.7274L165.223 54.8522L176.021 52.9482C176.81 52.607 177.639 52.3629 178.494 52.212L183.488 51.3314C184.053 51.1518 184.632 51.0096 185.226 50.9049C187.241 50.5496 189.31 50.6232 191.313 51.3075C193.448 52.0072 195.229 53.3371 196.495 55.2165L199.159 59.1728L196.529 61.0663C196.538 61.0829 196.548 61.0995 196.557 61.1162C197.467 62.6728 197.764 64.36 197.778 65.8838L197.778 65.92L197.778 65.9561C197.763 68.79 196.688 71.4388 194.397 73.3707C192.54 74.9367 190.33 75.8438 187.986 76.2572C185.802 76.6423 183.517 76.6304 181.338 75.8712C180.838 75.6968 180.36 75.4888 179.905 75.2495L179.908 77.2615L165.809 79.7474C164.708 80.2239 163.534 80.5687 162.303 80.7858C160.413 81.119 158.498 81.1282 156.676 80.6887L156.676 80.8238L153.239 81.9191C150.39 82.8267 146.764 83.4722 143.636 81.8549C143.438 82.0535 143.229 82.246 143.009 82.4319C141.152 83.9979 138.942 84.905 136.597 85.3184C135.052 85.5909 133.455 85.6646 131.882 85.4153L131.882 85.7297L122.083 87.4574C121.118 87.9121 120.085 88.2299 119.009 88.4197C117.199 88.7387 115.408 88.6565 113.744 88.1205L113.745 88.9277L98.7298 91.5753L98.725 88.6952L98.173 88.7925L98.1769 91.6728L83.1232 94.3272L83.1048 63.3298L88.2956 62.4146L88.2912 59.1462L90.1648 62.085L95.734 61.103L97.8168 64.6134L100.03 60.3454L113.727 57.9304ZM98.1058 74.7446L93.2379 66.5399L88.0281 67.4585L88.0406 88.4633L93.2504 87.5447L93.2349 76.0536L98.1713 83.796L98.6952 83.7036L103.622 74.3721L103.641 85.7125L108.822 84.799L108.809 63.7943L103.279 64.7694L98.1058 74.7446ZM111.188 77.0899C111.286 79.0781 111.927 80.7254 113.111 82.032C113.312 82.2492 113.522 82.445 113.741 82.6195C114.709 83.3884 115.863 83.7422 117.204 83.681C117.273 83.6778 117.342 83.6736 117.413 83.6682C117.654 83.6497 117.901 83.6182 118.155 83.5735C118.764 83.4661 119.325 83.2996 119.837 83.0742C120.231 82.9007 120.597 82.6924 120.933 82.449C121.312 82.1754 121.654 81.8575 121.96 81.4955C121.986 81.4639 122.013 81.4319 122.039 81.3997C122.07 81.3608 122.101 81.3215 122.132 81.2817L122.128 82.4527L126.96 81.6008L126.955 66.5967L122.124 67.4486L122.115 69.1007C122.088 69.0707 122.062 69.0412 122.035 69.0121C121.094 67.9957 119.839 67.5673 118.271 67.7269C118.099 67.7444 117.924 67.769 117.744 67.8006C117.559 67.8333 117.378 67.8712 117.2 67.9143C115.826 68.2484 114.67 68.8984 113.734 69.8643C113.528 70.0767 113.332 70.3044 113.148 70.5474C113.051 70.6746 112.957 70.8059 112.866 70.9415C111.815 72.4875 111.253 74.202 111.182 76.0849C111.175 76.2786 111.173 76.4741 111.176 76.6714C111.177 76.8125 111.181 76.952 111.188 77.0899ZM116.097 76.6798C116.204 77.3397 116.466 77.8617 116.885 78.2455C117.089 78.4322 117.317 78.5732 117.571 78.6686C117.954 78.8127 118.394 78.8525 118.891 78.7879C118.952 78.78 119.014 78.7705 119.076 78.7595C119.988 78.5987 120.724 78.1787 121.285 77.4997C121.573 77.1513 121.788 76.7657 121.93 76.3428C121.972 76.2192 122.008 76.0925 122.037 75.9626C122.103 75.6705 122.138 75.3623 122.141 75.038L122.126 74.9506C122.122 74.6464 122.092 74.3651 122.036 74.1068C121.994 73.9111 121.937 73.7287 121.865 73.5594C121.727 73.2336 121.533 72.9566 121.284 72.7283C120.735 72.2249 119.995 72.0553 119.064 72.2195C118.884 72.2512 118.711 72.2933 118.546 72.3458C118.512 72.3562 118.48 72.3671 118.447 72.3785C118.446 72.3787 118.446 72.379 118.445 72.3792C117.813 72.5991 117.285 72.9755 116.86 73.5084C116.841 73.5326 116.822 73.557 116.803 73.5816C116.797 73.59 116.79 73.5983 116.784 73.6067C116.278 74.2851 116.031 75.0906 116.043 76.0232C116.046 76.2239 116.059 76.4146 116.084 76.5953C116.086 76.6029 116.087 76.6104 116.088 76.618C116.091 76.6387 116.094 76.6593 116.097 76.6798ZM120.568 75.0209C120.556 75.0042 120.543 74.9875 120.531 74.9709C120.44 74.8502 120.334 74.7312 120.211 74.6189C120.091 74.5085 119.96 74.4091 119.822 74.3219C119.686 74.2353 119.542 74.1607 119.395 74.0992C119.255 74.041 119.112 73.9945 118.968 73.9607C118.552 73.863 118.273 73.9043 118.222 73.9133C118.173 73.922 118.041 73.9545 117.874 74.0494C117.807 74.0877 117.746 74.1293 117.692 74.1721C117.609 74.2375 117.541 74.3054 117.49 74.3671C117.403 74.4721 117.324 74.6092 117.272 74.7583C117.222 74.9019 117.221 74.9901 117.221 74.9847L120.568 75.0209ZM120.505 75.3264L117.532 75.8508C117.565 75.9016 117.6 75.9524 117.638 76.003C117.729 76.1237 117.835 76.2426 117.958 76.355C118.079 76.4663 118.21 76.5657 118.346 76.6525C118.474 76.7338 118.607 76.8041 118.742 76.8629C118.894 76.929 119.05 76.9806 119.204 77.017L120.505 75.3264ZM129.335 71.4897C129.457 72.0402 129.668 72.5129 129.968 72.9077C130.221 73.2205 130.501 73.482 130.805 73.6921C131.114 73.9053 131.45 74.0656 131.811 74.1732C131.825 74.177 131.839 74.1808 131.853 74.1846C131.858 74.1857 131.862 74.1868 131.866 74.1878C131.87 74.189 131.874 74.1901 131.878 74.1912C132.234 74.286 132.589 74.3659 132.945 74.4309C133.006 74.4422 133.068 74.4531 133.13 74.4635C133.316 74.4949 133.502 74.5222 133.688 74.5454C133.776 74.5565 133.865 74.5666 133.953 74.5758C134.152 74.595 134.342 74.6165 134.525 74.6402C134.689 74.6616 134.846 74.6848 134.997 74.7099C135.294 74.7592 135.564 74.8156 135.807 74.8791C135.859 74.8899 135.908 74.9016 135.954 74.9143C136.138 74.9646 136.281 75.03 136.384 75.1103C136.515 75.2134 136.579 75.3412 136.576 75.4938C136.576 75.5392 136.573 75.5832 136.565 75.6256C136.505 75.9757 136.184 76.2254 135.6 76.3749C135.564 76.3841 135.527 76.393 135.489 76.4015C135.461 76.4076 135.434 76.4135 135.405 76.4192C135.371 76.426 135.337 76.4324 135.302 76.4387C135.212 76.4544 135.124 76.4667 135.038 76.4754C134.574 76.5221 134.156 76.4664 133.785 76.3082C133.781 76.3065 133.777 76.3047 133.773 76.303C133.462 76.1681 133.184 75.9608 132.938 75.6811C132.896 75.6326 132.854 75.5819 132.813 75.5291C132.783 75.4892 132.753 75.4481 132.723 75.4057C132.713 75.3917 132.704 75.3775 132.694 75.3631C132.66 75.3123 132.626 75.2598 132.593 75.2056L128.709 78.0214C128.765 78.1062 128.823 78.1889 128.882 78.2697C128.927 78.3308 128.972 78.3907 129.019 78.4495C129.774 79.4081 130.728 80.0531 131.88 80.3844C132.378 80.5274 132.912 80.612 133.483 80.6382C134.181 80.6701 134.934 80.6148 135.743 80.4722C135.831 80.4567 135.918 80.4403 136.004 80.4231C137.537 80.1165 138.814 79.5321 139.837 78.67C139.949 78.5748 140.057 78.4761 140.158 78.374C140.892 77.6328 141.318 76.7098 141.435 75.6049C141.441 75.553 141.446 75.5007 141.45 75.4481C141.462 75.299 141.468 75.1467 141.469 74.9911C141.468 74.9658 141.468 74.9406 141.468 74.9155C141.46 74.5231 141.422 74.1601 141.353 73.8264C141.293 73.5396 141.211 73.2744 141.107 73.0309C141.083 72.976 141.058 72.9221 141.032 72.8694C141.031 72.8675 141.03 72.8656 141.029 72.8637C140.99 72.7833 140.947 72.7055 140.902 72.6302C140.555 72.0017 140.107 71.5753 139.56 71.3509C139.551 71.3475 139.543 71.3442 139.535 71.3409C139.342 71.2606 139.143 71.1878 138.937 71.1225C138.882 71.1047 138.825 71.0875 138.769 71.0709C138.558 71.0092 138.342 70.9551 138.118 70.9086C138.003 70.8845 137.885 70.8624 137.766 70.8424C137.465 70.783 137.175 70.737 136.896 70.7044C136.847 70.6987 136.799 70.6934 136.75 70.6885C136.728 70.6862 136.706 70.6841 136.684 70.682C136.444 70.6594 136.213 70.6472 135.991 70.6453C135.926 70.6447 135.862 70.6432 135.8 70.6408C135.724 70.6378 135.651 70.6335 135.579 70.6277C135.56 70.6262 135.541 70.6246 135.522 70.6229C135.502 70.6211 135.483 70.6191 135.463 70.6171C135.148 70.5844 134.872 70.5236 134.633 70.4345C134.544 70.3967 134.465 70.3539 134.398 70.3063C134.387 70.2991 134.378 70.2919 134.368 70.2845C134.329 70.2546 134.294 70.2229 134.263 70.1894C134.144 70.0601 134.085 69.9038 134.087 69.7205C134.088 69.6911 134.09 69.6623 134.092 69.6342C134.123 69.3133 134.274 69.0737 134.545 68.9153C134.722 68.8119 134.95 68.7431 135.229 68.7089C135.246 68.7063 135.263 68.7039 135.28 68.7016C135.31 68.6977 135.34 68.6943 135.37 68.6915C135.372 68.6913 135.374 68.6911 135.376 68.6909C135.599 68.6704 135.809 68.6835 136.007 68.73C136.278 68.7937 136.526 68.9204 136.75 69.1099C136.801 69.1531 136.851 69.1997 136.899 69.2494C136.926 69.2768 136.952 69.3051 136.978 69.3344C136.992 69.3502 137.006 69.3662 137.02 69.3825C137.079 69.4527 137.136 69.5281 137.191 69.6088C137.218 69.6478 137.244 69.688 137.27 69.7295L141.025 67.0268C140.961 66.9318 140.894 66.8398 140.826 66.7507C140.758 66.6622 140.687 66.5765 140.615 66.4938C140.017 65.8125 139.267 65.3263 138.363 65.0353C137.849 64.8571 137.312 64.7455 136.749 64.7005C136.458 64.6772 136.16 64.6717 135.856 64.684C135.497 64.6985 135.128 64.7379 134.75 64.8022C134.731 64.8055 134.712 64.8088 134.692 64.8123C134.673 64.8156 134.654 64.8191 134.635 64.8226C133.625 65.0075 132.705 65.3559 131.876 65.868C131.529 66.0819 131.198 66.3244 130.883 66.5954C130.869 66.6074 130.855 66.6195 130.842 66.6316C129.933 67.4244 129.403 68.4066 129.254 69.578C129.25 69.6079 129.246 69.638 129.243 69.6681C129.22 69.8764 129.209 70.0905 129.209 70.3105C129.21 70.3578 129.211 70.4047 129.212 70.4512C129.223 70.8236 129.264 71.1698 129.335 71.4897ZM143.863 72.9907C143.865 73.1236 143.869 73.254 143.875 73.3816C143.904 73.966 143.978 74.4943 144.097 74.9665C144.1 74.9794 144.103 74.9923 144.107 75.0052C144.404 76.1503 144.972 76.9609 145.809 77.4369C145.893 77.4834 145.98 77.5266 146.07 77.5665C146.762 77.8742 147.63 77.9838 148.673 77.8953C149.406 77.8332 150.226 77.6732 151.133 77.4153C151.333 77.3585 151.537 77.2969 151.745 77.2305L151.732 72.7313C151.446 72.8022 151.183 72.8613 150.941 72.9087C150.745 72.947 150.564 72.9776 150.397 73.0006C149.964 73.0601 149.626 73.0684 149.383 73.0255C149.245 73.0013 149.129 72.9498 149.033 72.8708C148.988 72.8333 148.947 72.7895 148.911 72.7395C148.858 72.6663 148.815 72.5796 148.782 72.4796C148.728 72.3169 148.701 72.1187 148.701 71.8852L148.692 69.26L148.692 69.2593L148.685 67.5367L151.712 67.0029L151.74 62.2264L148.684 62.7653L148.693 58.5623L143.856 60.9156L143.852 63.6172L141.67 64.0021L141.671 68.7735L143.854 68.3886L143.861 72.8587C143.862 72.9029 143.862 72.9469 143.863 72.9907ZM153.798 72.7123C153.8 72.7167 153.802 72.721 153.804 72.7253C154.183 73.4546 154.694 74.0949 155.338 74.6462C155.746 74.9895 156.186 75.2723 156.661 75.4948C157.992 76.1193 159.588 76.2676 161.448 75.9397C161.575 75.9172 161.701 75.893 161.826 75.8671C162.249 75.7786 162.655 75.6696 163.046 75.54C163.842 75.2758 164.569 74.926 165.229 74.4905C165.426 74.3602 165.617 74.2223 165.803 74.0767C165.84 74.047 165.878 74.017 165.915 73.9866C166.366 73.6193 166.78 73.2053 167.157 72.7445C167.232 72.6527 167.305 72.559 167.377 72.4634L163.795 70.1842C163.503 70.5669 163.155 70.8834 162.752 71.1335C162.278 71.427 161.726 71.6292 161.098 71.74C160.967 71.7631 160.841 71.7813 160.717 71.7948C160.218 71.8495 159.781 71.8258 159.405 71.7236C159.166 71.6589 158.952 71.5626 158.763 71.4348C158.621 71.3387 158.493 71.2247 158.379 71.093C158.371 71.084 158.363 71.075 158.356 71.0659C158.211 70.8927 158.089 70.6899 157.991 70.4573L167.974 68.697C168.091 68.1499 168.152 67.6264 168.156 67.1263C168.157 67.0182 168.155 66.9112 168.15 66.8053C168.154 66.1188 168.084 65.4784 167.941 64.8839C167.624 63.5707 166.949 62.4819 165.915 61.6175C165.693 61.4289 165.462 61.2585 165.225 61.1062C163.855 60.2292 162.237 59.9554 160.368 60.2848C160.281 60.3003 160.194 60.3168 160.107 60.3344C158.816 60.5973 157.668 61.0968 156.663 61.8331C156.483 61.9652 156.308 62.1049 156.137 62.2522C155.745 62.5902 155.377 62.9682 155.033 63.3863C154.459 64.0858 154.006 64.8296 153.675 65.6174C153.585 65.8298 153.505 66.0453 153.433 66.2641C153.353 66.5093 153.284 66.7586 153.226 67.0118C153.203 67.1091 153.183 67.207 153.164 67.3054C153.15 67.3766 153.137 67.448 153.125 67.5198C153.034 68.0643 152.992 68.6266 152.999 69.2068C153.002 69.5051 153.018 69.7949 153.047 70.0765C153.106 70.6546 153.217 71.1977 153.381 71.7055C153.398 71.7598 153.416 71.8137 153.435 71.8672C153.437 71.8734 153.439 71.8796 153.442 71.8858C153.493 72.0305 153.548 72.1722 153.608 72.311C153.667 72.4476 153.73 72.5814 153.798 72.7123ZM157.978 66.9785C158.078 66.6602 158.202 66.3705 158.349 66.1095C158.527 65.7923 158.74 65.5175 158.986 65.285C159.469 64.8299 160.082 64.5368 160.825 64.4057C160.915 64.3899 161.003 64.3771 161.088 64.3674C161.432 64.3286 161.74 64.3395 162.014 64.4C162.236 64.4492 162.435 64.5311 162.612 64.6457C162.768 64.7473 162.906 64.8746 163.027 65.0276C163.033 65.0353 163.039 65.043 163.045 65.0509C163.236 65.3027 163.381 65.6219 163.478 66.0085L157.978 66.9785ZM170.15 73.9853L174.981 73.1334L174.972 66.9199L174.972 66.9189L174.972 66.4428L174.996 66.9187C174.995 66.8019 174.997 66.6874 175.002 66.5753C175.004 66.5307 175.007 66.4866 175.01 66.4427C175.01 66.4421 175.01 66.4415 175.01 66.4408C175.013 66.4008 175.016 66.361 175.02 66.3215C175.032 66.194 175.048 66.0697 175.068 65.9487C175.203 65.1425 175.526 64.4824 176.038 63.9683C176.127 63.8791 176.221 63.7944 176.321 63.714C177.234 62.9928 178.258 62.6123 179.391 62.5725L179.349 57.0581C178.496 57.2085 177.737 57.5089 177.072 57.9591C176.988 58.0161 176.905 58.0755 176.824 58.1373C176.73 58.2091 176.638 58.284 176.548 58.3623C176.315 58.5581 176.104 58.772 175.916 59.0041C175.675 59.3023 175.471 59.6304 175.304 59.9885C175.214 60.1825 175.135 60.3853 175.066 60.5968C175.029 60.7127 174.995 60.8312 174.964 60.9523L174.976 58.1292L170.145 58.9811L170.147 66.4472L170.147 66.4495L170.147 67.1622L170.147 67.1636L170.15 73.9853ZM180.271 69.2085C180.316 69.2696 180.361 69.3296 180.407 69.3883C181.489 70.7608 182.977 71.4903 184.872 71.577C185.57 71.6089 186.323 71.5536 187.131 71.411C187.219 71.3955 187.307 71.3791 187.393 71.3619C188.925 71.0553 190.203 70.4709 191.225 69.6089C192.158 68.8225 192.69 67.8008 192.824 66.5437C192.829 66.4918 192.834 66.4396 192.838 66.3869C192.85 66.2378 192.856 66.0855 192.857 65.93C192.857 65.9046 192.857 65.8793 192.856 65.8542C192.842 65.1247 192.722 64.4965 192.495 63.9697C192.435 63.8289 192.367 63.6953 192.291 63.569C191.944 62.9405 191.496 62.5141 190.948 62.2898C190.94 62.2863 190.931 62.283 190.923 62.2797C190.678 62.1776 190.423 62.0876 190.157 62.0097C189.947 61.948 189.73 61.8939 189.507 61.8474C189.391 61.8233 189.274 61.8012 189.155 61.7812C188.854 61.7218 188.564 61.6758 188.285 61.6432C188.213 61.6349 188.143 61.6274 188.072 61.6208C187.833 61.5982 187.602 61.586 187.379 61.5841C187.315 61.5835 187.251 61.582 187.189 61.5796C187.113 61.5766 187.039 61.5723 186.967 61.5665C186.948 61.565 186.929 61.5634 186.911 61.5617C186.891 61.5599 186.871 61.5579 186.852 61.5559C186.537 61.5232 186.26 61.4624 186.022 61.3733C185.932 61.3355 185.854 61.2927 185.786 61.2451C185.776 61.2379 185.766 61.2307 185.756 61.2233C185.717 61.1934 185.682 61.1617 185.652 61.1282C185.532 60.9989 185.474 60.8426 185.476 60.6593C185.477 60.6299 185.478 60.6012 185.481 60.573C185.512 60.2521 185.663 60.0125 185.934 59.8541C186.111 59.7507 186.339 59.6819 186.618 59.6477C186.635 59.6451 186.652 59.6427 186.668 59.6405C186.699 59.6365 186.729 59.6331 186.758 59.6303C186.76 59.6301 186.762 59.6299 186.765 59.6297C186.988 59.6093 187.198 59.6223 187.396 59.6688C187.729 59.7471 188.026 59.9203 188.288 60.1883C188.315 60.2156 188.341 60.2439 188.367 60.2732C188.381 60.289 188.395 60.305 188.409 60.3213C188.468 60.3915 188.525 60.4669 188.58 60.5476C188.606 60.5866 188.633 60.6269 188.658 60.6683L192.413 57.9656C192.413 57.9655 192.413 57.9656 192.413 57.9656C192.349 57.8707 192.283 57.7786 192.214 57.6895C192.146 57.601 192.076 57.5153 192.003 57.4326C191.406 56.7513 190.655 56.2652 189.751 55.9741C188.973 55.7038 188.137 55.5867 187.245 55.6228C186.885 55.6374 186.517 55.6767 186.139 55.741C186.12 55.7443 186.1 55.7476 186.081 55.7511C186.062 55.7544 186.042 55.7579 186.023 55.7614C185.403 55.875 184.816 56.0503 184.264 56.2874C183.792 56.4901 183.344 56.7379 182.922 57.0309C182.683 57.1963 182.453 57.3762 182.23 57.5704C181.321 58.3632 180.792 59.3454 180.642 60.5168C180.638 60.5467 180.635 60.5768 180.632 60.6069C180.609 60.8152 180.597 61.0293 180.598 61.2493C180.598 61.2966 180.599 61.3435 180.601 61.39C180.612 61.7625 180.653 62.1086 180.724 62.4285C180.734 62.4736 180.744 62.5181 180.756 62.5621C180.881 63.0559 181.081 63.484 181.356 63.8465C181.61 64.1593 181.889 64.4208 182.194 64.631C182.503 64.8441 182.838 65.0045 183.2 65.112C183.214 65.1158 183.228 65.1196 183.242 65.1234C183.246 65.1245 183.25 65.1256 183.254 65.1267C183.614 65.2229 183.974 65.3039 184.333 65.3698C184.333 65.3698 184.333 65.3697 184.333 65.3698C184.395 65.381 184.456 65.3919 184.518 65.4023C184.704 65.4337 184.89 65.461 185.076 65.4842C185.165 65.4953 185.253 65.5054 185.341 65.5146C185.54 65.5339 185.731 65.5553 185.913 65.579C186.077 65.6004 186.235 65.6236 186.385 65.6487C186.682 65.698 186.952 65.7544 187.196 65.8179C187.247 65.8287 187.296 65.8404 187.343 65.8531C187.527 65.9035 187.67 65.9688 187.772 66.0491C187.904 66.1522 187.968 66.28 187.964 66.4326C187.965 66.478 187.961 66.522 187.954 66.5644C187.894 66.9145 187.572 67.1642 186.989 67.3137C186.953 67.323 186.916 67.3318 186.877 67.3403C186.85 67.3464 186.822 67.3523 186.794 67.358C186.76 67.3648 186.725 67.3713 186.69 67.3775C186.601 67.3932 186.513 67.4055 186.427 67.4142C185.963 67.4609 185.545 67.4052 185.174 67.2471C185.17 67.2453 185.166 67.2435 185.162 67.2418C184.857 67.1099 184.584 66.9087 184.343 66.6383C184.337 66.6322 184.332 66.6261 184.327 66.6199C184.284 66.5714 184.243 66.5208 184.202 66.4679C184.171 66.428 184.141 66.3869 184.112 66.3445C184.102 66.3305 184.092 66.3163 184.083 66.3019C184.048 66.2512 184.015 66.1987 183.982 66.1444L180.097 68.9602C180.154 69.045 180.212 69.1278 180.271 69.2085Z" fill="#152C4A"/>
<path d="M99.5346 55.7063L94.9213 62.7801L105.071 76.005L112.144 62.7801L99.5346 55.7063Z" fill="#152C4A"/>
<path d="M143.499 81.3094C143.499 82.4984 142.535 83.4623 141.346 83.4623C140.157 83.4623 139.193 82.4984 139.193 81.3094C139.193 80.1204 140.157 79.1565 141.346 79.1565C142.535 79.1565 143.499 80.1204 143.499 81.3094Z" fill="#152C4A"/>
<path d="M86.6173 49.5552C86.6173 50.7442 85.6534 51.7081 84.4644 51.7081C83.2754 51.7081 82.3115 50.7442 82.3115 49.5552C82.3115 48.3662 83.2754 47.4023 84.4644 47.4023C85.6534 47.4023 86.6173 48.3662 86.6173 49.5552Z" fill="#152C4A"/>
<path d="M67.8401 42.5574C67.8401 43.7464 66.8763 44.7103 65.6873 44.7103C64.4982 44.7103 63.5344 43.7464 63.5344 42.5574C63.5344 41.3684 64.4982 40.4045 65.6873 40.4045C66.8763 40.4045 67.8401 41.3684 67.8401 42.5574Z" fill="#152C4A"/>
<path d="M41.3904 55.4747C41.3904 56.6637 40.4266 57.6276 39.2375 57.6276C38.0485 57.6276 37.0847 56.6637 37.0847 55.4747C37.0847 54.2857 38.0485 53.3218 39.2375 53.3218C40.4266 53.3218 41.3904 54.2857 41.3904 55.4747Z" fill="#152C4A"/>
<path d="M169.949 33.9459C169.949 35.1349 168.985 36.0988 167.796 36.0988C166.607 36.0988 165.643 35.1349 165.643 33.9459C165.643 32.7569 166.607 31.793 167.796 31.793C168.985 31.793 169.949 32.7569 169.949 33.9459Z" fill="#152C4A"/>
<path d="M121.355 75.4658C121.355 76.8247 120.253 77.9263 118.895 77.9263C117.536 77.9263 116.434 76.8247 116.434 75.4658C116.434 74.107 117.536 73.0054 118.895 73.0054C120.253 73.0054 121.355 74.107 121.355 75.4658Z" fill="#152C4A"/>
<path d="M138.902 65.5481C135.519 67.701 125.923 72.3759 125.677 72.6219C125.164 68.2136 126.907 59.0279 126.907 58.7819C126.907 58.5359 137.569 56.834 142.9 56.0139L144.438 39.7134L150.896 37.5605L153.972 50.7854L164.121 52.9383L171.81 49.8628C174.271 49.9653 182.251 49.016 180.422 50.1703C179.381 50.8269 185.326 50.4779 185.634 50.7854C185.88 51.0315 182.165 57.5517 180.729 59.397H175.501L161.968 63.0877L138.902 65.5481Z" fill="#152C4A"/>
<path d="M108.809 63.7941L108.822 84.7989L103.641 85.7124L103.622 74.372L98.6952 83.7035L98.1713 83.7959L93.2349 76.0534L93.2504 87.5445L88.0406 88.4631L88.0282 67.4584L93.238 66.5397L98.1058 74.7444L103.279 64.7692L108.809 63.7941Z" fill="url(#paint0_linear)"/>
<path d="M122.124 67.4484L126.955 66.5965L126.96 81.6006L122.128 82.4525L122.132 81.2815C121.188 82.5083 119.862 83.2723 118.155 83.5734C116.078 83.9394 114.397 83.4256 113.111 82.0318C111.844 80.6347 111.199 78.8478 111.176 76.6712C111.143 74.5563 111.706 72.6464 112.866 70.9414C114.023 69.2169 115.649 68.17 117.744 67.8005C119.607 67.472 121.064 67.9054 122.115 69.1005L122.124 67.4484ZM116.885 78.2454C117.434 78.7488 118.164 78.9201 119.076 78.7593C119.988 78.5985 120.724 78.1786 121.285 77.4996C121.845 76.8205 122.131 75.9999 122.141 75.0378L122.126 74.9505C122.114 73.9723 121.833 73.2316 121.284 72.7282C120.735 72.2248 119.995 72.0552 119.064 72.2194C118.152 72.3802 117.417 72.8098 116.86 73.5082C116.303 74.2067 116.031 75.0449 116.043 76.0231C116.055 77.0012 116.336 77.742 116.885 78.2454Z" fill="url(#paint1_linear)"/>
<path d="M135.743 80.4721C132.522 81.04 130.177 80.2231 128.709 78.0212L132.593 75.2055C133.215 76.2362 134.118 76.6472 135.302 76.4385C136.155 76.288 136.58 75.973 136.576 75.4936C136.583 75.1923 136.326 74.9874 135.807 74.8789C135.304 74.7476 134.686 74.6465 133.953 74.5756C133.24 74.5013 132.526 74.3671 131.811 74.173C131.093 73.9595 130.479 73.5377 129.968 72.9076C129.472 72.2547 129.22 71.3889 129.21 70.3103C129.205 68.8106 129.749 67.5843 130.842 66.6314C131.934 65.6786 133.218 65.0721 134.692 64.8121C136.031 64.576 137.255 64.6504 138.363 65.0352C139.487 65.3971 140.374 66.0609 141.025 67.0266L137.27 69.7294C136.767 68.9178 136.086 68.5776 135.229 68.7087C134.485 68.7999 134.104 69.1371 134.087 69.7204C134.084 70.0411 134.266 70.2791 134.633 70.4344C134.997 70.5702 135.45 70.6405 135.991 70.6451C136.532 70.6498 137.124 70.7155 137.766 70.8422C138.405 70.9496 138.995 71.1158 139.535 71.3407C140.094 71.5622 140.55 71.992 140.902 72.63C141.271 73.2453 141.46 74.0323 141.469 74.991C141.46 76.5329 140.916 77.7592 139.837 78.6699C138.757 79.5805 137.392 80.1813 135.743 80.4721Z" fill="url(#paint2_linear)"/>
<path d="M148.685 67.5365L148.702 71.885C148.701 72.5653 148.928 72.9454 149.383 73.0253C149.837 73.1053 150.62 73.0072 151.732 72.7312L151.745 77.2304C149.074 78.0814 147.095 78.1502 145.809 77.4367C144.52 76.7038 143.87 75.1777 143.861 72.8585L143.854 68.3884L141.671 68.7733L141.67 64.0019L143.853 63.617L143.856 60.9154L148.693 58.5621L148.684 62.7651L151.74 62.2262L151.712 67.0028L148.685 67.5365Z" fill="url(#paint3_linear)"/>
<path d="M160.368 60.2847C162.561 59.8981 164.41 60.3423 165.915 61.6174C167.417 62.8731 168.162 64.6023 168.15 66.8051C168.175 67.4009 168.117 68.0315 167.974 68.6969L157.991 70.4571C158.471 71.5929 159.507 72.0204 161.098 71.7399C162.262 71.5346 163.161 71.016 163.795 70.184L167.377 72.4632C165.967 74.3326 163.99 75.4913 161.448 75.9395C158.926 76.3843 156.889 75.9531 155.338 74.6461C153.807 73.3356 153.027 71.5225 152.999 69.2067C152.972 67.0107 153.65 65.0705 155.033 63.3861C156.417 61.7017 158.195 60.6679 160.368 60.2847ZM157.978 66.9783L163.478 66.0084C163.145 64.6866 162.261 64.1524 160.825 64.4056C159.389 64.6587 158.44 65.5163 157.978 66.9783Z" fill="url(#paint4_linear)"/>
<path d="M174.964 60.9522C175.236 59.8839 175.764 59.0206 176.548 58.3621C177.329 57.6843 178.262 57.2495 179.349 57.0579L179.391 62.5724C178.258 62.6122 177.234 62.9926 176.321 63.7139C175.427 64.4316 174.985 65.4999 174.996 66.9186L174.972 66.4426L174.981 73.1332L170.15 73.9851L170.145 58.981L174.976 58.1291L174.964 60.9522Z" fill="url(#paint5_linear)"/>
<path d="M187.131 71.4109C183.91 71.9788 181.566 71.1619 180.097 68.96L183.982 66.1443C184.604 67.175 185.507 67.586 186.69 67.3773C187.544 67.2268 187.969 66.9118 187.964 66.4324C187.971 66.1311 187.715 65.9262 187.196 65.8177C186.692 65.6864 186.074 65.5853 185.341 65.5144C184.628 65.4402 183.914 65.3059 183.2 65.1118C182.482 64.8983 181.867 64.4765 181.356 63.8464C180.861 63.1935 180.608 62.3277 180.598 61.2491C180.594 59.7494 181.138 58.5231 182.23 57.5702C183.323 56.6174 184.606 56.0109 186.081 55.7509C187.42 55.5148 188.643 55.5892 189.751 55.974C190.875 56.3359 191.763 56.9998 192.413 57.9654L188.658 60.6682C188.155 59.8566 187.475 59.5164 186.618 59.6475C185.874 59.7387 185.493 60.0759 185.476 60.6592C185.472 60.9799 185.654 61.2179 186.022 61.3732C186.386 61.509 186.838 61.5793 187.379 61.5839C187.92 61.5886 188.512 61.6543 189.155 61.7811C189.794 61.8884 190.383 62.0546 190.923 62.2795C191.482 62.501 191.938 62.9308 192.291 63.5688C192.659 64.1841 192.848 64.9711 192.857 65.9298C192.849 67.4718 192.305 68.6981 191.225 69.6087C190.145 70.5193 188.781 71.1201 187.131 71.4109Z" fill="url(#paint6_linear)"/>
<path fill-rule="evenodd" clip-rule="evenodd" d="M103.641 85.7124L108.822 84.7989L108.809 63.7941L103.279 64.7692L98.1058 74.7444L93.238 66.5397L88.0282 67.4584L88.0406 88.4631L93.2504 87.5445L93.2349 76.0534L98.1713 83.7959L98.6952 83.7035L103.622 74.372L103.641 85.7124ZM98.3812 82.9808L103.078 74.0848L104.237 74.3709L104.255 84.9795L108.206 84.2828L108.194 64.5271L103.685 65.3222L98.1419 76.0108L92.926 67.2194L88.6436 67.9744L88.6553 87.7301L92.6346 87.0285L92.617 73.94L98.3812 82.9808ZM122.128 82.4525L122.132 81.2815C121.942 81.5287 121.736 81.7572 121.515 81.9668C120.638 82.7974 119.518 83.333 118.155 83.5734C116.078 83.9394 114.397 83.4256 113.111 82.0318C111.844 80.6347 111.199 78.8478 111.176 76.6712C111.143 74.5563 111.706 72.6464 112.866 70.9414C114.023 69.2169 115.649 68.17 117.744 67.8005C119.269 67.5316 120.522 67.7732 121.503 68.5253C121.72 68.692 121.924 68.8837 122.115 69.1005L122.124 67.4484L126.955 66.5965L126.96 81.6006L122.128 82.4525ZM122.746 81.7191L126.344 81.0845L126.34 67.3295L122.736 67.965L122.721 70.7216L121.653 69.5067C120.772 68.5055 119.549 68.1068 117.851 68.4062C115.916 68.7475 114.438 69.7024 113.377 71.284L113.375 71.2873C112.288 72.8848 111.76 74.6699 111.791 76.6617L111.791 76.6646C111.813 78.7142 112.416 80.3482 113.565 81.6166C114.691 82.8357 116.152 83.302 118.048 82.9676C119.624 82.6897 120.805 81.9966 121.644 80.9064L122.753 79.4663L122.746 81.7191ZM122.757 74.9873L122.756 75.0444C122.745 76.1333 122.418 77.0934 121.759 77.8911C121.101 78.6892 120.231 79.1803 119.183 79.3651C118.133 79.5501 117.193 79.3627 116.469 78.6987C115.759 78.0477 115.442 77.1229 115.428 76.0309C115.414 74.9251 115.725 73.9449 116.379 73.1247C117.033 72.3045 117.903 71.7994 118.957 71.6136C120.021 71.426 120.973 71.6081 121.7 72.2748C122.398 72.9156 122.717 73.8217 122.74 74.8914L122.757 74.9873ZM122.126 74.9505C122.114 73.9723 121.833 73.2316 121.284 72.7282C120.735 72.2248 119.995 72.0552 119.064 72.2194C118.152 72.3802 117.417 72.8098 116.86 73.5082C116.303 74.2067 116.031 75.0449 116.043 76.0231C116.055 77.0012 116.336 77.742 116.885 78.2454C117.434 78.7488 118.164 78.9201 119.076 78.7593C119.988 78.5985 120.724 78.1786 121.285 77.4996C121.845 76.8205 122.131 75.9999 122.141 75.0378L122.126 74.9505ZM132.832 74.4096C133.206 74.4814 133.579 74.5367 133.953 74.5756C134.686 74.6465 135.304 74.7476 135.807 74.8789C136.326 74.9874 136.583 75.1923 136.576 75.4936C136.58 75.973 136.155 76.288 135.302 76.4385C134.321 76.6114 133.533 76.3589 132.938 75.6809C132.815 75.5407 132.7 75.3822 132.593 75.2055L128.709 78.0212C128.808 78.1702 128.911 78.3129 129.019 78.4493C129.037 78.472 129.055 78.4945 129.073 78.5169C130.553 80.3434 132.776 80.9952 135.743 80.4721C137.392 80.1813 138.757 79.5805 139.837 78.6699C140.916 77.7592 141.46 76.5329 141.469 74.991C141.46 74.0323 141.271 73.2453 140.902 72.63C140.55 71.992 140.094 71.5622 139.535 71.3407C138.995 71.1158 138.405 70.9496 137.766 70.8422C137.124 70.7155 136.532 70.6498 135.991 70.6451C135.45 70.6405 134.997 70.5702 134.633 70.4344C134.266 70.2791 134.084 70.0411 134.087 69.7204C134.104 69.1371 134.485 68.7999 135.229 68.7087C135.952 68.5981 136.549 68.8227 137.02 69.3824C137.108 69.4864 137.191 69.6021 137.27 69.7294L141.025 67.0266C141.025 67.0266 141.025 67.0266 141.025 67.0266C140.961 66.9317 140.894 66.8396 140.826 66.7505C140.77 66.6773 140.712 66.606 140.652 66.5367C140.049 65.8328 139.285 65.3323 138.363 65.0352C137.255 64.6504 136.031 64.576 134.692 64.8121C133.218 65.0721 131.934 65.6786 130.842 66.6314C129.749 67.5843 129.205 68.8106 129.21 70.3103C129.22 71.3889 129.472 72.2547 129.968 72.9076C130.479 73.5377 131.093 73.9595 131.811 74.173C132.102 74.2521 132.393 74.3212 132.684 74.3804C132.733 74.3904 132.782 74.4001 132.832 74.4096ZM131.98 73.5814C132.66 73.7659 133.338 73.8931 134.015 73.9636C134.76 74.0358 135.407 74.1399 135.948 74.28C136.245 74.3435 136.541 74.4479 136.773 74.6336C137.033 74.8416 137.196 75.1406 137.191 75.4972C137.192 75.9518 136.976 76.3245 136.627 76.5834C136.304 76.823 135.876 76.9618 135.409 77.0443C134.721 77.1656 134.069 77.1137 133.482 76.8466C133.088 76.667 132.747 76.4013 132.456 76.0644L129.572 78.1553C130.176 78.8927 130.908 79.4038 131.771 79.7044C132.818 80.0691 134.097 80.1376 135.636 79.8663C137.198 79.5908 138.457 79.0284 139.44 78.1997C140.368 77.4175 140.845 76.3703 140.854 74.992C140.845 74.1094 140.671 73.4402 140.375 72.9461L140.369 72.9369L140.364 72.9275C140.065 72.3869 139.708 72.0711 139.308 71.9126L139.303 71.9106L139.298 71.9085C138.806 71.7034 138.262 71.5493 137.664 71.4489L137.656 71.4474L137.647 71.4457C137.034 71.3249 136.481 71.2645 135.985 71.2602C135.399 71.2552 134.87 71.1793 134.418 71.0106L134.406 71.0061L134.394 71.001C134.143 70.8951 133.906 70.7405 133.732 70.5131C133.552 70.277 133.469 70.0011 133.472 69.7137L133.472 69.708L133.472 69.7022C133.485 69.2683 133.641 68.8677 133.978 68.5696C134.294 68.2897 134.708 68.154 135.145 68.0993C135.678 68.0194 136.191 68.082 136.657 68.3154C136.936 68.4545 137.181 68.6461 137.397 68.88L140.151 66.8976C139.628 66.3015 138.972 65.8776 138.174 65.6207L138.168 65.6185L138.161 65.6162C137.167 65.271 136.051 65.1971 134.799 65.4179C133.431 65.6591 132.251 66.2182 131.246 67.095C130.294 67.9256 129.821 68.9788 129.825 70.3061C129.834 71.2884 130.062 72.0102 130.452 72.528C130.889 73.0636 131.397 73.4064 131.98 73.5814ZM141.671 68.7733L143.854 68.3884L143.861 72.8585C143.87 75.1777 144.52 76.7038 145.809 77.4367C147.095 78.1502 149.074 78.0814 151.745 77.2304L151.732 72.7312C151.514 72.7852 151.309 72.8324 151.117 72.8728C150.326 73.0388 149.748 73.0896 149.383 73.0253C148.928 72.9454 148.701 72.5653 148.702 71.885L148.685 67.5365L151.712 67.0028L151.74 62.2262L148.684 62.7651L148.693 58.5621L143.856 60.9154L143.853 63.617L141.67 64.0019L141.671 68.7733ZM142.285 64.518L142.286 68.0403L144.467 67.6556L144.477 72.8562C144.485 75.0858 145.107 76.3284 146.11 76.9004C147.103 77.4492 148.727 77.4828 151.128 76.7761L151.119 73.5005C150.358 73.6533 149.73 73.711 149.276 73.6311C148.881 73.5616 148.553 73.3464 148.344 72.9957C148.15 72.6724 148.086 72.2817 148.086 71.8854C148.086 71.8852 148.086 71.8855 148.086 71.8854L148.068 67.0207L151.1 66.4861L151.121 62.9601L148.067 63.4984L148.076 59.5465L144.471 61.3005L144.467 64.1333L142.285 64.518ZM165.521 62.0893L165.518 62.0867C164.171 60.9459 162.514 60.531 160.475 60.8904C158.445 61.2485 156.798 62.2071 155.509 63.7765C154.218 65.348 153.588 67.1469 153.614 69.1991C153.64 71.3662 154.361 72.9999 155.737 74.1774C157.113 75.3359 158.949 75.7557 161.341 75.3337C163.498 74.9535 165.193 74.0426 166.463 72.6105L163.912 70.9876C163.209 71.7047 162.296 72.1533 161.205 72.3457C160.342 72.4977 159.557 72.4721 158.893 72.1982C158.21 71.9162 157.721 71.3972 157.424 70.6968L157.123 69.9855L167.449 68.1649C167.525 67.6945 167.553 67.2502 167.536 66.8309L167.535 66.8164L167.535 66.8018C167.546 64.7565 166.863 63.2117 165.521 62.0893ZM167.974 68.6969L157.991 70.4571C158.081 70.671 158.191 70.8598 158.321 71.0235C158.881 71.7288 159.806 71.9676 161.098 71.7399C162.262 71.5346 163.161 71.016 163.795 70.184L167.377 72.4632C167.252 72.6293 167.122 72.7897 166.988 72.9446C165.611 74.5328 163.764 75.5311 161.448 75.9395C158.926 76.3843 156.889 75.9531 155.338 74.6461C153.807 73.3356 153.027 71.5225 152.999 69.2067C152.972 67.0107 153.65 65.0705 155.033 63.3861C156.417 61.7017 158.195 60.6679 160.368 60.2847C162.561 59.8981 164.41 60.3423 165.915 61.6174C167.417 62.8731 168.162 64.6023 168.15 66.8051C168.175 67.4009 168.117 68.0315 167.974 68.6969ZM157.085 67.7603L157.391 66.7928C157.649 65.9784 158.054 65.2976 158.624 64.7822C159.196 64.2655 159.903 63.9436 160.718 63.7998C161.523 63.6579 162.27 63.7193 162.883 64.0899C163.504 64.465 163.882 65.092 164.075 65.8581L164.236 66.4993L157.085 67.7603ZM175.56 61.1038L174.349 60.9495L174.358 58.8627L170.76 59.4971L170.764 73.2521L174.365 72.6172L174.357 66.4435L174.394 66.4425C174.479 65.1039 174.974 64.0069 175.936 63.2343L175.94 63.2311C176.791 62.5587 177.738 62.1485 178.771 62.0083L178.74 57.8363C178.061 58.0473 177.468 58.3782 176.951 58.8266L176.947 58.8299L176.943 58.8332C176.266 59.4023 175.803 60.1503 175.56 61.1038ZM178.735 57.1966C178.934 57.1413 179.138 57.095 179.349 57.0579L179.391 62.5724C178.258 62.6122 177.234 62.9926 176.321 63.7139C175.534 64.3461 175.097 65.2504 175.011 66.4266C175.011 66.4313 175.011 66.436 175.01 66.4407C175.01 66.4413 175.01 66.4419 175.01 66.4426C174.999 66.5966 174.994 66.7553 174.996 66.9186L174.972 66.4426L174.972 66.9187L174.972 66.9197L174.981 73.1332L170.15 73.9851L170.145 58.981L174.976 58.1291L174.964 60.9522C175.103 60.4035 175.311 59.9088 175.585 59.4682C175.846 59.051 176.166 58.6823 176.548 58.3621C177.177 57.8155 177.906 57.427 178.735 57.1966ZM185.476 60.6592C185.493 60.0759 185.874 59.7387 186.618 59.6475C187.34 59.537 187.937 59.7615 188.409 60.3211C188.496 60.4252 188.579 60.5409 188.658 60.6682L192.413 57.9654C192.413 57.9654 192.413 57.9655 192.413 57.9654C192.349 57.8705 192.283 57.7784 192.214 57.6893C192.158 57.6161 192.1 57.5448 192.041 57.4755C191.437 56.7716 190.674 56.2711 189.751 55.974C188.643 55.5892 187.42 55.5148 186.081 55.7509C184.606 56.0109 183.323 56.6174 182.23 57.5702C181.138 58.5231 180.594 59.7494 180.598 61.2491C180.608 62.3277 180.861 63.1935 181.356 63.8464C181.867 64.4765 182.482 64.8983 183.2 65.1118C183.491 65.1909 183.782 65.26 184.072 65.3192C184.122 65.3292 184.171 65.339 184.22 65.3484C184.594 65.4202 184.968 65.4755 185.341 65.5144C186.074 65.5853 186.692 65.6864 187.196 65.8177C187.715 65.9262 187.971 66.1311 187.964 66.4324C187.969 66.9118 187.544 67.2268 186.69 67.3773C185.71 67.5502 184.922 67.2977 184.327 66.6197C184.204 66.4795 184.089 66.321 183.982 66.1443L180.097 68.96C180.197 69.1091 180.3 69.2518 180.407 69.3881C180.425 69.4108 180.443 69.4333 180.461 69.4557C181.941 71.2822 184.165 71.934 187.131 71.4109C188.781 71.1201 190.145 70.5193 191.225 69.6087C192.305 68.6981 192.849 67.4718 192.857 65.9298C192.848 64.9711 192.659 64.1841 192.291 63.5688C191.938 62.9308 191.482 62.501 190.923 62.2795C190.383 62.0546 189.794 61.8884 189.155 61.7811C188.512 61.6543 187.92 61.5886 187.379 61.5839C186.838 61.5793 186.386 61.509 186.022 61.3732C185.654 61.2179 185.472 60.9799 185.476 60.6592ZM192.242 65.9308C192.233 65.0482 192.059 64.379 191.763 63.885L191.758 63.8757L191.752 63.8663C191.454 63.3257 191.097 63.0099 190.697 62.8514L190.692 62.8494L190.687 62.8473C190.194 62.6422 189.651 62.4881 189.053 62.3877L189.044 62.3862L189.036 62.3845C188.423 62.2637 187.87 62.2033 187.374 62.199C186.787 62.194 186.259 62.1181 185.807 61.9494L185.794 61.9449L185.782 61.9398C185.532 61.8339 185.295 61.6793 185.121 61.4519C184.94 61.2158 184.858 60.9399 184.861 60.6525L184.861 60.6468L184.861 60.641C184.874 60.2071 185.03 59.8065 185.366 59.5084C185.682 59.2285 186.097 59.0928 186.534 59.0381C187.067 58.9582 187.579 59.0208 188.046 59.2542C188.324 59.3933 188.57 59.5849 188.785 59.8188L191.54 57.8364C191.016 57.2403 190.361 56.8164 189.563 56.5595L189.556 56.5573L189.55 56.5551C188.555 56.2098 187.44 56.1359 186.188 56.3567C184.819 56.5979 183.64 57.157 182.634 58.0338C181.682 58.8645 181.21 59.918 181.213 61.2456C181.223 62.2275 181.451 62.9492 181.84 63.4668C182.277 64.0024 182.785 64.3453 183.368 64.5202C184.049 64.7047 184.727 64.8319 185.403 64.9024C186.149 64.9746 186.795 65.0787 187.337 65.2188C187.634 65.2823 187.929 65.3867 188.161 65.5724C188.422 65.7805 188.584 66.0798 188.579 66.4366C188.58 66.8909 188.365 67.2634 188.016 67.5222C187.693 67.7618 187.265 67.9006 186.797 67.9831C186.109 68.1044 185.457 68.0525 184.871 67.7854C184.476 67.6058 184.136 67.3401 183.845 67.0032L180.96 69.0941C181.565 69.8315 182.297 70.3426 183.16 70.6433C184.206 71.0079 185.486 71.0764 187.025 70.8051C188.587 70.5296 189.846 69.9672 190.829 69.1385C191.756 68.3563 192.234 67.3092 192.242 65.9308ZM163.478 66.0084C163.424 65.7912 163.354 65.5953 163.27 65.4206C162.84 64.5323 162.025 64.194 160.825 64.4056C159.625 64.6171 158.765 65.2508 158.245 66.3066C158.143 66.5142 158.054 66.7381 157.978 66.9783L163.478 66.0084Z" fill="#55CFA2"/>
<path d="M35.9805 42.6959L22.3356 45.1018L22.2985 50.3113L34.7592 48.1142L34.7034 56.8309L22.3458 59.0099L22.3541 64.4768L36.2565 62.0255L36.2885 70.9391L13.118 75.0247L13.0959 37.8649L36.009 33.8246L35.9805 42.6959Z" fill="url(#paint7_linear)"/>
<path d="M54.0939 68.5959C50.2493 69.2738 47.0035 69.0321 44.3565 67.8707C41.7035 66.675 39.7543 64.7534 38.5088 62.1061L45.9513 56.4404C47.439 59.2573 49.8992 60.3632 53.3319 59.7579C56.1467 59.2616 57.5633 58.1623 57.5817 56.4602C57.5879 55.2911 56.632 54.4863 54.7138 54.0458C54.415 53.9569 53.0834 53.7316 50.719 53.3699C47.3733 52.8626 44.7333 51.8415 42.7992 50.3067C40.865 48.7718 39.8941 46.377 39.8865 43.1221C39.889 39.7238 40.9999 36.891 43.2193 34.6238C45.467 32.3162 48.3415 30.8537 51.8428 30.2364C54.8636 29.7037 57.5824 29.9676 59.9992 31.028C62.4442 32.048 64.4147 33.7888 65.9106 36.2504L58.7771 41.8617C57.2024 39.5556 55.1622 38.6235 52.6563 39.0653C50.4937 39.4466 49.3942 40.4369 49.3576 42.0361C49.303 42.9305 49.739 43.5969 50.6657 44.0352C51.5864 44.4392 53.2492 44.8362 55.6539 45.2262C57.3298 45.497 58.7079 45.7849 59.7881 46.09C60.8683 46.395 62.0222 46.9171 63.2497 47.6563C64.5056 48.3551 65.4464 49.375 66.0721 50.7158C66.6918 52.0223 67.0136 53.6467 67.0376 55.5892C67.0189 59.0965 65.8626 61.9726 63.5685 64.2176C61.2683 66.4283 58.1101 67.8877 54.0939 68.5959Z" fill="url(#paint8_linear)"/>
<path d="M85.9464 34.8943C89.4821 34.2708 92.4421 35.2001 94.8264 37.682C97.2389 40.1235 98.4722 43.3039 98.5262 47.2231C98.562 51.0393 97.5651 54.4183 95.5354 57.3599C93.54 60.2955 90.7402 62.0811 87.1359 62.7166C83.7719 63.3098 81.1026 62.524 79.1282 60.3591L79.1444 74.0007L70.5971 75.5078L70.575 38.3479L79.1224 36.8408L79.1342 39.0155C80.7579 36.7825 83.0287 35.4088 85.9464 34.8943ZM89.888 48.2153C89.8943 46.4445 89.415 45.131 88.4499 44.2747C87.4788 43.3841 86.1866 43.081 84.5732 43.3655C82.9942 43.6439 81.7089 44.3838 80.7173 45.5851C79.7197 46.752 79.1945 48.1896 79.1417 49.8978L79.1023 50.2764C79.1526 51.9664 79.6774 53.2366 80.6768 54.0868C81.6761 54.937 82.9653 55.2229 84.5444 54.9445C86.1577 54.66 87.4602 53.9171 88.4518 52.7158C89.4373 51.4802 89.916 49.9801 89.888 48.2153Z" fill="url(#paint9_linear)"/>
<path d="M115.468 57.721C112.55 58.2355 109.951 57.9504 107.672 56.8658C105.42 55.7408 103.744 54.1606 102.642 52.1251C101.539 50.0896 101.003 47.8482 101.031 45.401C101.088 41.71 102.272 38.3866 104.582 35.4308C106.927 32.469 110.176 30.6219 114.33 29.8896C118.449 29.1632 121.85 30.0855 124.533 32.6562C127.21 35.1927 128.546 38.3549 128.542 42.1429C128.541 45.7531 127.358 49.0765 124.991 52.113C122.624 55.1496 119.449 57.0189 115.468 57.721ZM114.684 49.3645C116.195 49.0982 117.428 48.3674 118.386 47.1722C119.343 45.977 119.82 44.5657 119.816 42.9382C119.812 41.3108 119.328 40.0689 118.363 39.2126C117.432 38.3503 116.211 38.0523 114.701 38.3186C113.225 38.5789 112.008 39.3067 111.051 40.5019C110.094 41.6971 109.617 43.1084 109.621 44.7359C109.625 46.3633 110.092 47.6082 111.023 48.4705C111.988 49.3268 113.208 49.6248 114.684 49.3645Z" fill="url(#paint10_linear)"/>
<path d="M140.798 30.9563C141.279 29.0664 142.213 27.539 143.6 26.3741C144.982 25.1749 146.633 24.4059 148.556 24.0669L148.63 33.8226C146.625 33.893 144.815 34.5661 143.199 35.842C141.618 37.1118 140.836 39.0017 140.854 41.5115L140.812 40.6695L140.828 52.5059L132.281 54.013L132.273 27.469L140.82 25.9618L140.798 30.9563Z" fill="url(#paint11_linear)"/>
<path d="M163.095 30.4756L163.125 38.1686C163.124 39.3721 163.526 40.0445 164.33 40.186C165.133 40.3274 166.519 40.1539 168.485 39.6656L168.508 47.6252C163.783 49.1308 160.283 49.2525 158.008 47.9902C155.726 46.6936 154.578 43.9938 154.562 39.8908L154.548 31.9827L150.686 32.6636L150.684 24.2225L154.546 23.5416L154.553 18.7622L163.11 14.5988L163.094 22.0344L168.5 21.0811L168.45 29.5313L163.095 30.4756Z" fill="url(#paint12_linear)"/>
<path d="M182.99 45.8149C177.292 46.8196 173.144 45.3743 170.546 41.479L177.419 36.4976C178.519 38.3211 180.116 39.0482 182.21 38.679C183.72 38.4127 184.472 37.8555 184.464 37.0074C184.476 36.4744 184.023 36.1119 183.104 35.9199C182.214 35.6876 181.12 35.5088 179.824 35.3834C178.562 35.252 177.299 35.0145 176.035 34.6711C174.765 34.2933 173.678 33.5471 172.773 32.4324C171.897 31.2773 171.45 29.7457 171.432 27.8376C171.425 25.1844 172.387 23.0149 174.32 21.3292C176.252 19.6434 178.523 18.5706 181.132 18.1106C183.5 17.6929 185.665 17.8245 187.625 18.5052C189.614 19.1455 191.184 20.3199 192.334 22.0283L185.692 26.8098C184.802 25.374 183.598 24.7721 182.082 25.0041C180.765 25.1655 180.092 25.7621 180.061 26.7939C180.055 27.3612 180.377 27.7823 181.027 28.057C181.671 28.2974 182.472 28.4216 183.429 28.4299C184.386 28.4381 185.433 28.5543 186.57 28.7786C187.701 28.9686 188.743 29.2625 189.698 29.6604C190.688 30.0523 191.494 30.8126 192.118 31.9414C192.77 33.0298 193.104 34.4221 193.12 36.1182C193.105 38.8461 192.143 41.0156 190.233 42.6266C188.322 44.2376 185.908 45.3004 182.99 45.8149Z" fill="url(#paint13_linear)"/>
<path fill-rule="evenodd" clip-rule="evenodd" d="M22.3356 45.102L35.9805 42.696L36.009 33.8248L13.0959 37.865L13.1179 75.0248L36.2885 70.9392L36.2565 62.0256L22.3541 64.4769L22.3458 59.01L34.7034 56.831L34.7592 48.1143L22.2985 50.3114L22.3356 45.102ZM33.5195 49.5821L21.0578 51.7794L21.1127 44.0684L34.7536 41.6631L34.7741 35.2917L14.3267 38.8971L14.3473 73.5588L35.0546 69.9076L35.0315 63.4908L21.1261 65.9427L21.114 57.978L33.4798 55.7976L33.5195 49.5821ZM44.9606 57.1946L45.9512 56.4405C46.152 56.8207 46.3706 57.1697 46.6068 57.4876L45.628 58.2327C45.3874 57.9101 45.165 57.5636 44.9606 57.1946ZM55.0189 52.8538C56.0577 53.0953 56.979 53.464 57.6617 54.0387C58.3971 54.6578 58.8171 55.4892 58.8119 56.4668L58.8119 56.4736C58.7983 57.7226 58.2462 58.7677 57.2596 59.5332C56.3264 60.2574 55.0449 60.7051 53.5455 60.9695C51.6567 61.3026 49.9203 61.1845 48.4078 60.5046C47.2988 60.0061 46.3754 59.2348 45.628 58.2327L40.0785 62.4574C39.9164 62.1766 39.7643 61.885 39.622 61.5825L38.5088 62.1062L39.254 63.0851L40.0785 62.4574C41.193 64.3877 42.7776 65.8085 44.8564 66.7467C44.8545 66.7459 44.8527 66.745 44.8508 66.7442L44.3565 67.8708L44.862 66.7492C44.8601 66.7484 44.8583 66.7475 44.8564 66.7467C47.2146 67.7797 50.1959 68.0341 53.8803 67.3845C57.7203 66.7074 60.6314 65.3325 62.7121 63.3345C62.7108 63.3358 62.7094 63.3371 62.708 63.3385L63.5685 64.2177L62.716 63.3308C62.7147 63.332 62.7134 63.3332 62.7121 63.3345C64.7434 61.3446 65.788 58.7985 65.8073 55.5934C65.8074 55.5971 65.8074 55.6008 65.8075 55.6045L67.0376 55.5893L65.8074 55.5827C65.8074 55.5863 65.8073 55.5898 65.8073 55.5934C65.7838 53.7757 65.4819 52.3422 64.9606 51.2431L64.9573 51.2362C64.4376 50.1226 63.674 49.3004 62.6515 48.7314L62.6331 48.7212L62.6151 48.7103C61.4569 48.0129 60.4041 47.5424 59.4537 47.274C58.4356 46.9865 57.108 46.7075 55.4577 46.4408L55.457 46.4407C53.0537 46.0509 51.2504 45.6353 50.1714 45.1619L50.1555 45.1549L50.1398 45.1474C49.5293 44.8587 48.9874 44.4507 48.6142 43.8804C48.2377 43.305 48.0917 42.6536 48.1283 41.985C48.128 41.9927 48.1279 42.0004 48.1277 42.008L49.3576 42.0362L48.1296 41.9612C48.1292 41.9691 48.1287 41.9771 48.1283 41.985C48.1587 40.8867 48.5687 39.9164 49.3864 39.1799C50.1714 38.473 51.2372 38.0664 52.4427 37.8539C53.9069 37.5957 55.3007 37.731 56.5771 38.3142C57.4809 38.7271 58.2811 39.3439 58.986 40.1323L58.0168 40.8946C58.2813 41.1844 58.5347 41.5068 58.777 41.8618L59.7459 41.0997C59.506 40.7538 59.2528 40.4307 58.986 40.1323L64.2601 35.9835C64.4677 36.2718 64.6674 36.5737 64.8592 36.8894L65.9106 36.2505L65.15 35.2836L64.2601 35.9835C62.9817 34.2078 61.4041 32.9472 59.5255 32.1635L59.5151 32.1592L59.5049 32.1547C57.3448 31.2069 54.8778 30.9505 52.0564 31.448C48.7815 32.0254 46.1496 33.3787 44.1006 35.4823L44.0984 35.4845C42.1214 37.5042 41.1194 40.0199 41.1167 43.121C41.1167 43.1205 41.1167 43.1199 41.1167 43.1193L39.8865 43.1222L41.1167 43.1231C41.1167 43.1224 41.1167 43.1217 41.1167 43.121C41.1241 46.1289 42.0109 48.1108 43.5639 49.3431C45.279 50.7041 47.6946 51.6671 50.9034 52.1536L50.905 52.1539C52.0896 52.3351 53.0209 52.483 53.6962 52.5973C54.2923 52.6982 54.7662 52.7849 55.0189 52.8538ZM54.7138 54.0459L55.0645 52.8668C55.0502 52.8625 55.035 52.8582 55.0189 52.8538C55.009 52.8515 54.999 52.8492 54.9891 52.8469L54.7138 54.0459ZM93.9452 38.5406L93.9392 38.5344C91.8534 36.3632 89.3127 35.55 86.16 36.1059C83.5308 36.5695 81.5509 37.7839 80.1291 39.7391L77.9243 42.7712L77.9001 38.3056L71.8058 39.3802L71.8264 74.0419L77.913 72.9687L77.8941 57.1806L80.0371 59.5302C81.6765 61.3277 83.8927 62.0394 86.9222 61.5052C90.2108 60.9253 92.7157 59.3199 94.5179 56.6685L94.5228 56.6613C96.3981 53.9434 97.3292 50.8169 97.296 47.2369C97.2451 43.5883 96.1077 40.7291 93.9513 38.5468L93.9452 38.5406ZM98.5262 47.2232C98.562 51.0394 97.5651 54.4184 95.5354 57.36C93.54 60.2956 90.7402 62.0812 87.1359 62.7167C84.4265 63.1945 82.1677 62.7777 80.3597 61.4664C79.9229 61.1495 79.5124 60.7805 79.1282 60.3592L79.1444 74.0008L70.5971 75.5079L70.575 38.3481L79.1223 36.8409L79.1342 39.0156C79.5075 38.5022 79.915 38.0342 80.3568 37.6116C81.8363 36.1963 83.6995 35.2906 85.9464 34.8944C89.4821 34.271 92.4421 35.2002 94.8263 37.6821C97.2389 40.1236 98.4722 43.304 98.5262 47.2232ZM79.1023 50.2765L79.1417 49.8979C79.1945 48.1897 79.7197 46.7521 80.7173 45.5852C81.7089 44.3839 82.9942 43.6441 84.5732 43.3656C86.1866 43.0812 87.4788 43.3842 88.4499 44.2748C89.4149 45.1311 89.8943 46.4446 89.888 48.2154C89.916 49.9802 89.4373 51.4804 88.4517 52.716C87.4602 53.9172 86.1577 54.6601 84.5443 54.9446C82.9653 55.223 81.6761 54.9371 80.6767 54.0869C79.6774 53.2367 79.1525 51.9666 79.1023 50.2765ZM91.1183 48.2078C91.1479 50.2177 90.5956 52.001 89.4135 53.4831L89.4071 53.4911L89.4005 53.4991C88.2124 54.9384 86.6433 55.8237 84.758 56.1561C82.9059 56.4827 81.2197 56.164 79.8796 55.0239C78.5435 53.8873 77.93 52.2442 77.8726 50.3131L77.8702 50.2309L77.9136 49.8137C77.982 47.882 78.589 46.1852 79.7754 44.7937C80.9583 43.3645 82.5052 42.4811 84.3596 42.1541C86.2448 41.8217 87.9538 42.1551 89.274 43.3613C90.5829 44.5275 91.1231 46.23 91.1183 48.2078ZM124.533 32.6563C121.85 30.0856 118.449 29.1633 114.33 29.8897C110.176 30.6221 106.927 32.4691 104.582 35.4309C102.272 38.3867 101.088 41.7101 101.031 45.4011C101.003 47.8484 101.539 50.0897 102.642 52.1252C103.744 54.1607 105.42 55.7409 107.672 56.8659C109.951 57.9505 112.55 58.2356 115.468 57.7211C119.449 57.019 122.624 55.1497 124.991 52.1132C127.358 49.0767 128.541 45.7533 128.542 42.143C128.546 38.355 127.21 35.1928 124.533 32.6563ZM108.211 55.7601C106.17 54.7381 104.693 53.3301 103.723 51.5394C102.727 49.6995 102.235 47.6675 102.261 45.4184C102.314 42.0018 103.403 38.9381 105.55 36.191C107.685 33.4954 110.651 31.7875 114.543 31.1012C118.332 30.4331 121.321 31.2821 123.682 33.5447L123.687 33.5494C126.111 35.8461 127.316 38.6815 127.312 42.1415L127.312 42.1428C127.311 45.4603 126.231 48.5211 124.02 51.3568C121.851 54.1403 118.952 55.8574 115.254 56.5096C112.548 56.9867 110.219 56.7126 108.211 55.7601ZM111.023 48.4706C110.092 47.6083 109.625 46.3634 109.621 44.736C109.617 43.1085 110.094 41.6972 111.051 40.502C112.008 39.3068 113.225 38.579 114.701 38.3188C116.211 38.0524 117.432 38.3504 118.363 39.2127C119.328 40.069 119.812 41.3109 119.816 42.9383C119.82 44.5658 119.343 45.9771 118.386 47.1723C117.428 48.3675 116.195 49.0983 114.684 49.3646C113.208 49.6249 111.988 49.3269 111.023 48.4706ZM119.189 38.3012C117.917 37.1291 116.283 36.7905 114.487 37.1072C112.71 37.4206 111.23 38.31 110.091 39.7329C108.947 41.1615 108.386 42.8498 108.391 44.7389C108.395 46.6056 108.939 48.2172 110.186 49.3731L110.196 49.3821L110.206 49.3909C111.499 50.5384 113.119 50.8898 114.898 50.5762C116.702 50.258 118.201 49.3703 119.346 47.9414C120.49 46.5128 121.051 44.8245 121.046 42.9354C121.042 41.0603 120.475 39.4479 119.189 38.3012ZM141.99 31.2597L139.568 30.951L139.583 27.4292L133.503 28.5013L133.511 52.5471L139.597 51.474L139.582 40.6713L139.647 40.6696C139.798 38.2661 140.687 36.2818 142.429 34.8829L142.433 34.8798L142.437 34.8767C143.928 33.6985 145.586 32.9686 147.391 32.7015L147.337 25.6386C146.231 26.0077 145.258 26.5639 144.407 27.3032L144.399 27.3099L144.391 27.3164C143.217 28.3027 142.413 29.5993 141.99 31.2597ZM147.328 24.3528C147.724 24.2368 148.133 24.1415 148.556 24.067L148.63 33.8227C146.625 33.8931 144.815 34.5662 143.199 35.8421C141.807 36.9601 141.035 38.5586 140.882 40.6378C140.881 40.6472 140.881 40.6567 140.88 40.6662C140.88 40.6673 140.88 40.6684 140.88 40.6695C140.861 40.942 140.852 41.2227 140.854 41.5116L140.812 40.6696L140.813 41.5119L140.813 41.5137L140.828 52.506L132.281 54.0131L132.273 27.4691L140.82 25.962L140.798 30.9564C141.069 29.8926 141.483 28.9437 142.041 28.1097C142.474 27.4619 142.994 26.8835 143.6 26.3743C144.678 25.4386 145.921 24.7648 147.328 24.3528ZM154.546 23.5417L150.684 24.2226L150.686 32.6637L154.548 31.9828L154.562 39.8909C154.578 43.9939 155.726 46.6937 158.008 47.9903C160.283 49.2526 163.783 49.1309 168.508 47.6253L168.485 39.6657C168.047 39.7746 167.637 39.8679 167.256 39.9455C165.93 40.2158 164.954 40.296 164.33 40.1861C163.526 40.0446 163.124 39.3722 163.125 38.1687L163.095 30.4757L168.45 29.5315L168.5 21.0812L163.094 22.0345L163.11 14.5989L154.553 18.7623L154.546 23.5417ZM155.782 19.5324L155.775 24.5742L151.915 25.2548L151.916 31.1977L155.776 30.5172L155.792 39.8862C155.792 39.887 155.792 39.8879 155.792 39.8887C155.808 43.8106 156.901 45.9427 158.61 46.9174C160.3 47.8522 163.095 47.9312 167.276 46.7152L167.26 41.1994C165.981 41.4462 164.909 41.5371 164.117 41.3977C163.38 41.2679 162.762 40.8639 162.37 40.2066C162.01 39.6037 161.894 38.8834 161.894 38.1694C161.894 38.1691 161.894 38.1688 161.894 38.1686L161.861 29.4441L167.226 28.4981L167.261 22.5489L161.86 23.5012L161.875 16.5677L155.782 19.5324ZM177.39 34.999C177.603 35.0439 177.815 35.0859 178.027 35.1249C178.626 35.235 179.225 35.3212 179.824 35.3835C181.12 35.5089 182.214 35.6877 183.104 35.92C184.023 36.112 184.476 36.4745 184.464 37.0076C184.472 37.8556 183.72 38.4128 182.21 38.6791C180.475 38.985 179.081 38.5383 178.028 37.3389C177.811 37.0908 177.607 36.8104 177.419 36.4977L170.546 41.4791C170.722 41.7428 170.905 41.9952 171.095 42.2365C171.156 42.3141 171.218 42.3906 171.281 42.466C173.899 45.6135 177.802 46.7298 182.99 45.815C185.908 45.3005 188.322 44.2377 190.233 42.6267C192.143 41.0157 193.105 38.8462 193.12 36.1183C193.104 34.4222 192.77 33.0299 192.118 31.9415C191.494 30.8127 190.688 30.0524 189.698 29.6605C188.743 29.2626 187.701 28.9687 186.57 28.7787C186.15 28.6958 185.742 28.6277 185.346 28.5743C185.343 28.5739 185.34 28.5735 185.338 28.5731C184.666 28.4828 184.03 28.4351 183.429 28.43C182.472 28.4218 181.671 28.2975 181.027 28.0571C180.377 27.7824 180.055 27.3614 180.061 26.794C180.092 25.7622 180.765 25.1656 182.082 25.0042C183.36 24.8086 184.416 25.2059 185.25 26.196C185.405 26.3801 185.552 26.5848 185.692 26.8099L192.334 22.0284C192.221 21.8604 192.104 21.6976 191.983 21.54C191.854 21.3722 191.72 21.2103 191.582 21.0542C190.529 19.8653 189.21 19.0157 187.625 18.5053C185.665 17.8246 183.5 17.693 181.132 18.1107C178.523 18.5707 176.252 19.6435 174.319 21.3293C172.387 23.015 171.424 25.1845 171.432 27.8377C171.45 29.7458 171.897 31.2774 172.773 32.4325C173.678 33.5472 174.765 34.2934 176.035 34.6712C176.487 34.794 176.939 34.9033 177.39 34.999ZM176.372 33.488C177.568 33.8121 178.759 34.0355 179.947 34.1594C181.269 34.2875 182.42 34.4724 183.386 34.7223C183.921 34.8368 184.467 35.0277 184.901 35.3751C185.392 35.7675 185.703 36.3363 185.694 37.0147C185.696 37.8685 185.288 38.568 184.639 39.0496C184.042 39.4924 183.261 39.7431 182.424 39.8906C181.184 40.1092 180.001 40.017 178.932 39.5303C178.252 39.2208 177.662 38.7716 177.155 38.2081L172.279 41.7422C173.314 42.9653 174.556 43.816 176.01 44.3228C177.833 44.9578 180.071 45.0805 182.777 44.6034C185.521 44.1196 187.724 43.1334 189.44 41.6863C191.045 40.3321 191.875 38.521 191.89 36.1203C191.874 34.5765 191.57 33.4198 191.063 32.5737L191.052 32.5553L191.041 32.5365C190.525 31.6025 189.916 31.0701 189.245 30.8043L189.235 30.8003L189.225 30.7961C188.365 30.4379 187.414 30.168 186.366 29.9919L186.349 29.989L186.332 29.9857C185.255 29.7732 184.285 29.6676 183.418 29.6601C182.37 29.6512 181.417 29.5156 180.597 29.2097L180.573 29.2005L180.548 29.1903C180.09 28.9964 179.648 28.71 179.321 28.2826C178.981 27.838 178.825 27.3183 178.831 26.7807L178.831 26.7692L178.832 26.7577C178.855 25.9572 179.144 25.2092 179.773 24.6518C180.361 24.131 181.126 23.8843 181.914 23.7854C182.881 23.6407 183.817 23.7538 184.672 24.1814C185.144 24.4176 185.563 24.7357 185.935 25.1194L190.578 21.7772C189.687 20.8032 188.583 20.1061 187.248 19.6763L187.235 19.672L187.222 19.6675C185.489 19.0658 183.54 18.9351 181.345 19.3222C178.949 19.7447 176.886 20.7229 175.128 22.2564C173.476 23.6978 172.657 25.5216 172.662 27.8306C172.679 29.5451 173.077 30.7887 173.742 31.6734C174.497 32.599 175.371 33.1874 176.372 33.488Z" fill="url(#paint14_linear)"/>
<path d="M112.743 66.8543V63.1636L138.886 58.5503L112.743 66.8543Z" fill="url(#paint15_linear)"/>
<path fill-rule="evenodd" clip-rule="evenodd" d="M112.743 66.8543L138.886 58.5503L112.743 63.1636V66.8543ZM120.894 62.9746L113.974 64.1958V65.1727L120.894 62.9746Z" fill="white"/>
<defs>
<linearGradient id="paint0_linear" x1="137.669" y1="58.7054" x2="144.58" y2="89.6268" gradientUnits="userSpaceOnUse">
<stop offset="0.31602" stop-color="#55CFA2"/>
<stop offset="0.797725" stop-color="#33A178"/>
</linearGradient>
<linearGradient id="paint1_linear" x1="137.669" y1="58.7054" x2="144.58" y2="89.6268" gradientUnits="userSpaceOnUse">
<stop offset="0.31602" stop-color="#55CFA2"/>
<stop offset="0.797725" stop-color="#33A178"/>
</linearGradient>
<linearGradient id="paint2_linear" x1="137.669" y1="58.7054" x2="144.58" y2="89.6268" gradientUnits="userSpaceOnUse">
<stop offset="0.31602" stop-color="#55CFA2"/>
<stop offset="0.797725" stop-color="#33A178"/>
</linearGradient>
<linearGradient id="paint3_linear" x1="137.669" y1="58.7054" x2="144.58" y2="89.6268" gradientUnits="userSpaceOnUse">
<stop offset="0.31602" stop-color="#55CFA2"/>
<stop offset="0.797725" stop-color="#33A178"/>
</linearGradient>
<linearGradient id="paint4_linear" x1="137.669" y1="58.7054" x2="144.58" y2="89.6268" gradientUnits="userSpaceOnUse">
<stop offset="0.31602" stop-color="#55CFA2"/>
<stop offset="0.797725" stop-color="#33A178"/>
</linearGradient>
<linearGradient id="paint5_linear" x1="137.669" y1="58.7054" x2="144.58" y2="89.6268" gradientUnits="userSpaceOnUse">
<stop offset="0.31602" stop-color="#55CFA2"/>
<stop offset="0.797725" stop-color="#33A178"/>
</linearGradient>
<linearGradient id="paint6_linear" x1="137.669" y1="58.7054" x2="144.58" y2="89.6268" gradientUnits="userSpaceOnUse">
<stop offset="0.31602" stop-color="#55CFA2"/>
<stop offset="0.797725" stop-color="#33A178"/>
</linearGradient>
<linearGradient id="paint7_linear" x1="98.0641" y1="22.0863" x2="106.371" y2="69.1998" gradientUnits="userSpaceOnUse">
<stop offset="0.34443" stop-color="white"/>
<stop offset="1" stop-color="#ADC1CE"/>
</linearGradient>
<linearGradient id="paint8_linear" x1="98.0641" y1="22.0863" x2="106.371" y2="69.1998" gradientUnits="userSpaceOnUse">
<stop offset="0.34443" stop-color="white"/>
<stop offset="1" stop-color="#ADC1CE"/>
</linearGradient>
<linearGradient id="paint9_linear" x1="98.0641" y1="22.0863" x2="106.371" y2="69.1998" gradientUnits="userSpaceOnUse">
<stop offset="0.34443" stop-color="white"/>
<stop offset="1" stop-color="#ADC1CE"/>
</linearGradient>
<linearGradient id="paint10_linear" x1="98.0641" y1="22.0863" x2="106.371" y2="69.1998" gradientUnits="userSpaceOnUse">
<stop offset="0.34443" stop-color="white"/>
<stop offset="1" stop-color="#ADC1CE"/>
</linearGradient>
<linearGradient id="paint11_linear" x1="98.0641" y1="22.0863" x2="106.371" y2="69.1998" gradientUnits="userSpaceOnUse">
<stop offset="0.34443" stop-color="white"/>
<stop offset="1" stop-color="#ADC1CE"/>
</linearGradient>
<linearGradient id="paint12_linear" x1="98.0641" y1="22.0863" x2="106.371" y2="69.1998" gradientUnits="userSpaceOnUse">
<stop offset="0.34443" stop-color="white"/>
<stop offset="1" stop-color="#ADC1CE"/>
</linearGradient>
<linearGradient id="paint13_linear" x1="98.0641" y1="22.0863" x2="106.371" y2="69.1998" gradientUnits="userSpaceOnUse">
<stop offset="0.34443" stop-color="white"/>
<stop offset="1" stop-color="#ADC1CE"/>
</linearGradient>
<linearGradient id="paint14_linear" x1="98.2003" y1="22.8588" x2="106.371" y2="69.1999" gradientUnits="userSpaceOnUse">
<stop offset="0.34443" stop-color="white"/>
<stop offset="1" stop-color="#ADC1CE"/>
</linearGradient>
<linearGradient id="paint15_linear" x1="122.568" y1="59.5848" x2="125.523" y2="66.3247" gradientUnits="userSpaceOnUse">
<stop stop-color="white"/>
<stop offset="1" stop-color="#ADC1CE"/>
</linearGradient>
</defs>
</svg>
