<svg width="32" height="32" viewBox="0 0 32 32" fill="none" xmlns="http://www.w3.org/2000/svg">
<path d="M16.08 28C15.2844 28 14.5213 27.6839 13.9587 27.1213C13.3961 26.5587 13.08 25.7956 13.08 25C13.0841 24.8489 13.0392 24.7005 12.952 24.577C12.8647 24.4535 12.7398 24.3616 12.596 24.315C12.5126 24.278 12.4223 24.2589 12.331 24.259C12.1652 24.2585 12.0057 24.3223 11.886 24.437L11.827 24.496C11.5484 24.7748 11.2176 24.9959 10.8535 25.1468C10.4894 25.2977 10.0991 25.3754 9.705 25.3754C9.31087 25.3754 8.92061 25.2977 8.55651 25.1468C8.1924 24.9959 7.8616 24.7748 7.583 24.496C7.02092 23.9328 6.70363 23.1707 6.7 22.375C6.69897 21.9808 6.77612 21.5902 6.927 21.226C7.07788 20.8617 7.29948 20.531 7.579 20.253L7.631 20.201C7.72261 20.1065 7.78363 19.9866 7.8061 19.8569C7.82858 19.7273 7.81147 19.5938 7.757 19.474C7.70739 19.3581 7.62506 19.2592 7.52009 19.1894C7.41512 19.1196 7.29206 19.0819 7.166 19.081H7C6.20435 19.081 5.44129 18.7649 4.87868 18.2023C4.31607 17.6397 4 16.8766 4 16.081C4 15.2854 4.31607 14.5223 4.87868 13.9597C5.44129 13.3971 6.20435 13.081 7 13.081C7.15093 13.0855 7.29928 13.0412 7.42291 12.9545C7.54654 12.8678 7.63883 12.7434 7.686 12.6C7.73799 12.483 7.75414 12.3532 7.73243 12.227C7.71072 12.1008 7.65211 11.9839 7.564 11.891L7.5 11.827C6.93721 11.2638 6.6212 10.5001 6.62148 9.70394C6.62176 8.90775 6.93831 8.14429 7.5015 7.5815C8.06469 7.01871 8.82838 6.7027 9.62456 6.70298C10.4207 6.70326 11.1842 7.01981 11.747 7.583L11.799 7.635C11.9202 7.75383 12.0833 7.82027 12.253 7.82C12.3433 7.82006 12.4326 7.80097 12.515 7.764C12.5794 7.73606 12.6464 7.71462 12.715 7.7C12.8019 7.64142 12.8733 7.56255 12.923 7.47021C12.9726 7.37787 12.9991 7.27484 13 7.17V7C13 6.20435 13.3161 5.44129 13.8787 4.87868C14.4413 4.31607 15.2044 4 16 4C16.7956 4 17.5587 4.31607 18.1213 4.87868C18.6839 5.44129 19 6.20435 19 7V7.086C19.0042 7.26065 19.0763 7.4268 19.201 7.54911C19.3258 7.67143 19.4933 7.74027 19.668 7.741C19.8338 7.74186 19.9935 7.678 20.113 7.563L20.172 7.504C20.4501 7.22423 20.7809 7.0024 21.1454 6.85134C21.5098 6.70029 21.9005 6.62302 22.295 6.624C23.0902 6.62613 23.8524 6.94202 24.416 7.503C24.6948 7.7816 24.9159 8.1124 25.0668 8.47651C25.2177 8.84061 25.2954 9.23087 25.2954 9.625C25.2954 10.0191 25.2177 10.4094 25.0668 10.7735C24.9159 11.1376 24.6948 11.4684 24.416 11.747L24.364 11.799C24.2729 11.8915 24.2118 12.0092 24.1886 12.137C24.1654 12.2647 24.1812 12.3964 24.234 12.515C24.2623 12.5792 24.2837 12.6463 24.298 12.715C24.3568 12.8022 24.436 12.8738 24.5287 12.9234C24.6214 12.9731 24.7248 12.9994 24.83 13H25C25.7956 13 26.5587 13.3161 27.1213 13.8787C27.6839 14.4413 28 15.2044 28 16C28 16.7956 27.6839 17.5587 27.1213 18.1213C26.5587 18.6839 25.7956 19 25 19H24.914C24.7861 19.0021 24.6616 19.0411 24.5554 19.1123C24.4492 19.1836 24.3658 19.284 24.3154 19.4015C24.265 19.5191 24.2497 19.6487 24.2712 19.7747C24.2928 19.9008 24.3504 20.0179 24.437 20.112L24.496 20.171C24.7758 20.4491 24.9976 20.7799 25.1487 21.1444C25.2997 21.5088 25.377 21.8995 25.376 22.294C25.376 23.0896 25.0599 23.8527 24.4973 24.4153C23.9347 24.9779 23.1716 25.294 22.376 25.294C21.9818 25.295 21.5912 25.2179 21.227 25.067C20.8627 24.9161 20.532 24.6945 20.254 24.415L20.202 24.363C20.0811 24.2445 19.9183 24.1784 19.749 24.179C19.6546 24.1794 19.5612 24.1995 19.475 24.238C19.359 24.2872 19.26 24.3693 19.1902 24.4742C19.1203 24.579 19.0827 24.702 19.082 24.828V25C19.082 25.3941 19.0043 25.7844 18.8534 26.1485C18.7026 26.5126 18.4814 26.8434 18.2026 27.122C17.9238 27.4006 17.5929 27.6216 17.2287 27.7722C16.8645 27.9229 16.4741 28.0003 16.08 28ZM12.343 22.253C12.6873 22.2518 13.028 22.323 13.343 22.462C13.8461 22.6466 14.2814 22.9793 14.5915 23.4164C14.9016 23.8534 15.0719 24.3742 15.08 24.91V25C15.08 25.2652 15.1854 25.5196 15.3729 25.7071C15.5604 25.8946 15.8148 26 16.08 26C16.3452 26 16.5996 25.8946 16.7871 25.7071C16.9746 25.5196 17.08 25.2652 17.08 25V24.826C17.0832 24.303 17.2405 23.7925 17.5321 23.3583C17.8236 22.9241 18.2367 22.5854 18.7196 22.3846C19.2025 22.1837 19.7339 22.1295 20.2474 22.2289C20.7609 22.3282 21.2338 22.5766 21.607 22.943L21.668 23.003C21.7609 23.0961 21.8712 23.17 21.9927 23.2204C22.1142 23.2708 22.2445 23.2968 22.376 23.2968C22.5075 23.2968 22.6378 23.2708 22.7593 23.2204C22.8808 23.17 22.9911 23.0961 23.084 23.003C23.1771 22.9101 23.251 22.7998 23.3014 22.6783C23.3518 22.5568 23.3778 22.4265 23.3778 22.295C23.3778 22.1635 23.3518 22.0332 23.3014 21.9117C23.251 21.7902 23.1771 21.6799 23.084 21.587L23.017 21.52C22.6533 21.1455 22.4076 20.6724 22.3105 20.1595C22.2134 19.6465 22.2691 19.1164 22.4708 18.6348C22.6725 18.1533 23.0112 17.7417 23.4448 17.451C23.8785 17.1604 24.388 17.0035 24.91 17H25C25.2652 17 25.5196 16.8946 25.7071 16.7071C25.8946 16.5196 26 16.2652 26 16C26 15.7348 25.8946 15.4804 25.7071 15.2929C25.5196 15.1054 25.2652 15 25 15H24.826C24.309 14.9982 23.8039 14.8452 23.3728 14.5599C22.9417 14.2745 22.6035 13.8692 22.4 13.394C22.3639 13.3094 22.3397 13.2202 22.328 13.129C22.1631 12.6611 22.1333 12.1562 22.2421 11.6721C22.3508 11.188 22.5938 10.7444 22.943 10.392L23.003 10.332C23.1898 10.144 23.2951 9.89002 23.296 9.625C23.2968 9.42655 23.2384 9.23235 23.1285 9.06714C23.0185 8.90193 22.8619 8.77317 22.6786 8.69726C22.4952 8.62134 22.2934 8.6017 22.0988 8.64083C21.9043 8.67996 21.7258 8.77609 21.586 8.917L21.519 8.985C21.0238 9.47133 20.3571 9.74326 19.663 9.742C19.299 9.74231 18.9389 9.66635 18.606 9.519C18.1305 9.31493 17.7252 8.97623 17.4398 8.54464C17.1544 8.11304 17.0016 7.6074 17 7.09V7C17 6.73478 16.8946 6.48043 16.7071 6.29289C16.5196 6.10536 16.2652 6 16 6C15.7348 6 15.4804 6.10536 15.2929 6.29289C15.1054 6.48043 15 6.73478 15 7V7.175C14.9983 7.69186 14.8453 8.19692 14.5599 8.62785C14.2745 9.05878 13.8692 9.39673 13.394 9.6C13.3096 9.63698 13.2204 9.66157 13.129 9.673C12.6609 9.8365 12.1563 9.86554 11.6726 9.75684C11.1888 9.64814 10.7452 9.40604 10.392 9.058L10.332 9C10.2397 8.90587 10.1298 8.83091 10.0084 8.77942C9.88712 8.72794 9.7568 8.70094 9.625 8.7C9.49297 8.70043 9.36235 8.72718 9.24078 8.77869C9.11922 8.8302 9.00914 8.90544 8.917 9C8.82402 9.09287 8.75026 9.20316 8.69994 9.32456C8.64962 9.44596 8.62371 9.57608 8.62371 9.7075C8.62371 9.83892 8.64962 9.96904 8.69994 10.0904C8.75026 10.2118 8.82402 10.3221 8.917 10.415L8.985 10.483C9.35075 10.852 9.59859 11.3213 9.69705 11.8314C9.79551 12.3415 9.74015 12.8694 9.538 13.348C9.35263 13.8502 9.01952 14.2844 8.58255 14.5936C8.14558 14.9027 7.62523 15.0723 7.09 15.08H7C6.73478 15.08 6.48043 15.1854 6.29289 15.3729C6.10536 15.5604 6 15.8148 6 16.08C6 16.3452 6.10536 16.5996 6.29289 16.7871C6.48043 16.9746 6.73478 17.08 7 17.08H7.175C7.69781 17.0837 8.20796 17.2412 8.64186 17.5329C9.07575 17.8245 9.4142 18.2375 9.61498 18.7202C9.81577 19.2029 9.87003 19.7341 9.77098 20.2474C9.67193 20.7608 9.42397 21.2336 9.058 21.607L9 21.668C8.90709 21.761 8.8334 21.8713 8.78314 21.9928C8.73289 22.1143 8.70704 22.2444 8.70709 22.3759C8.70714 22.5073 8.73307 22.6374 8.78342 22.7589C8.83376 22.8803 8.90752 22.9906 9.0005 23.0835C9.09348 23.1764 9.20384 23.2501 9.32529 23.3004C9.44675 23.3506 9.57691 23.3765 9.70835 23.3764C9.83979 23.3764 9.96994 23.3504 10.0914 23.3001C10.2128 23.2497 10.3231 23.176 10.416 23.083L10.484 23.016C10.9816 22.5307 11.648 22.2572 12.343 22.253ZM16 20C15.2089 20 14.4355 19.7654 13.7777 19.3259C13.1199 18.8864 12.6072 18.2616 12.3045 17.5307C12.0017 16.7998 11.9225 15.9956 12.0769 15.2196C12.2312 14.4437 12.6122 13.731 13.1716 13.1716C13.731 12.6122 14.4437 12.2312 15.2196 12.0769C15.9956 11.9225 16.7998 12.0017 17.5307 12.3045C18.2616 12.6072 18.8864 13.1199 19.3259 13.7777C19.7654 14.4355 20 15.2089 20 16C20 17.0609 19.5786 18.0783 18.8284 18.8284C18.0783 19.5786 17.0609 20 16 20ZM16 14C15.6044 14 15.2178 14.1173 14.8889 14.3371C14.56 14.5568 14.3036 14.8692 14.1522 15.2346C14.0009 15.6001 13.9613 16.0022 14.0384 16.3902C14.1156 16.7781 14.3061 17.1345 14.5858 17.4142C14.8655 17.6939 15.2219 17.8844 15.6098 17.9616C15.9978 18.0387 16.3999 17.9991 16.7654 17.8478C17.1308 17.6964 17.4432 17.44 17.6629 17.1111C17.8827 16.7822 18 16.3956 18 16C18 15.4696 17.7893 14.9609 17.4142 14.5858C17.0391 14.2107 16.5304 14 16 14Z" fill="#BDC5E8"/>
</svg>
